<svg xmlns="http://www.w3.org/2000/svg" width="15" height="16" viewBox="0 0 15 16">
  <g id="icon-grade" transform="translate(15 16) rotate(180)">
    <path id="Caminho_389" data-name="Caminho 389" d="M13,1a1,1,0,0,1,1,1V14a1,1,0,0,1-1,1H2a1,1,0,0,1-1-1V2A1,1,0,0,1,2,1ZM2,0A2,2,0,0,0,0,2V14a2,2,0,0,0,2,2H13a2,2,0,0,0,2-2V2a2,2,0,0,0-2-2Z" transform="translate(0)"/>
    <path id="Caminho_390" data-name="Caminho 390" d="M4,1A1,1,0,0,1,5,0H6A1,1,0,0,1,7,1V4A1,1,0,0,1,6,5H5A1,1,0,0,1,4,4ZM0,1A1,1,0,0,1,1,0H2A1,1,0,0,1,3,1V8A1,1,0,0,1,2,9H1A1,1,0,0,1,0,8ZM8,1A1,1,0,0,1,9,0h1a1,1,0,0,1,1,1V11a1,1,0,0,1-1,1H9a1,1,0,0,1-1-1Z" transform="translate(2 2)"/>
  </g>
</svg>
