<svg xmlns="http://www.w3.org/2000/svg" width="33.225" height="33.225" viewBox="0 0 33.225 33.225">
  <path id="icon-instagram" d="M16.612,0C12.1,0,11.537.021,9.766.1A12.241,12.241,0,0,0,5.731.872,8.134,8.134,0,0,0,2.789,2.789,8.155,8.155,0,0,0,.872,5.731,12.168,12.168,0,0,0,.1,9.76C.021,11.535,0,12.1,0,16.614s.021,5.075.1,6.846a12.238,12.238,0,0,0,.772,4.033,8.5,8.5,0,0,0,4.857,4.859,12.2,12.2,0,0,0,4.033.772c1.773.079,2.338.1,6.851.1s5.075-.021,6.848-.1a12.263,12.263,0,0,0,4.035-.772,8.5,8.5,0,0,0,4.857-4.859,12.292,12.292,0,0,0,.772-4.033c.079-1.771.1-2.336.1-6.848s-.021-5.077-.1-6.851a12.278,12.278,0,0,0-.772-4.031,8.152,8.152,0,0,0-1.917-2.942A8.121,8.121,0,0,0,27.493.872,12.221,12.221,0,0,0,23.459.1C21.685.021,21.123,0,16.608,0h.006ZM15.123,2.994h1.491c4.436,0,4.961.015,6.711.1a9.206,9.206,0,0,1,3.086.571A5.154,5.154,0,0,1,28.322,4.9a5.133,5.133,0,0,1,1.242,1.91A9.124,9.124,0,0,1,30.135,9.9c.081,1.751.1,2.276.1,6.709s-.017,4.961-.1,6.711a9.19,9.19,0,0,1-.571,3.084,5.506,5.506,0,0,1-3.154,3.15,9.139,9.139,0,0,1-3.084.573c-1.751.079-2.276.1-6.711.1s-4.963-.019-6.713-.1a9.176,9.176,0,0,1-3.084-.573,5.146,5.146,0,0,1-1.91-1.242A5.15,5.15,0,0,1,3.661,26.4a9.178,9.178,0,0,1-.571-3.084c-.079-1.751-.1-2.276-.1-6.713s.017-4.959.1-6.709a9.191,9.191,0,0,1,.573-3.086A5.154,5.154,0,0,1,4.907,4.9a5.133,5.133,0,0,1,1.91-1.242A9.176,9.176,0,0,1,9.9,3.084c1.532-.071,2.126-.091,5.223-.093v0ZM25.481,5.752a1.993,1.993,0,1,0,1.993,1.993,1.993,1.993,0,0,0-1.993-1.993Zm-8.867,2.33a8.532,8.532,0,1,0,8.533,8.532,8.531,8.531,0,0,0-8.533-8.532Zm0,2.992a5.538,5.538,0,1,1-5.538,5.538A5.538,5.538,0,0,1,16.614,11.074Z"/>
</svg>
