<svg xmlns="http://www.w3.org/2000/svg" width="33.223" height="23.338" viewBox="0 0 33.223 23.338">
  <path id="icon-youtube" d="M16.718,2H16.9c1.707.006,10.356.069,12.688.7a4.174,4.174,0,0,1,2.938,2.949,18.8,18.8,0,0,1,.457,2.911l.021.216.046.54.017.216c.135,1.9.152,3.675.154,4.064v.156c0,.4-.021,2.3-.17,4.278l-.017.218-.019.216a20.569,20.569,0,0,1-.488,3.235,4.168,4.168,0,0,1-2.938,2.949c-2.409.648-11.564.694-12.833.7h-.295c-.642,0-3.3-.012-6.078-.108l-.353-.012-.181-.008L9.5,25.194l-.355-.015a33.381,33.381,0,0,1-5.511-.54A4.168,4.168,0,0,1,.691,21.693,20.531,20.531,0,0,1,.2,18.458L.187,18.24.17,18.024Q.017,15.913,0,13.8V13.54c0-.446.021-1.989.133-3.692l.015-.214.006-.108L.17,9.311l.046-.54.021-.216A18.763,18.763,0,0,1,.694,5.643,4.168,4.168,0,0,1,3.632,2.695a34.087,34.087,0,0,1,5.511-.54L9.5,2.14l.357-.012.179-.006.355-.015q2.964-.1,5.931-.106h.4ZM13.29,8.665v10l8.632-5Z" transform="translate(0 -1.999)"/>
</svg>
