<svg id="icon-calendario" xmlns="http://www.w3.org/2000/svg" width="16" height="16" viewBox="0 0 16 16">
  <path id="Caminho_391" data-name="Caminho 391" d="M11,6.5a.5.5,0,0,1,.5-.5h1a.5.5,0,0,1,.5.5v1a.5.5,0,0,1-.5.5h-1a.5.5,0,0,1-.5-.5Zm-3,0A.5.5,0,0,1,8.5,6h1a.5.5,0,0,1,.5.5v1a.5.5,0,0,1-.5.5h-1A.5.5,0,0,1,8,7.5Zm-5,3A.5.5,0,0,1,3.5,9h1a.5.5,0,0,1,.5.5v1a.5.5,0,0,1-.5.5h-1a.5.5,0,0,1-.5-.5Zm3,0A.5.5,0,0,1,6.5,9h1a.5.5,0,0,1,.5.5v1a.5.5,0,0,1-.5.5h-1a.5.5,0,0,1-.5-.5Z"/>
  <path id="Caminho_392" data-name="Caminho 392" d="M3.5,0A.5.5,0,0,1,4,.5V1h8V.5a.5.5,0,0,1,1,0V1h1a2,2,0,0,1,2,2V14a2,2,0,0,1-2,2H2a2,2,0,0,1-2-2V3A2,2,0,0,1,2,1H3V.5A.5.5,0,0,1,3.5,0ZM1,4V14a1,1,0,0,0,1,1H14a1,1,0,0,0,1-1V4Z"/>
</svg>
