<svg xmlns="http://www.w3.org/2000/svg" width="16" height="16" viewBox="0 0 16 16">
  <path id="icon-sol-off" d="M12,8A4,4,0,1,1,8,4,4,4,0,0,1,12,8ZM8,0a.5.5,0,0,1,.5.5v2a.5.5,0,0,1-1,0V.5A.5.5,0,0,1,8,0ZM8,13a.5.5,0,0,1,.5.5v2a.5.5,0,0,1-1,0v-2A.5.5,0,0,1,8,13Zm8-5a.5.5,0,0,1-.5.5h-2a.5.5,0,0,1,0-1h2A.5.5,0,0,1,16,8ZM3,8a.5.5,0,0,1-.5.5H.5a.5.5,0,0,1,0-1h2A.5.5,0,0,1,3,8ZM13.657,2.343a.5.5,0,0,1,0,.707L12.243,4.465a.5.5,0,0,1-.707-.708L12.95,2.343a.5.5,0,0,1,.707,0ZM4.464,11.536a.5.5,0,0,1,0,.707L3.05,13.657a.5.5,0,1,1-.707-.707l1.414-1.414A.5.5,0,0,1,4.464,11.536Zm9.193,2.121a.5.5,0,0,1-.707,0l-1.414-1.414a.5.5,0,1,1,.707-.707l1.414,1.414a.5.5,0,0,1,0,.707ZM4.464,4.465a.5.5,0,0,1-.707,0L2.343,3.05a.5.5,0,1,1,.707-.707L4.464,3.757a.5.5,0,0,1,0,.708Z" fill="#e1e1e6"/>
</svg>
