<svg xmlns="http://www.w3.org/2000/svg" width="15.998" height="15.999" viewBox="0 0 15.998 15.999">
  <g id="icon-lua-off" transform="translate(0 -0.001)">
    <path id="Caminho_401" data-name="Caminho 401" d="M6,.278a.768.768,0,0,1,.08.858A7.208,7.208,0,0,0,5.2,4.6a7.3,7.3,0,0,0,7.318,7.277,7.354,7.354,0,0,0,1.533-.16.787.787,0,0,1,.81.316.733.733,0,0,1-.031.893A8.321,8.321,0,1,1,5.124.06.752.752,0,0,1,6,.278Z" fill="#1a1a1a"/>
    <path id="Caminho_402" data-name="Caminho 402" d="M10.794,3.148a.217.217,0,0,1,.412,0l.387,1.162a1.736,1.736,0,0,0,1.1,1.1l1.162.387a.217.217,0,0,1,0,.412l-1.162.387a1.734,1.734,0,0,0-1.1,1.1l-.387,1.162a.217.217,0,0,1-.412,0L10.407,7.69a1.734,1.734,0,0,0-1.1-1.1L8.148,6.206a.217.217,0,0,1,0-.412L9.31,5.407a1.734,1.734,0,0,0,1.1-1.1l.387-1.162ZM13.863.1a.145.145,0,0,1,.274,0L14.4.873a1.155,1.155,0,0,0,.732.732l.774.258a.145.145,0,0,1,0,.274l-.774.258a1.156,1.156,0,0,0-.732.732l-.258.774a.145.145,0,0,1-.274,0L13.6,3.127a1.156,1.156,0,0,0-.732-.732L12.1,2.137a.145.145,0,0,1,0-.274l.774-.258A1.155,1.155,0,0,0,13.6.873L13.863.1Z" fill="#1a1a1a"/>
  </g>
</svg>
