<svg id="img-tecnico" xmlns="http://www.w3.org/2000/svg" width="367.232" height="300" viewBox="0 0 367.232 300">
  <path id="Caminho_336" data-name="Caminho 336" d="M466.851,222.429v.68q-.06,5.9-.7,11.762a.424.424,0,0,1,0,.071c-.034.325-.071.646-.108.971-.064.549-.131,1.095-.205,1.644a118.246,118.246,0,0,1-4.308,19.724h0a106.362,106.362,0,0,1-11.246,24.764q-2.212,3.549-4.711,6.871h0c-.889,1.173-1.8,2.32-2.735,3.449q-.986,1.184-2.01,2.331l-.426.471a110.858,110.858,0,0,1-11.582,11.007A181.778,181.778,0,0,1,407.5,321.1c-.418.258-.841.512-1.263.747a.615.615,0,0,1-.093.056,224.868,224.868,0,0,1-31.048,15.868,140.824,140.824,0,0,1-36.159,9.8c-17.269,2.122-34.747.4-51.911-2.57A337.346,337.346,0,0,1,244.8,334.912l-2.279-.714q-1.771-.564-3.538-1.151-10.674-3.531-21.11-7.846a277.481,277.481,0,0,1-49.815-26.748q-2.989-2.01-5.892-4.11-4.058-2.922-8.018-6.015l-1.629-1.263a167.479,167.479,0,0,1-19.361-17.781c-8.04-8.75-14.911-18.621-19.428-29.89q-1.069-2.656-1.958-5.414l-.056-.183c-.3-.934-.575-1.868-.829-2.84q-.56-2.085-.983-4.222c-.06-.273-.112-.545-.161-.822a70.693,70.693,0,0,1-1.177-14.545,67.252,67.252,0,0,1,1.494-12.7h0a57.305,57.305,0,0,1,4.233-12.542h0a45.208,45.208,0,0,1,6.475-9.987h0a38.2,38.2,0,0,1,6.1-5.7,49.835,49.835,0,0,1,13.208-6.785h0c2.189-.785,4.409-1.472,6.639-2.111,1.58-.456,3.168-.889,4.749-1.315l4.663-1.259c2.989-.814,5.978-1.651,8.922-2.556a100.5,100.5,0,0,0,23.165-9.841c1.151-.7,2.324-1.465,3.5-2.287q2.242-1.558,4.424-3.385h0c1.472-1.233,2.914-2.552,4.289-3.949.213-.217.422-.433.631-.654,1.121-1.181,2.208-2.417,3.217-3.7.493-.628.971-1.267,1.427-1.917.631-.9,1.229-1.816,1.782-2.757h0a28.227,28.227,0,0,0,4.282-15.375,23.652,23.652,0,0,0-.243-2.694c-.486-3.3-.953-6.52-1.3-9.669-1.442-13.028-.833-24.842,8.945-35.943,12.158-13.8,31.239-16.611,48.608-15.509C318,51.9,363.717,80.576,403.892,114.71q5.212,4.424,10.3,8.967,1.282,1.143,2.567,2.3c6.352,5.72,12.606,11.653,18.431,18.009.471.516.941,1.031,1.4,1.551.284.321.572.639.852.964q2.724,3.082,5.287,6.314a119.617,119.617,0,0,1,12.076,18.308,103.93,103.93,0,0,1,10.6,32.382h0a115.4,115.4,0,0,1,1.282,12.393c.064,1.222.1,2.447.127,3.669v1.173C466.855,221.308,466.855,221.861,466.851,222.429Z" transform="translate(-108.551 -48.512)" fill="#e8c82a" opacity="0.1"/>
  <path id="Caminho_337" data-name="Caminho 337" d="M383.958,446.234l-5.978,106.4,5.978.078,4.857-107.977Z" transform="translate(-236.759 -278.583)" fill="#3f3d56"/>
  <rect id="Retângulo_41" data-name="Retângulo 41" width="73.977" height="16.066" transform="translate(51.178 221.561)" fill="#e8c82a"/>
  <path id="Caminho_338" data-name="Caminho 338" d="M314.975,679.51V689.6H238.558q-4.058-2.922-8.018-6.015V679.51Z" transform="translate(-184.962 -443.755)" fill="#3f3d56"/>
  <path id="Caminho_339" data-name="Caminho 339" d="M295.081,545.784c-.209.968-.482,1.924-.77,2.877a37.511,37.511,0,0,0-2.066,8.332c-.265,3.781.747,8.179-1.868,10.925-.673.71-1.551,1.24-2.152,2a3.482,3.482,0,0,0-.254.374,5.791,5.791,0,0,0-.609,2.989,52.3,52.3,0,0,0,.422,6.482c.885,7.4,2.634,14.81.336,21.793a33.584,33.584,0,0,1-1.453,3.553,27.775,27.775,0,0,0-2.709,7.57,47.669,47.669,0,0,0-.2,6.034q-1.771-.564-3.538-1.151-10.674-3.531-21.11-7.846c.019-.1.037-.205.052-.306.534-3.325-.2-6.725-1.087-9.968-1.868-6.871-4.513-13.674-6.079-20.594a52.112,52.112,0,0,1-1.237-8.22c-.045-.62-.071-1.244-.075-1.868-.019-.814,0-1.629.034-2.451.078-1.64.149-3.587-1.162-4.584a10.048,10.048,0,0,0-2.514-.964c-1.622-.631-2.731-2.1-4.016-3.269a5.264,5.264,0,0,0-4.7-1.382c-8.4,1.924-14.571,9.049-22.387,12.651-.3.142-.605.276-.912.4a13.283,13.283,0,0,0-2.866,1.465,3.265,3.265,0,0,0-1.285,1.812,6.779,6.779,0,0,0,.071,2.436,12.438,12.438,0,0,1-.168,3.972,12.125,12.125,0,0,1-.4,1.495c-.3.885-.7,1.752-1.08,2.615q-2.989-2.01-5.892-4.11-4.058-2.922-8.018-6.015l-1.6-1.289a167.483,167.483,0,0,1-19.361-17.781,67.706,67.706,0,0,0,2.5-6.624c.314-1.319.43-2.69.863-3.972a14.281,14.281,0,0,1,2.062-3.7,50.065,50.065,0,0,1,11.485-11.493c4.629-3.318,9.976-5.978,14.142-9.744a22.318,22.318,0,0,0,4.323-5.122,3.206,3.206,0,0,0,.2-.374,7.752,7.752,0,0,0,.669-2.137c.3-1.674.254-3.512.4-5.119a54.6,54.6,0,0,0,15.367.463c5.959-.669,11.788-2.324,17.747-2.967.448-.052.9-.093,1.353-.131,1.909-.153,3.822-.187,5.739-.164,1.6,0,3.206.071,4.809.123l17.646.6a17.324,17.324,0,0,1,5.769.856,12.609,12.609,0,0,1,5.276,4.394c.176.239.351.478.516.725a22.79,22.79,0,0,1,2.72,5.376c.071.194.138.374.2.587.168.519.314,1.042.445,1.573.1.415.191.829.273,1.248a53.579,53.579,0,0,0,1.3,6.183c.045.146.093.291.146.433.781,2.189,2.077,4.151,3.056,6.254a23.232,23.232,0,0,1,1.607,4.756A23.5,23.5,0,0,1,295.081,545.784Z" transform="translate(-149.81 -332.988)" fill="#35323e"/>
  <path id="Caminho_340" data-name="Caminho 340" d="M273.262,259.156c-1.577-1.255-3.863-.336-5.709.475a36.66,36.66,0,0,1-4.767,1.722,2.015,2.015,0,0,1-1.046.108c-.747-.179-1.061-1.065-1.618-1.6-.968-.93-2.552-.71-3.8-.206s-2.481,1.233-3.818,1.121c-1.427-.112-2.668-1.166-4.11-1.2-2.541-.06-4.674,3.071-7.076,2.242-1.465-.5-2.615-2.41-4.058-1.868-1.121.426-1.222,1.976-1.9,2.989-.8,1.181-2.346,1.513-3.673,2.036a10.551,10.551,0,0,0-6.4,10.772c.3,2.462,1.494,4.719,2.283,7.069,2.339,6.834,1.536,14.541,4.483,21.132.374-.351.583-.482.945-.829a8.646,8.646,0,0,0-.5,6.2c.31,1.035.814,2,1.2,3.011a26.982,26.982,0,0,1,.956,3.475l3.251,14.34c1.27,5.6,2.544,11.209,2.765,16.948a49.462,49.462,0,0,1-.852,11.134c5.888-.975,11.276-3.587,17.243-3.553a48.069,48.069,0,0,1,6.531.673,134.452,134.452,0,0,0,19.1,1.3,7.584,7.584,0,0,0,2.929-.411,21.967,21.967,0,0,0,2.272-1.427A10.049,10.049,0,0,1,293,353.682c7.992-.146,15.692,2.78,23.632,3.811a28.452,28.452,0,0,0,.915-21.341,31.864,31.864,0,0,1-1.958-6.183A31.28,31.28,0,0,1,315.5,326a28.81,28.81,0,0,0-1.8-9.931,10.21,10.21,0,0,1-.971-3.837,8.718,8.718,0,0,1,1.345-3.736,25.928,25.928,0,0,1,11.04-12.053l5.765-3.871c-.788-4.98-1.8-10.226-3.916-14.807a26.33,26.33,0,0,0-9.539-11.47,31.525,31.525,0,0,0-4.506-2.242,20.938,20.938,0,0,0-6.819-1.868c-2.69-.153-5.339.568-8,1.016C289.739,264.607,279.9,264.435,273.262,259.156Z" transform="translate(-181.628 -180.068)" fill="#e8c82a"/>
  <path id="Caminho_341" data-name="Caminho 341" d="M265.252,488.7l-2.742,3.464-5.171,6.527-5.978,7.543-1.67,2.107h-3.239l-80.213.093L116,508.495h-2.242c-.3-.934-.575-1.868-.829-2.84q-.56-2.085-.983-4.222c-.06-.273-.112-.546-.161-.822L130.015,488.7l6.852-.037h0l20.96-.12h0l11.706-.067h3.478l7.8-.041h0l59.458-.34h0l3.041-.019h1.319l3.493-.019,13-.075,2.5-.949.183.194Z" transform="translate(-110.58 -323.19)" fill="#3f3d56"/>
  <path id="Caminho_342" data-name="Caminho 342" d="M262.1,459.595l-.31.374-2.04,2.4-4.2,4.958-8.806,10.383-78.012-1.991-58.827-1.495c-.06-.273-.112-.545-.161-.822a70.694,70.694,0,0,1-1.177-14.545l6.523-3.34,1.494-.77,11.631-5.978,10.207-5.231L165.05,447l5.9.766,2.668.344,3.9.508.329.045,61.226,7.939,6.766.878,3.972.516,12.24,1.592Z" transform="translate(-108.551 -295.948)" fill="#504f60"/>
  <path id="Caminho_343" data-name="Caminho 343" d="M468.023,534.51l-.064,1.468-.374,8.291-2.01,45.582-.426,9.852-1.121,25.346-.631,14.317-2.279-.714q-1.771-.564-3.538-1.151l5.466-99.384.116-2.085,2.406-.747Z" transform="translate(-327.175 -352.93)" fill="#3f3d56"/>
  <path id="Caminho_344" data-name="Caminho 344" d="M118.068,534.22l-.168,3.837-.247,5.6q-1.069-2.656-1.958-5.414l-.056-.183c-.3-.934-.575-1.868-.829-2.84Z" transform="translate(-112.472 -352.748)" fill="#3f3d56"/>
  <ellipse id="Elipse_15" data-name="Elipse 15" cx="17.187" cy="23.165" rx="17.187" ry="23.165" transform="translate(86.112 78.651)" fill="#a1616a"/>
  <ellipse id="Elipse_16" data-name="Elipse 16" cx="17.187" cy="23.165" rx="17.187" ry="23.165" transform="translate(86.112 78.651)" opacity="0.1"/>
  <ellipse id="Elipse_17" data-name="Elipse 17" cx="23.912" cy="23.912" rx="23.912" ry="23.912" transform="translate(81.815 63.893)" fill="#a1616a"/>
  <path id="Caminho_345" data-name="Caminho 345" d="M348.487,183.988a30.61,30.61,0,0,0-4.338.661c-3.781.919-7.05,2.959-10.234,4.962a12.177,12.177,0,0,0-3.781,3.161c-1.592,2.372-.975,5.391-1.868,8.025a23.116,23.116,0,0,1-2.036,3.826,45.549,45.549,0,0,0-4.043,11c-.209.777-.269,1.831.579,2.13a2.335,2.335,0,0,0,1.45-.164c2.679-.885,6.083-1.14,8.07.658s1.82,4.984,4.185,6.352c2.709,1.58,6.938-.329,9.4,1.536,1.054.8,1.435,2.081,2.3,3.045,2.01,2.242,5.877,2.133,9.094,1.681,1.846-.262,4.11-.437,5.231.859.538.613.691,1.453,1.315,2.006,1.121,1,3.172.493,4.267-.534s1.618-2.417,2.53-3.572c1.775-2.242,4.894-3.463,6.725-5.679,1.532-1.868,2-4.207,2.414-6.464l1.558-8.365c.631-3.392,1.207-7.1-.7-10.088-.68-1.076-1.655-2-2.242-3.116-.392-.747-.613-1.536-1.069-2.242a9.308,9.308,0,0,0-1.917-1.935l-3.688-3.053a31.006,31.006,0,0,0-4.031-2.989C362.386,182.62,354.5,183.427,348.487,183.988Z" transform="translate(-242.285 -133.038)" fill="#464353"/>
  <path id="Caminho_346" data-name="Caminho 346" d="M138.524,342.24c-.885.941-1.7,1.958-2.653,2.84a32.13,32.13,0,0,1-2.615,2.092q-2.2,1.644-4.3,3.4a24.063,24.063,0,0,0-3.938,3.934c-2,2.679-2.94,6.012-4.809,8.78-1.651,2.455-3.979,4.394-5.657,6.83a10.567,10.567,0,0,0-1.614,3.389,15.745,15.745,0,0,0-.333,3.583,26.611,26.611,0,0,0,.34,5.9,8.947,8.947,0,0,0,2.806,5.1,12.31,12.31,0,0,0,5.01,2.167,4.511,4.511,0,0,0,2.787.078,4.6,4.6,0,0,0,1.622-1.367l4.547-5.231c3.041-3.512,6.2-7.1,10.376-9.154,1.308-.639,2.686-1.121,4-1.741,5.56-2.679,9.49-8.164,11.014-14.142.374-1.461.613-2.952.856-4.442l.658-4.087a1.3,1.3,0,0,0,0-.624,1.345,1.345,0,0,0-.478-.568,79.252,79.252,0,0,1-8.87-8.369,20.487,20.487,0,0,0-2.01-2.3c-.942-.747-.871-.691-2,0a24.014,24.014,0,0,0-4.738,3.934Z" transform="translate(-111.082 -229.694)" fill="#a1616a"/>
  <path id="Caminho_347" data-name="Caminho 347" d="M262.506,421.833a.7.7,0,1,0-1.263.613l-.374.183,11.141,22.836,2.014-.983-11.142-22.851Z" transform="translate(-203.96 -282.087)" fill="#3f3d56"/>
  <path id="Caminho_348" data-name="Caminho 348" d="M138.524,342.24c-.885.941-1.7,1.958-2.653,2.84a32.13,32.13,0,0,1-2.615,2.092q-2.2,1.644-4.3,3.4a24.063,24.063,0,0,0-3.938,3.934c-2,2.679-2.94,6.012-4.809,8.78-1.651,2.455-3.979,4.394-5.657,6.83a10.567,10.567,0,0,0-1.614,3.389,15.745,15.745,0,0,0-.333,3.583,26.611,26.611,0,0,0,.34,5.9,8.947,8.947,0,0,0,2.806,5.1,12.31,12.31,0,0,0,5.01,2.167,4.511,4.511,0,0,0,2.787.078,4.6,4.6,0,0,0,1.622-1.367l4.547-5.231c3.041-3.512,6.2-7.1,10.376-9.154,1.308-.639,2.686-1.121,4-1.741,5.56-2.679,9.49-8.164,11.014-14.142.374-1.461.613-2.952.856-4.442l.658-4.087a1.3,1.3,0,0,0,0-.624,1.345,1.345,0,0,0-.478-.568,79.252,79.252,0,0,1-8.87-8.369,20.487,20.487,0,0,0-2.01-2.3c-.942-.747-.871-.691-2,0a24.014,24.014,0,0,0-4.738,3.934Z" transform="translate(-111.082 -229.694)" opacity="0.04"/>
  <path id="Caminho_349" data-name="Caminho 349" d="M480.221,405.344a17.446,17.446,0,0,1-1.121,7.013,3.735,3.735,0,0,1-2.077,2.178,4.834,4.834,0,0,1-1.827.067,66.009,66.009,0,0,0-21.853,1.734c1.906-3.811.811-8.38,1.338-12.61.146-1.154.411-2.29.512-3.449.374-4.11-1.386-8.1-2.193-12.158a27.2,27.2,0,0,1,0-10.641,7.1,7.1,0,0,1,.915-2.559,6.008,6.008,0,0,1,2.1-1.827c3.026-1.722,6.594-1.92,9.994-1.693,2.29.153,6.882-.064,8.791,1.345,2.089,1.543,2.75,6.725,3.314,9.12a77.14,77.14,0,0,1,1.719,11.16A119.924,119.924,0,0,1,480.221,405.344Z" transform="translate(-323.976 -250.714)" fill="#a1616a"/>
  <path id="Caminho_350" data-name="Caminho 350" d="M59.98,436.03,73.43,445l60.527-2.242L93.98,436.03Z" transform="translate(-37.571 -273.127)" fill="#fff"/>
  <path id="Caminho_351" data-name="Caminho 351" d="M189.93,287.616c-2.208,1.947-4.08,4.241-6.172,6.314a84.927,84.927,0,0,1-9.378,7.678,6.979,6.979,0,0,1,4.857,4.895c.142.549.213,1.121.374,1.659a9.064,9.064,0,0,0,2.077,3.363c3.789,4.271,9.09,7.431,11.325,12.7a1.173,1.173,0,0,0,.448.635.983.983,0,0,0,.579.067c2.021-.213,3.568-1.842,4.857-3.426a35.815,35.815,0,0,0,6.352-11.179,19.926,19.926,0,0,0,.093-12.7,32.519,32.519,0,0,0-2.94-5.728q-1.453-2.417-2.9-4.827c-.5-.848-1.147-2.571-2.137-2.989C195.228,283.159,191.3,286.245,189.93,287.616Z" transform="translate(-149.785 -195.96)" fill="#e8c82a"/>
  <path id="Caminho_352" data-name="Caminho 352" d="M468.609,345.782l3.179,7.473a23.1,23.1,0,0,0-20.886,2.9,11.732,11.732,0,0,0-4.293,5,2.182,2.182,0,0,1-2.163-.848,4.338,4.338,0,0,1-.8-2.287c-.3-2.869.792-5.683,1.868-8.365a12.05,12.05,0,0,1,1.906-3.557,11.132,11.132,0,0,1,3.251-2.328,72.389,72.389,0,0,1,11.788-5.208c1.719-.557,3.52-.546,4.483,1.061C468.06,341.53,467.735,343.742,468.609,345.782Z" transform="translate(-318.417 -229.978)" fill="#e8c82a"/>
  <path id="Caminho_353" data-name="Caminho 353" d="M138.553,414.186c.8.635,1.494,1.386,2.313,1.991a16.522,16.522,0,0,0,2.75,1.543l3.684,1.771a20.639,20.639,0,0,0,3.568,1.45c1.577.422,3.232.463,4.816.856,2,.493,3.826,1.521,5.795,2.115s4.274.691,5.918-.546c1.027-.773,1.8-2.051,3.079-2.242a4.075,4.075,0,0,1,2.346.673l9.587,5.04a7.3,7.3,0,0,1,3.336,2.731c.676,1.3.22,3.265-1.2,3.6a13.141,13.141,0,0,1-1.494.086,1.171,1.171,0,0,0-1.1.848,1.7,1.7,0,0,0,.235.878,3.673,3.673,0,0,1,.056,3.124,2.234,2.234,0,0,1-2.712,1.121c.168,1.446-1.4,2.458-2.806,2.843-3.534.968-7.282.374-10.895-.239a14.937,14.937,0,0,1-4.155-1.121c-.62-.3-1.2-.691-1.823-.971a13.012,13.012,0,0,0-5.563-.631c-8.709.153-17.344-1.461-25.907-3.067a12.532,12.532,0,0,1-4.577-1.494c-2.615-1.7-3.587-5.2-3.157-8.294s2-5.9,3.542-8.616l2-3.523a4.536,4.536,0,0,1,1.076-1.42C130.2,410.447,136.035,412.161,138.553,414.186Z" transform="translate(-116.066 -275.962)" fill="#a1616a"/>
  <path id="Caminho_354" data-name="Caminho 354" d="M138.553,414.186c.8.635,1.494,1.386,2.313,1.991a16.522,16.522,0,0,0,2.75,1.543l3.684,1.771a20.639,20.639,0,0,0,3.568,1.45c1.577.422,3.232.463,4.816.856,2,.493,3.826,1.521,5.795,2.115s4.274.691,5.918-.546c1.027-.773,1.8-2.051,3.079-2.242a4.075,4.075,0,0,1,2.346.673l9.587,5.04a7.3,7.3,0,0,1,3.336,2.731c.676,1.3.22,3.265-1.2,3.6a13.141,13.141,0,0,1-1.494.086,1.171,1.171,0,0,0-1.1.848,1.7,1.7,0,0,0,.235.878,3.673,3.673,0,0,1,.056,3.124,2.234,2.234,0,0,1-2.712,1.121c.168,1.446-1.4,2.458-2.806,2.843-3.534.968-7.282.374-10.895-.239a14.937,14.937,0,0,1-4.155-1.121c-.62-.3-1.2-.691-1.823-.971a13.012,13.012,0,0,0-5.563-.631c-8.709.153-17.344-1.461-25.907-3.067a12.532,12.532,0,0,1-4.577-1.494c-2.615-1.7-3.587-5.2-3.157-8.294s2-5.9,3.542-8.616l2-3.523a4.536,4.536,0,0,1,1.076-1.42C130.2,410.447,136.035,412.161,138.553,414.186Z" transform="translate(-116.066 -275.962)" opacity="0.04"/>
  <path id="Caminho_355" data-name="Caminho 355" d="M347.365,433.593c-1.947.919-4.181,1.009-6.213,1.715a36.8,36.8,0,0,0-5.623,3.011c-4.857,2.712-10.461,3.736-15.965,4.711a46.572,46.572,0,0,1-10.088,1.054c-4.551-.194-8.922-1.711-13.331-2.854s-9.113-1.913-13.48-.628a15.173,15.173,0,0,0-9.9,9.5,21.882,21.882,0,0,0-.867,8.414c.919.676,2.2-.262,2.7-1.289s.773-2.287,1.745-2.884c1.685.572,2.1,2.817,3.486,3.927a6.294,6.294,0,0,0,3.127,1.035l5.679.807c1.367.194,2.955.325,3.945-.639.482-.467.747-1.121,1.188-1.621a4.406,4.406,0,0,1,3.759-1.039c4.2.418,8.138,3.142,12.307,2.5a23.332,23.332,0,0,0,4.136-1.315c8.1-2.862,17.108-1.121,25.541-2.761a57.005,57.005,0,0,0,9.374-2.9,18.958,18.958,0,0,0,4.764-2.361,10.028,10.028,0,0,0,3.871-8.9,10.17,10.17,0,0,0-3.591-6.591,12.708,12.708,0,0,0-2.309-1.984C350.119,431.845,348.643,432.992,347.365,433.593Z" transform="translate(-210.825 -288.912)" fill="#a1616a"/>
  <g id="Grupo_12" data-name="Grupo 12" transform="translate(80.517 56.734)" opacity="0.1">
    <path id="Caminho_356" data-name="Caminho 356" d="M369.161,240.577c-.624-.553-.777-1.394-1.315-2.006-1.121-1.3-3.385-1.121-5.231-.859-3.217.452-7.1.557-9.094-1.681-.863-.964-1.244-2.242-2.3-3.045-2.458-1.868-6.688.045-9.4-1.536-2.365-1.379-2.212-4.577-4.185-6.352s-5.391-1.543-8.07-.658a2.335,2.335,0,0,1-1.45.164c-.848-.3-.788-1.352-.579-2.13a45.551,45.551,0,0,1,4.043-11,23.109,23.109,0,0,0,2.036-3.826c.811-2.369.4-5.048,1.461-7.289a10.061,10.061,0,0,0-2.948,2.615c-1.592,2.373-.975,5.391-1.868,8.025a23.113,23.113,0,0,1-2.036,3.826,45.552,45.552,0,0,0-4.043,11c-.209.777-.269,1.831.579,2.13a2.335,2.335,0,0,0,1.45-.164c2.679-.885,6.083-1.14,8.07.658s1.82,4.984,4.185,6.352c2.709,1.58,6.938-.329,9.4,1.536,1.054.8,1.435,2.081,2.3,3.045,2.01,2.242,5.877,2.133,9.094,1.681,1.846-.262,4.11-.437,5.231.859.538.613.691,1.453,1.315,2.006,1.121,1,3.172.493,4.267-.534a11.331,11.331,0,0,0,1.786-2.443A2.779,2.779,0,0,1,369.161,240.577Z" transform="translate(-324.055 -200.36)"/>
    <path id="Caminho_357" data-name="Caminho 357" d="M461.879,291.312a10.612,10.612,0,0,0-.669.968A20.255,20.255,0,0,0,465.238,289a7.934,7.934,0,0,0,.747-1.076A19.623,19.623,0,0,0,461.879,291.312Z" transform="translate(-409.966 -255.206)"/>
  </g>
  <path id="Caminho_358" data-name="Caminho 358" d="M556.48,446.53,557.6,553.76l5.231-.747L561.711,446.53Z" transform="translate(-348.567 -279.704)" fill="#3f3d56"/>
  <path id="Caminho_359" data-name="Caminho 359" d="M640.48,498.53,641.6,605.76l5.231-.747L645.711,498.53Z" transform="translate(-401.183 -312.276)" fill="#3f3d56"/>
  <path id="Caminho_360" data-name="Caminho 360" d="M1000.814,601.175h0l-.022-2.059v-1.226l-.2-18.86-.31-29.486-.052-2.544H995l.026,2.451.164,15.793.071,6.837h0l.06,5.537.1,9.572.06,5.645h0v.6l.078,7.42.067,6.542.426-.471q1.027-1.147,2.01-2.331Z" transform="translate(-663.803 -360.753)" fill="#3f3d56"/>
  <path id="Caminho_361" data-name="Caminho 361" d="M619.969,545.03,616.98,549.5l2.989,20.359,25.406,6.953h41.1l24.659,1.491,11.747-8.04-2.032-13.809L711.88,545.03Z" transform="translate(-386.463 -341.403)" fill="#e8c82a"/>
  <path id="Caminho_362" data-name="Caminho 362" d="M722.5,605.48l-1.495,12.412s-7.846,24.334,55.3,22.843,52.307-6.456,52.307-6.456l-.374-14.4s2.2,6.815-29.89,5.892-62.021-3.9-62.021-3.9S725.119,623.851,722.5,605.48Z" transform="translate(-491.986 -397.384)" fill="#3f3d56"/>
  <path id="Caminho_363" data-name="Caminho 363" d="M840.981,304.939a18.053,18.053,0,0,0-8.156,8.336,53.811,53.811,0,0,0-3.867,11.209,99.789,99.789,0,0,0-2.694,12.24c-.986,7.368-.247,15.113,3.138,21.73s9.639,11.956,16.962,13.23a31.218,31.218,0,0,0,8.593.1,69.862,69.862,0,0,0,15.173-3.344c5.137-1.737,10.484-4.412,12.77-9.341,1.326-2.858,1.438-6.116,1.375-9.262a98.531,98.531,0,0,0-3.852-25.328,21.562,21.562,0,0,0-2.959-6.815,20.891,20.891,0,0,0-5.511-4.857C863.215,306.953,851.73,300.052,840.981,304.939Z" transform="translate(-557.857 -208.093)" fill="#fbbebe"/>
  <path id="Caminho_364" data-name="Caminho 364" d="M840.981,304.939a18.053,18.053,0,0,0-8.156,8.336,53.811,53.811,0,0,0-3.867,11.209,99.789,99.789,0,0,0-2.694,12.24c-.986,7.368-.247,15.113,3.138,21.73s9.639,11.956,16.962,13.23a31.218,31.218,0,0,0,8.593.1,69.862,69.862,0,0,0,15.173-3.344c5.137-1.737,10.484-4.412,12.77-9.341,1.326-2.858,1.438-6.116,1.375-9.262a98.531,98.531,0,0,0-3.852-25.328,21.562,21.562,0,0,0-2.959-6.815,20.891,20.891,0,0,0-5.511-4.857C863.215,306.953,851.73,300.052,840.981,304.939Z" transform="translate(-557.857 -208.093)" opacity="0.05"/>
  <path id="Caminho_365" data-name="Caminho 365" d="M800.354,379.644a16.958,16.958,0,0,0,3.736,3.736c3.557,2.458,8.123,2.791,12.442,2.925,3.467.1,7.443-.093,9.617-2.8a11.2,11.2,0,0,0,1.816-4.285,190.059,190.059,0,0,0,5.193-28.309l9.894.034c4.282,18.334,3.931,37.392,3.557,56.219l-.542,27.454-6.374-.676c-15.135-1.6-30.293-3.206-45.511-3.482a260.312,260.312,0,0,0-26.721.882l13.88-41.27c1.8-5.365,3.62-10.8,4.043-16.439.609-8.179-1.685-16.813,1.495-24.379a2.965,2.965,0,0,1,1.154-1.558,3.279,3.279,0,0,1,1.977-.153c1.255.168,5.092,0,6,.8,1.345,1.166.456,1.341-.019,3.221a39.3,39.3,0,0,0-1.64,9.979A29.475,29.475,0,0,0,800.354,379.644Z" transform="translate(-521.277 -235.77)" fill="#e8c82a"/>
  <path id="Caminho_366" data-name="Caminho 366" d="M969.375,450.693h0q2.5-3.318,4.711-6.871c-.747-1.6-1.569-3.161-2.223-4.794a48.173,48.173,0,0,1-2.145-7.79q-.292-1.345-.579-2.69c-2.092-9.755-4.057-19.649-4.465-29.539q-.056-1.233-.071-2.466v-3.071c.045-2.242.187-4.5.445-6.751.049-.441.1-.882.164-1.323a1.9,1.9,0,0,1,.037-.288l25.406-.927h0l2.137-.078a7.831,7.831,0,0,0,4.233-.968c2.036-1.4,2.275-4.263,2.242-6.725a99.819,99.819,0,0,0-2.107-18.513c-.964-4.581-2.339-9.262-5.425-12.782-2.533-2.892-6.2-5-7.521-8.593a38.807,38.807,0,0,0-1.248-4.084,12.722,12.722,0,0,0-2.675-3.2,44.585,44.585,0,0,1-8.556-11.851c-1.513-3.049-3.153-6.411-5.13-8.519-.1-.108-.194-.209-.3-.306-1.681-1.663-3.606-2.391-5.885-1.259a7.538,7.538,0,0,0-1.166.725h0a14.193,14.193,0,0,0-2.216,2.107,50.444,50.444,0,0,0-6.026,8.593,47.76,47.76,0,0,0-3.079,6.725,46.374,46.374,0,0,0-1.663,5.6c-.321,1.409-.576,2.832-.777,4.259a103.622,103.622,0,0,0-.643,16.268c.112,4.992.333,9.994.785,14.967q.168,1.8.374,3.605.411,3.561,1.016,7.1c.161.9.325,1.8.508,2.7.045.239.093.478.142.714l.023.1a60.692,60.692,0,0,1,1.147,6.318q.045.4.067.8a30.725,30.725,0,0,1-.03,3.665c-.086,1.442-.22,2.881-.288,4.323a7.036,7.036,0,0,1-.026.747c-.019.729,0,1.457,0,2.186a34.628,34.628,0,0,0,.62,5.19,33.574,33.574,0,0,0,3.232,9.131c.142.269.288.534.433.8,1.894,3.385,4.285,6.49,6.038,9.953a42.97,42.97,0,0,1,3.363,9.793q.374,1.678.71,3.363c.347,1.793.658,3.6.975,5.41.03.179.063.374.1.538.422,2.4.867,4.786,1.439,7.129.332,1.364.706,2.709,1.143,4.031Z" transform="translate(-632.364 -210.271)" fill="#464353"/>
  <path id="Caminho_367" data-name="Caminho 367" d="M881.068,582.623c0,.336-.022.673-.037,1.013a47.9,47.9,0,0,1-.452,4.9,31.872,31.872,0,0,1-1.618,6.5A21.907,21.907,0,0,1,877.033,599a18.272,18.272,0,0,1-2.4,3.09c-2.242,2.331-5.47,3.075-8.593,4.057a21.163,21.163,0,0,0-4.143,1.693c-.235.131-.467.273-.691.422l-3.908,2.589a11.691,11.691,0,0,0-3.3,2.828,6.083,6.083,0,0,0-.374.631,14.318,14.318,0,0,0-1.151,3.452c-2.033,8.466-4.069,16.94-5.462,25.533-.093.568-.183,1.14-.28,1.711l-.034.179a.952.952,0,0,0-.06-.123,224.868,224.868,0,0,1-31.048,15.868l-2.32-19.428a23.5,23.5,0,0,1-.239-4.775c.22-2.514,1.244-4.9,1.521-7.405a12.617,12.617,0,0,0-1.334-7.125,7.792,7.792,0,0,1-1.095-2.642,1.643,1.643,0,0,1,1.4-1.92,3.452,3.452,0,0,0,.587-3.082,8.95,8.95,0,0,0-.523-1.707c-.635-1.562-1.438-3.262-.893-4.857a1.815,1.815,0,0,0,.187-.934.15.15,0,0,0,0-.06c-.127-.418-.624-.6-.882-.956-.486-.661,0-1.562.3-2.324a8.865,8.865,0,0,0,.5-2.544c.041-.482.071-.968.123-1.446a14.543,14.543,0,0,1,.347-1.92,15.158,15.158,0,0,1,6.139-8.788c1.453-.979,3.071-1.693,4.554-2.615a41.737,41.737,0,0,0,4.342-3.363q4.935-4.11,10.263-7.749a129.651,129.651,0,0,1,11.851-7.2q1.308-.706,2.615-1.375,1.424-.747,2.866-1.416c3.079-1.468,6.572-.919,9.976.06,1.427.407,2.836.893,4.2,1.334a19.427,19.427,0,0,1,3.811,1.711,14.052,14.052,0,0,1,6.542,7.689.387.387,0,0,1,0,.064A19.566,19.566,0,0,1,881.068,582.623Z" transform="translate(-549.049 -371.65)" fill="#f86d70"/>
  <path id="Caminho_368" data-name="Caminho 368" d="M881.068,582.623c0,.336-.022.673-.037,1.013a47.9,47.9,0,0,1-.452,4.9,31.872,31.872,0,0,1-1.618,6.5A21.907,21.907,0,0,1,877.033,599a18.272,18.272,0,0,1-2.4,3.09c-2.242,2.331-5.47,3.075-8.593,4.057a21.163,21.163,0,0,0-4.143,1.693c-.235.131-.467.273-.691.422l-3.908,2.589a11.691,11.691,0,0,0-3.3,2.828,6.083,6.083,0,0,0-.374.631,14.318,14.318,0,0,0-1.151,3.452c-2.033,8.466-4.069,16.94-5.462,25.533-.093.568-.183,1.14-.28,1.711l-.034.179a.952.952,0,0,0-.06-.123,224.868,224.868,0,0,1-31.048,15.868l-2.32-19.428a23.5,23.5,0,0,1-.239-4.775c.22-2.514,1.244-4.9,1.521-7.405a12.617,12.617,0,0,0-1.334-7.125,7.792,7.792,0,0,1-1.095-2.642,1.643,1.643,0,0,1,1.4-1.92,3.452,3.452,0,0,0,.587-3.082,8.95,8.95,0,0,0-.523-1.707c-.635-1.562-1.438-3.262-.893-4.857a1.815,1.815,0,0,0,.187-.934.15.15,0,0,0,0-.06c-.127-.418-.624-.6-.882-.956-.486-.661,0-1.562.3-2.324a8.865,8.865,0,0,0,.5-2.544c.041-.482.071-.968.123-1.446a14.543,14.543,0,0,1,.347-1.92,15.158,15.158,0,0,1,6.139-8.788c1.453-.979,3.071-1.693,4.554-2.615a41.737,41.737,0,0,0,4.342-3.363q4.935-4.11,10.263-7.749a129.651,129.651,0,0,1,11.851-7.2q1.308-.706,2.615-1.375,1.424-.747,2.866-1.416c3.079-1.468,6.572-.919,9.976.06,1.427.407,2.836.893,4.2,1.334a19.427,19.427,0,0,1,3.811,1.711,14.052,14.052,0,0,1,6.542,7.689.387.387,0,0,1,0,.064A19.566,19.566,0,0,1,881.068,582.623Z" transform="translate(-549.049 -371.65)" opacity="0.1"/>
  <path id="Caminho_369" data-name="Caminho 369" d="M899.506,446.833a.7.7,0,1,0-1.263.613l-.374.183,11.141,22.836,2.014-.983-11.141-22.851Z" transform="translate(-602.963 -297.747)" fill="#3f3d56"/>
  <ellipse id="Elipse_18" data-name="Elipse 18" cx="23.912" cy="23.912" rx="23.912" ry="23.912" transform="translate(286.561 77.343)" fill="#fbbebe"/>
  <path id="Caminho_370" data-name="Caminho 370" d="M931.935,206.659a31.754,31.754,0,0,0-.844-5.638c-1.4-6.041-3.972-11.99-8.392-16.327a32.748,32.748,0,0,0-.975-3.135.609.609,0,0,0-.026-.075,35.082,35.082,0,0,0-5.642-10c-1.4-1.741-3.217-3.46-5.451-3.527a4.419,4.419,0,0,1-1.868-.2,3.363,3.363,0,0,1-1.042-1.069,9.785,9.785,0,0,0-9.475-3.546l-.232.049c-.131.026-.262.056-.374.09s-.314.09-.471.138q.258.426.5.863.665,1.184,1.233,2.421.471,1.031.87,2.1c-3.826.437-6.942,3.153-9.789,5.739l-6.7,6.083a.288.288,0,0,0-.034.034l-.194.187c-.049.049-.1.1-.142.149a.321.321,0,0,0-.049.052c-.056.06-.108.123-.161.187a2.825,2.825,0,0,0-.25.374,1.383,1.383,0,0,0-.1.176.379.379,0,0,0-.026.056,1.383,1.383,0,0,0-.064.157.053.053,0,0,0,0,.022.869.869,0,0,0-.026.093,1.12,1.12,0,0,0,.064.792l4.42.049h.519c.022.59.041,1.184.063,1.775a25.206,25.206,0,0,0-2.018,1.681,21.911,21.911,0,0,0-1.969,2.077,28.671,28.671,0,0,0-6.277,17.3v2.287c0,.374.034.747.064,1.121a2.8,2.8,0,0,0,.374,1.386,1.273,1.273,0,0,0,.1.135,2.578,2.578,0,0,0,.792.583l.321.157h0c.161.078.314.153.463.239,1.409.8,2.242,2.331,3.523,3.318.075.056.149.112.224.161l.168.112.1.067.142.082a3.045,3.045,0,0,0,.288.153h0l.179.09h.03c.149.067.3.131.452.187l.213.075.064.022c.06.019.123.041.187.056q.191.056.374.1l.374.082c.146.026.3.052.445.071l.221.03.224.022q.534.049,1.076.056h0a26.9,26.9,0,0,0,3.389-.235l9.535-1.121a20.545,20.545,0,0,1,6.5-.06,42.877,42.877,0,0,1,5.231,1.842c.4.138.792.265,1.192.374.146.041.3.086.445.123l.206.052.478.116c.172.041.344.082.516.116.243.052.482.1.725.142.164.034.333.06.5.09h.034l.478.075h.116l.355.049c.172.026.344.049.519.067q.572.071,1.143.123c.617.06,1.237.1,1.868.142l.62.037.62.03,1.868.082h.344a9.638,9.638,0,0,0,2.324-.12c.134-.026.265-.056.4-.093s.239-.075.374-.12a6.4,6.4,0,0,0,3.135-3.1c.149-.28.288-.56.415-.848s.243-.579.347-.871c.131-.374.243-.729.34-1.1.03-.1.056-.2.079-.306s.075-.31.1-.467c.093-.43.164-.863.217-1.3a3.985,3.985,0,0,1,.049-.418c.034-.374.06-.721.075-1.087v-.837C931.961,207.443,931.935,207.043,931.935,206.659Zm-9.58-22.305c-.3-.284-.613-.557-.927-.814a3.859,3.859,0,0,1,.923.814Z" transform="translate(-589.902 -120.207)" fill="#464353"/>
  <path id="Caminho_371" data-name="Caminho 371" d="M745.073,308.076c-2.813-.348-5.6-1.58-8.38-.975a11.614,11.614,0,0,0-4.622,2.563,56.2,56.2,0,0,0-12.991,14.852,7.845,7.845,0,0,0-1.2,2.81,7.448,7.448,0,0,0,.516,3.467c2.556,7.551,8.022,13.858,10.51,21.431,2.615,7.966,1.707,16.671-.22,24.831a103.772,103.772,0,0,1-11.523,28.657,16.339,16.339,0,0,1-2.653,3.632c-1.36,1.308-3.187,2.242-3.994,3.953a17.7,17.7,0,0,0-.747,2.4c-.747,2.242-2.555,4.162-2.731,6.527-.131,1.8.725,3.512,1.244,5.231a14.415,14.415,0,0,1-.265,9c-1.894,5.193-6.849,9.916-5.41,15.255,3.209-.923,6.766-2.122,8.28-5.1.534-1.054.8-2.309,1.7-3.079,1.8-1.528,4.857-.146,6.766-1.551,1.442-1.069,1.495-3.258.852-4.939s-1.748-3.161-2.242-4.891c-.859-3.12.516-6.419.262-9.643-.12-1.495-.579-2.925-.613-4.412a10.362,10.362,0,0,1,3.661-7.566,30.43,30.43,0,0,1,7.338-4.543l9.774-4.857c3.546-1.756,7.431-3.9,8.593-7.678a15.548,15.548,0,0,0,.467-4.4c.333-22.608,6-44.76,11.627-66.658a82.568,82.568,0,0,1,3.064-10.058c1.3-3.258,3.845-5.873,5.141-8.9C759.756,302.55,752.885,309.055,745.073,308.076Z" transform="translate(-480.493 -208.136)" fill="#464353"/>
  <path id="Caminho_372" data-name="Caminho 372" d="M828.092,600.616c.863,5.231,1.39,10.573,1.8,15.89a181.777,181.777,0,0,1-21.323,14.922c-.418.258-.841.512-1.263.747l-.034.179a.943.943,0,0,0-.06-.123,5.623,5.623,0,0,0-2.81-2.772q-4.136-8.687-8.264-17.373a45.636,45.636,0,0,1-3.736-9.658,1.5,1.5,0,0,0-.045-.217c-.568-2.615-.7-5.332-1.076-7.981a23.058,23.058,0,0,0-1.02-4.461c-.448-1.289-1.065-2.541-1.61-3.8a12.656,12.656,0,0,1-1.263-4.8,3.139,3.139,0,0,0-.228-1.569,4.067,4.067,0,0,0-1.02-.986,3.89,3.89,0,0,1-1.255-3.553c-2.242.116-3.5,2.526-4.4,4.569a24.917,24.917,0,0,1-3.2,5.6,10.628,10.628,0,0,1-3.542,2.948c-.123.06-.247.12-.374.172-3.12,1.375-6.763.889-10.144.269-2.955-.542-6.012-1.214-8.388-3.053l-.254-.2a10.981,10.981,0,0,1-1.868-2c-1.991-2.72-2.873-6.3-3.363-9.714-.045-.321-.09-.643-.131-.964a35.918,35.918,0,0,1-.28-7.278c.045-.6.108-1.2.187-1.79.052-.374.108-.777.172-1.166a.1.1,0,0,1,0-.034c.1-.617.2-1.237.306-1.868a17.17,17.17,0,0,1,1.868-6.116,11.582,11.582,0,0,1,2.75-2.944c.4-.318.818-.62,1.237-.912.68-.471,1.379-.919,2.089-1.341a36.107,36.107,0,0,1,5.6-2.727c.463-.179.934-.347,1.4-.508a11.026,11.026,0,0,1,5.709-.452,30.035,30.035,0,0,0,5.111.3c4.383-.086,8.784-.923,13.159-1.465,6.075-.747,12.6-.837,17.9,2.242.254.146.5.3.747.46a22.137,22.137,0,0,1,6.423,6.789c.374.564.7,1.143,1.02,1.73a44.056,44.056,0,0,1,2.006,4.147A5.156,5.156,0,0,1,817.19,562a2.9,2.9,0,0,1-.06.441c-.1.531-.3,1.046-.374,1.584-.235,2.036,1.495,3.736,2.141,5.675a27.825,27.825,0,0,1,.609,3.945,20.524,20.524,0,0,0,2.077,5.231,65.407,65.407,0,0,1,3.325,8.358c.65,1.991,1.207,4.013,1.7,6.053q.239.983.452,1.969C827.465,597.063,827.8,598.834,828.092,600.616Z" transform="translate(-509.632 -358.846)" fill="#f86d70"/>
  <path id="Caminho_373" data-name="Caminho 373" d="M705.3,464.579v2.615l-.482-.007-.538-.007-6.008-.075-14.8-.194-4.155-.052-1.076-.015L672,466.765l-8.788-.116-18.644-.243-32.352-.418-11.676-.149-4.685-.06-4.312-.056-2.686-.037-2.544-.034-18.864-.243-5.231-.067-1.14-.015-.74-1.909-5.377-13.865-.983-2.533.747-2.989,3.363,2.242,2.07.258,34.078,4.237,6.4.8,13.563,1.689,13.286,1.651,5.208.646,30.82,3.833,8.612,1.072,7.129.885,25.347,3.153Z" transform="translate(-347.001 -278.138)" fill="#3f3d56"/>
  <path id="Caminho_374" data-name="Caminho 374" d="M555.98,444.03l6.725,17.56,143.845,2.989V445.525Z" transform="translate(-348.254 -278.138)" fill="#504f60"/>
  <path id="Caminho_375" data-name="Caminho 375" d="M575.98,496.03,577.1,603.26l5.231-.747L581.211,496.03Z" transform="translate(-360.781 -310.71)" fill="#3f3d56"/>
  <path id="Caminho_376" data-name="Caminho 376" d="M1055.147,551.69h-.538a118.224,118.224,0,0,1-4.308,19.724l-1.7-19.8-.071-.844,6.284-.725.209-.022Z" transform="translate(-697.333 -362.645)" fill="#3f3d56"/>
  <path id="Caminho_377" data-name="Caminho 377" d="M782.716,460.129,727.98,461.25l-17-5.6,45.582-2.615Z" transform="translate(-445.342 -283.776)" fill="#fff"/>
  <path id="Caminho_378" data-name="Caminho 378" d="M822.63,458.38a3.67,3.67,0,0,0-1.495,1.065,3.947,3.947,0,0,0-.557,1.7l-.919,5.481a2.425,2.425,0,0,0,.071,1.521c.239.46.934.7,1.282.318a4.921,4.921,0,0,0,.672,3.09,2.155,2.155,0,0,0,2.813.725,1.823,1.823,0,0,0,2.746.426c-.531.179-.568.99-.191,1.4a2.439,2.439,0,0,0,1.524.609,37.284,37.284,0,0,0,19.391-2.44c.579-.239-.945-7.379-1.1-8.111-.374-1.722-.56-3.826-2.014-4.984-3.475-2.772-9.647-3.318-13.88-2.989A23.913,23.913,0,0,0,822.63,458.38Z" transform="translate(-553.917 -303.817)" fill="#fbbebe"/>
  <path id="Caminho_379" data-name="Caminho 379" d="M909,455.414c-13.514.258-27.308.478-40.206-3.568a27.276,27.276,0,0,1-.247,14.523l63.187,5.231c2.679.22,13.787,1.476,16.4.844s-21.913-8.709-20.923-11.209c2.724-6.886,11.848-10.921,5.276-11.179C924.194,449.728,917.36,455.257,909,455.414Z" transform="translate(-584.597 -300.021)" opacity="0.1"/>
  <path id="Caminho_380" data-name="Caminho 380" d="M910,457.414c-13.514.258-27.308.478-40.206-3.568a27.275,27.275,0,0,1-.247,14.523l63.187,5.231c2.679.22,13.787,1.495,16.4.844s2-3.852,2.989-6.352c2.724-6.886-12.064-15.778-18.636-16.036C925.194,451.728,918.36,457.257,910,457.414Z" transform="translate(-585.224 -301.274)" fill="#464353"/>
  <path id="Caminho_381" data-name="Caminho 381" d="M877.616,465.38a3.656,3.656,0,0,1,1.494,1.065,4,4,0,0,1,.56,1.7l.919,5.481a2.451,2.451,0,0,1-.071,1.521c-.239.46-.938.7-1.282.318a4.946,4.946,0,0,1-.672,3.09,2.159,2.159,0,0,1-2.817.725A1.823,1.823,0,0,1,873,479.7c.531.179.572.99.194,1.4a2.451,2.451,0,0,1-1.528.609,37.27,37.27,0,0,1-19.387-2.44c-.579-.239.942-7.379,1.1-8.111.374-1.722.56-3.826,2.014-4.984,3.471-2.772,9.647-3.318,13.88-2.989a23.912,23.912,0,0,1,8.343,2.193Z" transform="translate(-574.324 -308.202)" fill="#fbbebe"/>
  <path id="Caminho_382" data-name="Caminho 382" d="M673.738,387.387a23.92,23.92,0,0,0-3.284,5.1c-1.528,3.557-1.3,7.585-1.05,11.448a6.679,6.679,0,0,0,.747,3.194,5.4,5.4,0,0,0,1.95,1.663c3.235,1.838,7.024,2.387,10.723,2.8q8.5.942,17.052,1.147c14.13.344,28.478-.811,42.242,2.391-1.7-2.589-1.7-6.015-.747-8.967a30.532,30.532,0,0,1,4.584-8.052c-6.3-2-13.054,1.121-19.653.811-6.774-.318-13.043-4.233-19.824-4.229a18.037,18.037,0,0,1-4.357-.168,3.628,3.628,0,0,1-2.918-2.873c1.808.407,3.523-1.14,4.271-2.836s.882-3.613,1.607-5.32c1.8-4.248,6.68-6.217,9.714-9.714a2.38,2.38,0,0,0,.168-3.609c-2.522-3.363-6.322-5.231-9.479-7.846-1.1-.912-3.314-4.349-4.547-4.667-2.287-.587-4.226,2.716-5.713,4.327Q683.964,374.217,673.738,387.387Z" transform="translate(-459.742 -242.109)" fill="#464353"/>
  <path id="Caminho_383" data-name="Caminho 383" d="M882.39,434.81a12.365,12.365,0,0,1,2.5,2.477,4.267,4.267,0,0,1,.781,3.34,4.991,4.991,0,0,1,3.112-5.167Z" transform="translate(-593.266 -290.48)" opacity="0.07"/>
  <g id="Grupo_13" data-name="Grupo 13" transform="translate(287.064 42.932)" opacity="0.1">
    <path id="Caminho_384" data-name="Caminho 384" d="M933.478,166.839a32.459,32.459,0,0,0-1.517-3.419,9.172,9.172,0,0,0-1.091.28,31.6,31.6,0,0,1,1.73,3.3A6.263,6.263,0,0,1,933.478,166.839Z" transform="translate(-910.697 -163.42)"/>
    <path id="Caminho_385" data-name="Caminho 385" d="M995.87,212c.1.082.2.176.3.262a.518.518,0,0,0-.026-.071Q996.012,212.1,995.87,212Z" transform="translate(-951.411 -193.849)"/>
    <path id="Caminho_386" data-name="Caminho 386" d="M895.317,212.579c.194-.153.374-.314.583-.463l-.06-1.775-3.99-.041c-.646.594-1.334,1.446-.953,2.242Z" transform="translate(-885.59 -192.785)"/>
    <path id="Caminho_387" data-name="Caminho 387" d="M930.228,284.572a6.381,6.381,0,0,1-3.135,3.1,8.5,8.5,0,0,1-3.422.321c-3.938-.161-7.943-.336-11.665-1.64a41.187,41.187,0,0,0-5.231-1.846,20.437,20.437,0,0,0-6.5.064l-9.535,1.121c-2.813.329-5.948.575-8.193-1.151-1.285-.986-2.115-2.522-3.523-3.314a4.48,4.48,0,0,1-1.685-1.121,2.8,2.8,0,0,1-.374-1.386c-.03-.392-.048-.785-.063-1.177a31.6,31.6,0,0,0,.064,3.419,2.8,2.8,0,0,0,.374,1.386,4.478,4.478,0,0,0,1.685,1.121c1.409.792,2.242,2.328,3.523,3.314,2.242,1.726,5.38,1.494,8.193,1.151l9.535-1.121a20.438,20.438,0,0,1,6.5-.064,42.278,42.278,0,0,1,5.231,1.846c3.736,1.3,7.726,1.495,11.665,1.64a8.566,8.566,0,0,0,3.422-.321,6.381,6.381,0,0,0,3.135-3.1,15.858,15.858,0,0,0,1.614-8.388,14.594,14.594,0,0,1-1.614,6.146Z" transform="translate(-876.877 -234.902)"/>
  </g>
  <path id="Caminho_388" data-name="Caminho 388" d="M937.56,179l5.231,4.857S938.307,181.989,937.56,179Z" transform="translate(-627.823 -130.247)" opacity="0.1"/>
</svg>
