<svg id="img-educao-basica" xmlns="http://www.w3.org/2000/svg" xmlns:xlink="http://www.w3.org/1999/xlink" width="400.967" height="300" viewBox="0 0 400.967 300">
  <defs>
    <linearGradient id="linear-gradient" x1="0.5" y1="1" x2="0.5" gradientUnits="objectBoundingBox">
      <stop offset="0" stop-color="gray" stop-opacity="0.251"/>
      <stop offset="0.54" stop-color="gray" stop-opacity="0.122"/>
      <stop offset="1" stop-color="gray" stop-opacity="0.102"/>
    </linearGradient>
  </defs>
  <ellipse id="Elipse_1" data-name="Elipse 1" cx="127.489" cy="6.9" rx="127.489" ry="6.9" transform="translate(81.096 286.2)" fill="#e8c82a" opacity="0.1"/>
  <path id="Caminho_2" data-name="Caminho 2" d="M685.264,658.211l-1.1,1.608-6.78,10.087-5.756,1.736-4.294-4.2.208-2.774,1.071-14.4s-26.57-15.632-28.946-18.555-11.513-5.573-11.513-5.573-13.979-6.487-19.187-17.817,8.68-13.066,8.68-13.066l52.172,49.895Z" transform="translate(-404.465 -392.164)" fill="#ffc1c7"/>
  <path id="Caminho_3" data-name="Caminho 3" d="M770.164,774.941l-16.538,15.441s-9.5,1.827-18,.548c-5.431-.819-4.386-3.8-2.957-5.848l.026-.036a6.008,6.008,0,0,1,3.523-2.317c7.032-1.7,9.458-6.787,9.458-6.787l5.117,4.386L759.657,770l6.553,3.077Z" transform="translate(-482.969 -503.046)" fill="#575988"/>
  <line id="Linha_2" data-name="Linha 2" y1="14.374" x2="16.512" transform="translate(266.729 270.217)" fill="#fff"/>
  <path id="Caminho_4" data-name="Caminho 4" d="M687.706,662.214l-3.892-1.827.366-.556,1.1-1.608-15.452-13.066L617.651,595.27s-13.888,1.729-8.68,13.058,19.188,17.817,19.188,17.817,9.137,2.65,11.513,5.574,28.964,18.548,28.964,18.548l-1.071,14.4-.051.687-.34-.289s-2.427,5.091-9.459,6.787a6.009,6.009,0,0,0-3.523,2.317l-.026.037c-1.462,2.047-2.474,5.025,2.957,5.848,8.5,1.279,18-.548,18-.548l16.538-15.441Z" transform="translate(-404.465 -392.176)" opacity="0.1"/>
  <path id="Caminho_5" data-name="Caminho 5" d="M63.3,469.55c6.345,27.118,19.776,50.56,41,61.93,44.117,23.617,143.6,11.436,217.85-2.558a170.005,170.005,0,0,0,96.683-55.271Z" transform="translate(-58.966 -312.404)" fill="#e8c82a" opacity="0.1"/>
  <path id="Caminho_6" data-name="Caminho 6" d="M470.466,69.074h-40.74a3.523,3.523,0,0,1,0-7.043h7.043a3.52,3.52,0,0,1,0-7.039H431.74a3.523,3.523,0,0,1,0-7.043H453a56.26,56.26,0,0,0-16.589-4.572c-57.979-7.445-78.68-2.522-85.982,2.558A81.2,81.2,0,0,1,320.631,59c-35.773,7.379-102.673,16.256-163.31-2.843-30.137-9.5-52.534,6.549-65.961,33.361H477.538a62.924,62.924,0,0,0-4.784-21.285,3.512,3.512,0,0,1-2.288.844Z" transform="translate(-76.77 -39.575)" fill="#e8c82a" opacity="0.1"/>
  <path id="Caminho_7" data-name="Caminho 7" d="M52.317,314.67A179.511,179.511,0,0,0,53.9,361.985l357.685,13.08a167.958,167.958,0,0,0,24.853-37.9Zm141.469,33.744h-7.043a3.523,3.523,0,1,1,0,7.043H146a3.523,3.523,0,0,1,0-7.043h7.043a3.52,3.52,0,1,1,0-7.039h-5.029a3.523,3.523,0,0,1,0-7.043h40.74a3.523,3.523,0,0,1,0,7.043h5.029a3.52,3.52,0,0,1,0,7.039Z" transform="translate(-51.44 -214.129)" fill="#e8c82a" opacity="0.1"/>
  <path id="Caminho_8" data-name="Caminho 8" d="M453.85,176.86l-390.5,9.5A155.735,155.735,0,0,0,54,226.685H447.008a167.048,167.048,0,0,0,5.676-25.7A121.789,121.789,0,0,0,453.85,176.86ZM133.279,207.977h-7.043a3.523,3.523,0,1,1,0,7.043H85.5a3.523,3.523,0,0,1,0-7.043H92.54a3.52,3.52,0,1,1,0-7.039H87.511a3.523,3.523,0,0,1,0-7.043h40.74a3.523,3.523,0,0,1,0,7.043h5.029a3.52,3.52,0,0,1,0,7.039Z" transform="translate(-53.065 -126.685)" fill="#e8c82a" opacity="0.1"/>
  <g id="Grupo_7" data-name="Grupo 7" transform="translate(288.938 99.656)" opacity="0.1">
    <path id="Caminho_9" data-name="Caminho 9" d="M848.76,420.353s10.306-25.4,29.552-34.823a41.514,41.514,0,0,0,18.848-18.3,69.861,69.861,0,0,0,4.726-11.867" transform="translate(-846.296 -339.604)" fill="none" stroke="#535461" stroke-miterlimit="10" stroke-width="2"/>
    <path id="Caminho_10" data-name="Caminho 10" d="M1005.7,322c-2.006,2.522-12.39,6.213-12.39,6.213s1.25-10.946,3.256-13.468a5.848,5.848,0,1,1,9.137,7.266Z" transform="translate(-938.016 -312.249)" fill="#e8c82a"/>
    <path id="Caminho_11" data-name="Caminho 11" d="M993.551,373.6c-3.055,1.027-13.771-1.528-13.771-1.528s7-8.508,10.054-9.535a5.848,5.848,0,1,1,3.717,11.063Z" transform="translate(-929.431 -343.883)" fill="#e8c82a"/>
    <path id="Caminho_12" data-name="Caminho 12" d="M945.3,438.207c-3.154-.658-11.118-8.271-11.118-8.271s10.339-3.812,13.493-3.158a5.848,5.848,0,0,1-2.376,11.428Z" transform="translate(-900.497 -384.873)" fill="#e8c82a"/>
    <path id="Caminho_13" data-name="Caminho 13" d="M892.147,477.8c-3.22-.11-12.357-6.272-12.357-6.272s9.546-5.5,12.766-5.391a5.848,5.848,0,1,1-.409,11.662Z" transform="translate(-865.985 -409.891)" fill="#e8c82a"/>
    <path id="Caminho_14" data-name="Caminho 14" d="M952.46,359.079c.409,3.2,7.39,11.721,7.39,11.721s4.6-10.014,4.185-13.208a5.848,5.848,0,0,0-11.575,1.487Z" transform="translate(-912.089 -338.023)" fill="#e8c82a"/>
    <path id="Caminho_15" data-name="Caminho 15" d="M892.748,403.469c1.349,2.924,10.562,8.972,10.562,8.972s1.385-10.928.036-13.855a5.848,5.848,0,0,0-10.6,4.883Z" transform="translate(-873.962 -365.094)" fill="#e8c82a"/>
    <path id="Caminho_16" data-name="Caminho 16" d="M842.135,459.016c.837,3.114,8.892,10.628,8.892,10.628s3.216-10.537,2.383-13.651a5.848,5.848,0,0,0-11.275,3.023Z" transform="translate(-842.018 -400.927)" fill="#e8c82a"/>
    <path id="Caminho_17" data-name="Caminho 17" d="M1005.7,322c-2.006,2.522-12.39,6.213-12.39,6.213s1.25-10.946,3.256-13.468a5.848,5.848,0,1,1,9.137,7.266Z" transform="translate(-938.016 -312.249)" opacity="0.25"/>
    <path id="Caminho_18" data-name="Caminho 18" d="M993.551,373.6c-3.055,1.027-13.771-1.528-13.771-1.528s7-8.508,10.054-9.535a5.848,5.848,0,1,1,3.717,11.063Z" transform="translate(-929.431 -343.883)" opacity="0.25"/>
    <path id="Caminho_19" data-name="Caminho 19" d="M945.3,438.207c-3.154-.658-11.118-8.271-11.118-8.271s10.339-3.812,13.493-3.158a5.848,5.848,0,0,1-2.376,11.428Z" transform="translate(-900.497 -384.873)" opacity="0.25"/>
    <path id="Caminho_20" data-name="Caminho 20" d="M892.147,477.8c-3.22-.11-12.357-6.272-12.357-6.272s9.546-5.5,12.766-5.391a5.848,5.848,0,1,1-.409,11.662Z" transform="translate(-865.985 -409.891)" opacity="0.25"/>
    <path id="Caminho_21" data-name="Caminho 21" d="M952.46,359.079c.409,3.2,7.39,11.721,7.39,11.721s4.6-10.014,4.185-13.208a5.848,5.848,0,0,0-11.575,1.487Z" transform="translate(-912.089 -338.023)" opacity="0.25"/>
    <path id="Caminho_22" data-name="Caminho 22" d="M892.748,403.469c1.349,2.924,10.562,8.972,10.562,8.972s1.385-10.928.036-13.855a5.848,5.848,0,0,0-10.6,4.883Z" transform="translate(-873.962 -365.094)" opacity="0.25"/>
    <path id="Caminho_23" data-name="Caminho 23" d="M842.135,459.016c.837,3.114,8.892,10.628,8.892,10.628s3.216-10.537,2.383-13.651a5.848,5.848,0,0,0-11.275,3.023Z" transform="translate(-842.018 -400.927)" opacity="0.25"/>
  </g>
  <g id="Grupo_8" data-name="Grupo 8" transform="translate(264.469 43.74)" opacity="0.1">
    <path id="Caminho_24" data-name="Caminho 24" d="M803.86,284.943s1.3-27.382,16.333-42.655a41.532,41.532,0,0,0,11.714-23.515A69.916,69.916,0,0,0,832.418,206" transform="translate(-793.337 -188.915)" fill="none" stroke="#535461" stroke-miterlimit="10" stroke-width="2"/>
    <path id="Caminho_25" data-name="Caminho 25" d="M888.19,166.653c-1.056,3.048-9.63,9.963-9.63,9.963s-2.449-10.741-1.4-13.786a5.848,5.848,0,0,1,11.026,3.823Z" transform="translate(-839.683 -159.253)" fill="#e8c82a"/>
    <path id="Caminho_26" data-name="Caminho 26" d="M893.281,216.56c-2.558,1.981-13.5,3.128-13.5,3.128s3.783-10.35,6.323-12.331a5.848,5.848,0,0,1,7.178,9.2Z" transform="translate(-841.51 -189.132)" fill="#e8c82a"/>
    <path id="Caminho_27" data-name="Caminho 27" d="M865.3,292.673c-3.194.428-13.234-4.115-13.234-4.115s8.49-7.024,11.7-7.452a5.848,5.848,0,0,1,1.55,11.567Z" transform="translate(-823.928 -236.563)" fill="#e8c82a"/>
    <path id="Caminho_28" data-name="Caminho 28" d="M829.535,347.267c-3.074.965-13.735-1.827-13.735-1.827s7.178-8.355,10.255-9.316a5.848,5.848,0,1,1,3.479,11.136Z" transform="translate(-800.913 -271.227)" fill="#e8c82a"/>
    <path id="Caminho_29" data-name="Caminho 29" d="M846.746,219.371c1.462,2.88,10.862,8.607,10.862,8.607s1.012-10.964-.435-13.848a5.848,5.848,0,0,0-10.427,5.241Z" transform="translate(-820.256 -192.243)" fill="#e8c82a"/>
    <path id="Caminho_30" data-name="Caminho 30" d="M805.116,281.033c2.244,2.313,12.938,4.963,12.938,4.963s-2.313-10.774-4.557-13.088a5.848,5.848,0,0,0-8.38,8.125Z" transform="translate(-793.245 -230.404)" fill="#e8c82a"/>
    <path id="Caminho_31" data-name="Caminho 31" d="M775.866,350.312c1.827,2.661,11.915,7.079,11.915,7.079s-.464-11.008-2.281-13.669a5.848,5.848,0,0,0-9.634,6.579Z" transform="translate(-775.068 -274.897)" fill="#e8c82a"/>
  </g>
  <path id="Caminho_32" data-name="Caminho 32" d="M468.987,125.051s-8.709-.523-7.675,5.581a1.487,1.487,0,0,0,.775,1.568s0-.453.892-.3a3.892,3.892,0,0,0,.947.048,1.977,1.977,0,0,0,1.159-.479h0s2.449-1.012,3.4-5.014c0,0,.705-.873.676-1.1l-1.462.629a2.638,2.638,0,0,1,.106,1.941s-.048-1.9-.329-1.86c-.058,0-.764.365-.764.365a4.338,4.338,0,0,1,.212,3.191s.249-2.277-.482-3.055l-1.034.6a4.575,4.575,0,0,1,.325,3.465s.175-2.387-.541-3.319l-.939.731s.95,1.882.365,3.172c0,0-.073-2.781-.574-2.99a5.721,5.721,0,0,0-.943,1.02s.647,1.367.245,2.087c0,0-.245-1.853-.45-1.86a6.14,6.14,0,0,0-.9,2.069,4.466,4.466,0,0,1,.705-2.193,2.474,2.474,0,0,0-1.254.647s.128-.866,1.462-.943a5.688,5.688,0,0,1,.855-.987,5.292,5.292,0,0,0-2.116.245,2.377,2.377,0,0,1,2.357-.45l.928-.753a7.714,7.714,0,0,0-2.474.022,2.978,2.978,0,0,1,2.723-.194l1.009-.6a9.045,9.045,0,0,0-2.365-.2,3.642,3.642,0,0,1,2.661.04l.731-.322s-1.1-.212-1.4-.249-.333-.121-.333-.121a3.757,3.757,0,0,1,2.036.227A8.522,8.522,0,0,0,468.987,125.051Z" transform="translate(-311.459 -93.804)" fill="#e8c82a" opacity="0.1"/>
  <path id="Caminho_33" data-name="Caminho 33" d="M418.63,206.219s-2.975,8.2,3.169,8.954a1.491,1.491,0,0,0,1.725-.3s-.431-.143-.033-.939a3.91,3.91,0,0,0,.3-.9,1.977,1.977,0,0,0-.128-1.246h0s-.274-2.635-3.841-4.682c0,0-.64-.925-.863-.961l.186,1.586a2.645,2.645,0,0,1,1.893.45s-1.827-.493-1.879-.212c0,.058.135.837.135.837a4.358,4.358,0,0,1,3.121.7s-2.112-.881-3.066-.406l.285,1.166a4.56,4.56,0,0,1,3.414.672s-2.24-.848-3.337-.424l.435,1.1s2.072-.365,3.147.545c0,0-2.686-.731-3.03-.3a5.64,5.64,0,0,0,.713,1.2s1.491-.234,2.069.365c0,0-1.846-.289-1.911-.1a6.264,6.264,0,0,0,1.725,1.462,4.448,4.448,0,0,1-1.893-1.294,2.464,2.464,0,0,0,.267,1.367s-.793-.365-.49-1.659a5.886,5.886,0,0,1-.705-1.1,5.389,5.389,0,0,0-.365,2.1,2.381,2.381,0,0,1,.241-2.39l-.46-1.1a7.4,7.4,0,0,0-.68,2.376,3.005,3.005,0,0,1,.585-2.664l-.292-1.137a9.2,9.2,0,0,0-.866,2.193,3.625,3.625,0,0,1,.8-2.536l-.106-.786s-.512.979-.636,1.276-.212.285-.212.285a3.783,3.783,0,0,1,.8-1.89A8.847,8.847,0,0,0,418.63,206.219Z" transform="translate(-283.974 -145.271)" fill="#e8c82a" opacity="0.1"/>
  <path id="Caminho_34" data-name="Caminho 34" d="M576.667,187.3s-2.979,8.2,3.169,8.951a1.488,1.488,0,0,0,1.721-.3s-.428-.143-.033-.943a3.934,3.934,0,0,0,.314-.9,1.941,1.941,0,0,0-.132-1.243h0s-.274-2.635-3.841-4.685c0,0-.636-.925-.859-.961l.183,1.59a2.632,2.632,0,0,1,1.893.446s-1.827-.493-1.875-.208c0,.055.135.837.135.837a4.327,4.327,0,0,1,3.118.7s-2.109-.884-3.066-.406l.285,1.162a4.57,4.57,0,0,1,3.417.672s-2.24-.848-3.337-.42l.435,1.1s2.072-.365,3.147.545c0,0-2.686-.731-3.03-.3a5.752,5.752,0,0,0,.709,1.2s1.495-.234,2.072.365c0,0-1.849-.289-1.911-.1a6.264,6.264,0,0,0,1.725,1.462,4.474,4.474,0,0,1-1.9-1.3,2.457,2.457,0,0,0,.267,1.385s-.8-.365-.493-1.663a5.77,5.77,0,0,1-.7-1.1,5.3,5.3,0,0,0-.366,2.1,2.379,2.379,0,0,1,.245-2.39l-.464-1.1a7.324,7.324,0,0,0-.676,2.379,3.013,3.013,0,0,1,.585-2.668l-.292-1.137a9.111,9.111,0,0,0-.866,2.193,3.611,3.611,0,0,1,.793-2.536l-.106-.782s-.512.979-.632,1.272-.212.289-.212.289a3.743,3.743,0,0,1,.8-1.89A9.237,9.237,0,0,0,576.667,187.3Z" transform="translate(-384.251 -133.265)" fill="#e8c82a" opacity="0.1"/>
  <path id="Caminho_35" data-name="Caminho 35" d="M318.437,159.189s-2.979,8.2,3.169,8.951a1.48,1.48,0,0,0,1.721-.3s-.428-.143-.033-.939a4.118,4.118,0,0,0,.314-.9,1.977,1.977,0,0,0-.132-1.246h0s-.274-2.635-3.841-4.685c0,0-.636-.921-.859-.958l.183,1.586a2.645,2.645,0,0,1,1.893.45s-1.827-.5-1.875-.212c0,.058.135.837.135.837a4.347,4.347,0,0,1,3.118.7s-2.112-.884-3.066-.406l.285,1.166a4.56,4.56,0,0,1,3.414.673s-2.237-.848-3.333-.424l.435,1.1s2.072-.365,3.147.545c0,0-2.69-.731-3.03-.3a5.757,5.757,0,0,0,.709,1.2s1.495-.238,2.069.365c0,0-1.846-.289-1.911-.1a6.367,6.367,0,0,0,1.729,1.462,4.437,4.437,0,0,1-1.9-1.3,2.456,2.456,0,0,0,.267,1.385s-.8-.365-.493-1.659a5.708,5.708,0,0,1-.7-1.1,5.317,5.317,0,0,0-.365,2.1,2.381,2.381,0,0,1,.241-2.39l-.46-1.1a7.428,7.428,0,0,0-.68,2.379,3.005,3.005,0,0,1,.585-2.664l-.289-1.14a9.11,9.11,0,0,0-.866,2.193,3.611,3.611,0,0,1,.793-2.536l-.106-.782s-.512.979-.632,1.276-.212.285-.212.285a3.757,3.757,0,0,1,.793-1.89A8.185,8.185,0,0,0,318.437,159.189Z" transform="translate(-220.398 -115.429)" fill="#e8c82a" opacity="0.1"/>
  <path id="Caminho_36" data-name="Caminho 36" d="M570.05,311.112s2.3,8.406,7.752,5.482a1.487,1.487,0,0,0,1.235-1.235s-.431.128-.57-.753a3.944,3.944,0,0,0-.26-.91,1.984,1.984,0,0,0-.822-.943h0s-1.743-1.992-5.848-1.612c0,0-1.053-.387-1.257-.289l1.067,1.191a2.656,2.656,0,0,1,1.8-.731s-1.787.654-1.652.906c.026.051.592.607.592.607a4.32,4.32,0,0,1,2.953-1.224s-2.233.5-2.741,1.436l.906.789a4.565,4.565,0,0,1,3.176-1.422s-2.317.6-2.968,1.579l.994.654s1.462-1.5,2.884-1.371c0,0-2.606.965-2.646,1.5a5.764,5.764,0,0,0,1.272.57s1.1-1.053,1.893-.9c0,0-1.674.826-1.615,1.023a6.491,6.491,0,0,0,2.248.19,4.441,4.441,0,0,1-2.3.033,2.463,2.463,0,0,0,1.012.979s-.862.157-1.359-1.075a5.7,5.7,0,0,1-1.21-.493,5.33,5.33,0,0,0,.914,1.926,2.374,2.374,0,0,1-1.18-2.091l-1.005-.625a7.6,7.6,0,0,0,.815,2.335,3.007,3.007,0,0,1-1.06-2.514l-.9-.76a9.23,9.23,0,0,0,.566,2.3,3.648,3.648,0,0,1-.811-2.533l-.541-.577s.146,1.1.219,1.407,0,.366,0,.366a3.762,3.762,0,0,1-.442-2A9.02,9.02,0,0,0,570.05,311.112Z" transform="translate(-380.51 -211.696)" fill="#e8c82a" opacity="0.1"/>
  <path id="Caminho_37" data-name="Caminho 37" d="M449.548,273.56a20.006,20.006,0,0,0,2.628,2.529l7.119,6.067a12.514,12.514,0,0,0,4.166,2.7,6.52,6.52,0,0,0,5.687-.874l-.121-.04.121-.08a10.737,10.737,0,0,1-3.424-1.568,3.849,3.849,0,0,1-1.506-2.558h0v-.15a2.681,2.681,0,0,1,.04-.413,9.06,9.06,0,0,0,4.287-1.509l-.124-.044.124-.077c-3.794-1.217-6.421-4.777-7.613-8.545s-1.2-7.781-1.323-11.725-.42-8-2.123-11.564a18.985,18.985,0,0,1-1.773-4.057,6.313,6.313,0,0,1-.121-1.3,17.422,17.422,0,0,1,.811-4.2,87.442,87.442,0,0,0,2-9.323,21.87,21.87,0,0,0,.325-3.381,8.688,8.688,0,0,0-.523-3.249c-1.674-4.349-7.492-6.4-8.38-10.964a9.6,9.6,0,0,1-.132-1.86v-1.023c0-.34,0-.731-.029-1.067-.252-3.213-2.24-6-4.159-8.607-2.31-3.136-4.751-6.4-8.3-8.066a19.74,19.74,0,0,0-9.725-1.444,25.3,25.3,0,0,0-4.817-3.271c-2.511-1.4-5.117-2.77-7.9-3.077-3.527-.387-7.013.965-10.551,1.191-4.81.311-9.532-1.462-14.341-1.827s-10.347,1.254-12.5,6.1a11.626,11.626,0,0,0-.906,3.7h0c-.022.245-.037.486-.048.731v.026a23.006,23.006,0,0,0,.084,2.964v.113a5.407,5.407,0,0,0,.058.592.551.551,0,0,0,.018.172,4.658,4.658,0,0,0,.062.548l.022.172c.029.23.062.46.091.691a7.356,7.356,0,0,0,.3,1.4,2.626,2.626,0,0,0,.387.731,3.091,3.091,0,0,0,2.12.987l.64.091c-.066.132-.135.263-.2.4a22.721,22.721,0,0,0-2.193,9.784,23.126,23.126,0,0,0,19.633,22.762l.669.833c4.1,5.139,9.247,12,11.7,16.936-2.829,3.512-6.14,9.74-7.083,20.185l-1.4,3.267c-2.935,4.221-3.691,10.31-2.935,15.975-.826,3.063-1.769,6.911-2.423,10.094-4.865-1.078-21.468-3.746-25.393-6.337l-11.513-5.424S344.09,277.2,336.027,280.7a64.679,64.679,0,0,0-9.733-9.25c-3.436-2.577-11.98-12.642-11.98-12.642l-13.387-17.769c-.037-2.058-.256-3.816-.819-4.572-1.579-2.112-9.937-6.8-11.608-5.789s-3.066-2.193-3.066-2.193l-.128-.069c-.314-.183-1.206-.687-2.445-1.352a32.484,32.484,0,0,1,.11-4.448c.026-.249.058-.5.1-.731a20.375,20.375,0,0,0,19.063-15.547c.058-.23.1-.468.146-.7a3.593,3.593,0,0,0,3.373-.979c1.17-1.257,1.221-3.191.848-4.857a45.435,45.435,0,0,1-1.279-4.967c-.23-2.321.588-4.751-.164-6.944a7.718,7.718,0,0,0-4.075-4.119c-1.776-.888-3.721-1.407-5.537-2.215-1.732-.767-3.344-1.8-5.142-2.4a21.236,21.236,0,0,0-7.31-.757,18.46,18.46,0,0,0-4.788-1.407,6.818,6.818,0,0,0-5.23,1.363c-1.1.972-1.988,2.533-3.476,2.584a4.489,4.489,0,0,1-2.039-.647c-1.846-.884-4.181-1.385-5.848-.212-1.338.936-1.827,2.657-2.058,4.261a13.853,13.853,0,0,1-1.045,4.726,20.511,20.511,0,0,1-1.809,2.409,10.35,10.35,0,0,0-2.021,7.112v.073c-.088-.365-.172-.705-.234-1.064a5.973,5.973,0,0,0,.037.808,20.8,20.8,0,0,0,.815,3.695l1.513,5.3a31.136,31.136,0,0,0,3.015,7.814,12.87,12.87,0,0,0,2.05,2.577,9.47,9.47,0,0,0,4.594,2.664,5.888,5.888,0,0,0,1.879.113,1.213,1.213,0,0,1-.033.227c-.135-.026-.274-.055-.4-.073a3.9,3.9,0,0,0-1.795.048c-2.887,1.027-3.764,4.152-4.02,5.38-.058.314-.077.5-.077.5s.047.183.1.493l-.026.106c-.058.311-.077.5-.077.5s.047.183.1.5l-.753.018-12.591,1.645a28.815,28.815,0,0,0-7.079.106,2.925,2.925,0,0,0-.365.106c-1.827.632-10.2,6.41-17.715,11.728a2.746,2.746,0,0,0-.022-.428l-2.138,1.52v.442c-.534.365-1.064.753-1.575,1.122-2.3,1.645-4.386,3.128-5.939,4.265-1.893,1.36-3.066,2.218-3.066,2.218a2.218,2.218,0,0,0-1.155,1.3c-.592,1.371-.8,4.126,1.341,9.55a74.805,74.805,0,0,1,4.642,16.18,11.628,11.628,0,0,0-3.015.731,5.457,5.457,0,0,0-3.271,2.924,5.033,5.033,0,0,0-.026,3.253c1.762,6.25,30.923,41.737,30.923,41.737l.365.033a25.618,25.618,0,0,0,4.5,0,5.118,5.118,0,0,0,3.223-1.155s6.465,8.3,15.96,2.646c-.066,7.529-.256,13.051.939,15.832,1.86,4.32,1.86,14.155,1.86,14.155l1.769.062c-.1.365-.2.731-.314,1.1-.815,2.694-2.017,5.95-3.289,6.728-2.142,1.316-1.126,23.931-1.038,25.883h0v.117l-.124,9.137v.731a8.851,8.851,0,0,1-.713-1.126s-3.443,3.289-3.5,10.233a66.638,66.638,0,0,0,.062,7.178s13.888-.537,16.494.42,24.4-.833,24.4-.833a3.2,3.2,0,0,0-1.517-3.71c3.706-.267,7.748-.976,10.116-2.694,5.208-3.761-10.507-6.692-11.6-7.288s-6.527-5.387-8.771-7.182a4.561,4.561,0,0,0-2.317-.862l.281-8.19c3.344-3.768,6.966-24.545,6.966-24.545,1.184-.987,1.7-3.388,1.911-4.854a2.226,2.226,0,0,0,1.524-2.043h0c3.827.128,8.64.1,9.565-.819,1.579-1.564,1.392-6.9,1.392-6.9l-2.229-56.444-.146-.216a28.144,28.144,0,0,0,.022-7.792c5.007,1.429,8.9,2.4,8.9,2.4s7.536,1.389,12.825,2.558a8.643,8.643,0,0,0-1.915,3.216c-4.751,13.523,22.2,12.963,22.2,12.963l12.722,5.884,29.947,9.788c-9.623-2.84-20.617-6.18-28.1-8.472a19.656,19.656,0,0,0-2.244-.545,19.082,19.082,0,0,0-18.365,6.772c-.051.069-.1.132-.154.2a8.041,8.041,0,0,0-.19,9.543c1.144,1.619,2.675,3.772,4.47,6.275-3.8,1.148-10.08,4.346-6.261,12.569,5.292,11.4,19.5,17.908,19.5,17.908s9.287,2.668,11.7,5.61c.676.826,3.289,2.657,6.707,4.865,2.193,2.321,3.911,3.838,4.93,4.174,4.071,1.341,12,7.777,17.576,12.605l-.837,11.534-.055.694-.344-.292s-2.467,5.117-9.616,6.831a6.122,6.122,0,0,0-3.578,2.332l-.026.033-.212.307-.161-.121c-1.462,2.058-2.142,5.055,3.377,5.881,8.636,1.286,18.274-.552,18.274-.552l8.611-7.96a8.458,8.458,0,0,0,3.289,1.707c6.436,1.462,24.513,8.457,24.513,8.457,0-1.963,15.975-27.21,15.975-27.21,21.563-40.816-1.886-71.319-4.477-74.5l-.23-.278-.2-3.392-.044-.778s11.637-5.146,7.178-7.595-6.944-14.221-11.143-19.122c-3.289-3.823-3.1-12.7-3.446-20.258a12.173,12.173,0,0,0,2.365,5.117c.026.033.055.058.08.091l-.311-.27A3.773,3.773,0,0,0,449.548,273.56ZM306.16,270.424a51.488,51.488,0,0,0,5.848,4.981c-2.076-1.012-3.691-1.868-4.938-2.558C306.778,272.036,306.471,271.225,306.16,270.424Zm-44.329-38.247a6.041,6.041,0,0,1-1.882,2.745l-.731-3.154C260.176,231.921,261.068,232.064,261.832,232.177Zm146.074,86.658c.289-.621.588-1.232.892-1.827a6.853,6.853,0,0,0,3.249-2.259,46.391,46.391,0,0,1,1.411,6.747v.164a10.292,10.292,0,0,1-.413,2.715c-.336,1.067-.95,2.072-2.065,2.193a40.782,40.782,0,0,1-6.166-1.436c-.99-.27-2.08-.574-3.242-.9C403.4,324.109,405.932,323.082,407.906,318.835Zm28.6-77.116a6.027,6.027,0,0,0-3.852-2.211c-.318-.212-.811-.548-1.44-1.005-3.07-2.248-9.2-7.31-12.01-13.775a15.48,15.48,0,0,0,2.288-.837,16.547,16.547,0,0,0,3.231-1.955c.336-.263.665-.537.979-.822a17.06,17.06,0,0,0,2.193-2.394c.259-.365.512-.713.731-1.1a16.862,16.862,0,0,0,.972-1.747,21.776,21.776,0,0,0,1.531-4.386c.143-.607.267-1.224.365-1.846s.194-1.246.263-1.875a52.952,52.952,0,0,0,.259-6.677v-.439h0a32.665,32.665,0,0,0-.731-6.721c.165.062.329.124.486.2a4.921,4.921,0,0,1,.753.457c-.058-.084-.124-.168-.186-.252a9.494,9.494,0,0,1,2.558,2.825,40.338,40.338,0,0,1,4.327,34.5,20.609,20.609,0,0,0-1.316,4.777c-.515,5.888,5.117,10.38,7.211,15.913a28.844,28.844,0,0,1,1.352,8.888c-1.579-7.7-7.35-15.281-9.956-19.5Z" transform="translate(-151.502 -126.728)" fill="url(#linear-gradient)"/>
  <path id="Caminho_38" data-name="Caminho 38" d="M408.866,665.632s-.274,4.568-2.01,6.03c0,0-3.563,20.649-6.853,24.4l-.548,2.1-13.705-1.553,2.741-18.274,2.558-16.812Z" transform="translate(-263.568 -434.213)" fill="#ffc1c8"/>
  <path id="Caminho_39" data-name="Caminho 39" d="M408.866,665.632s-.274,4.568-2.01,6.03c0,0-3.563,20.649-6.853,24.4l-.548,2.1-13.705-1.553,2.741-18.274,2.558-16.812Z" transform="translate(-263.568 -434.213)" opacity="0.03"/>
  <path id="Caminho_40" data-name="Caminho 40" d="M344.862,713.432l5.906-.259-.314,9.3-4.521,3.03-8.143-1.784,2.971-12.426Z" transform="translate(-214.332 -451.332)" fill="#ff748f"/>
  <path id="Caminho_41" data-name="Caminho 41" d="M344.862,713.432l5.906-.259-.314,9.3-4.521,3.03-8.143-1.784,2.971-12.426Z" transform="translate(-214.332 -451.332)" opacity="0.03"/>
  <path id="Caminho_42" data-name="Caminho 42" d="M401.494,778.631s4.638-1.367,6.838.417,7.551,6.538,8.622,7.134,16.512,3.509,11.414,7.251-18.19,2.675-18.19,2.675-8.563-2.5-8.8-2.617-5.482-2.675-5.647-2.854,1.484-12.061,1.484-12.061Z" transform="translate(-269.893 -508.205)" fill="#5d618c"/>
  <path id="Caminho_43" data-name="Caminho 43" d="M401.494,778.631s4.638-1.367,6.838.417,7.551,6.538,8.622,7.134,16.512,3.509,11.414,7.251-18.19,2.675-18.19,2.675-8.563-2.5-8.8-2.617-5.482-2.675-5.647-2.854,1.484-12.061,1.484-12.061Z" transform="translate(-269.893 -508.205)" opacity="0.03"/>
  <path id="Caminho_44" data-name="Caminho 44" d="M273.265,368.223l-.274,16.987-.621,36.237-.365.318c-10.873,9.411-18.548-.548-18.548-.548a4.986,4.986,0,0,1-3.172,1.148,24.79,24.79,0,0,1-4.422,0l-.365-.033s-28.7-35.294-30.433-41.507a5.066,5.066,0,0,1,.026-3.231,5.41,5.41,0,0,1,3.22-2.891,11.356,11.356,0,0,1,2.968-.731,75.093,75.093,0,0,0-4.568-16.081c-2.105-5.391-1.9-8.128-1.319-9.5a2.2,2.2,0,0,1,1.137-1.29s1.155-.852,3.015-2.193c1.546-1.129,3.582-2.606,5.848-4.24l2.1-1.506c7.752-5.563,17.093-12.112,19-12.792a2.791,2.791,0,0,1,.365-.106c3.922-.947,17.082,1.02,17.082,1.02Z" transform="translate(-155.103 -221.321)" fill="#e8c82a"/>
  <path id="Caminho_45" data-name="Caminho 45" d="M326.947,368.236l-.274,16.987c-13-3.834-25.086-29.238-26.68-31.241-1.363-1.74.037-21.114.552-27.7,3.922-.947,17.082,1.02,17.082,1.02Z" transform="translate(-208.785 -221.334)" fill="none"/>
  <path id="Caminho_46" data-name="Caminho 46" d="M326.947,368.236l-.274,16.987c-13-3.834-25.086-29.238-26.68-31.241-1.363-1.74.037-21.114.552-27.7,3.922-.947,17.082,1.02,17.082,1.02Z" transform="translate(-208.785 -221.334)" opacity="0.1"/>
  <path id="Caminho_47" data-name="Caminho 47" d="M631.188,349.561s-10.142,5.208-11.421,25.675c0,0-1.645,10.416-2.558,12.243s-5.3,19.1-4.751,21.2c0,0-.914,2.1-4.294,1.188s-21.654-3.746-25.766-6.487l-11.33-5.391s-22.111-15.624-26.771-2.193,21.837,12.89,21.837,12.89l12.518,5.848,37.918,12.51s5.025,2.284,8.406-5.025a85.779,85.779,0,0,1,7.675-13.157s7.675-21.563,7.584-25.218,8.223-12.335,8.223-12.335,1.645-23.025-11.878-22.568Z" transform="translate(-363.82 -235.742)" fill="#ffc1c7"/>
  <path id="Caminho_48" data-name="Caminho 48" d="M631.188,349.561s-10.142,5.208-11.421,25.675c0,0-1.645,10.416-2.558,12.243s-5.3,19.1-4.751,21.2c0,0-.914,2.1-4.294,1.188s-21.654-3.746-25.766-6.487l-11.33-5.391s-22.111-15.624-26.771-2.193,21.837,12.89,21.837,12.89l12.518,5.848,37.918,12.51s5.025,2.284,8.406-5.025a85.779,85.779,0,0,1,7.675-13.157s7.675-21.563,7.584-25.218,8.223-12.335,8.223-12.335,1.645-23.025-11.878-22.568Z" transform="translate(-363.82 -235.742)" opacity="0.03"/>
  <path id="Caminho_49" data-name="Caminho 49" d="M473.954,399.64a17.647,17.647,0,0,0,3.107,1.959s8.406,10,11.787,12.561,14.436,12.335,12.2,16.037-4.751,2.876-4.751,2.876l-19.783-13.705s-6.944-4.978-8.358-7.353a54.945,54.945,0,0,1-3.154-7.35Z" transform="translate(-313.854 -268.044)" fill="#ffc1c8"/>
  <path id="Caminho_50" data-name="Caminho 50" d="M473.954,399.64a17.647,17.647,0,0,0,3.107,1.959s8.406,10,11.787,12.561,14.436,12.335,12.2,16.037-4.751,2.876-4.751,2.876l-19.783-13.705s-6.944-4.978-8.358-7.353a54.945,54.945,0,0,1-3.154-7.35Z" transform="translate(-313.854 -268.044)" opacity="0.03"/>
  <path id="Caminho_51" data-name="Caminho 51" d="M400.935,313.32l14.206,19.049-12.792,4.981-5.3-15.946Z" transform="translate(-251.934 -198.811)" fill="#dce6f2"/>
  <path id="Caminho_52" data-name="Caminho 52" d="M400.935,313.32l14.206,19.049-12.792,4.981-5.3-15.946Z" transform="translate(-251.934 -198.811)" opacity="0.03"/>
  <path id="Caminho_53" data-name="Caminho 53" d="M450.373,485.77l2.558,3.746,2.193,56.1s.183,5.3-1.371,6.853-14.254.548-14.254.548.457-57.2.64-58.294S450.373,485.77,450.373,485.77Z" transform="translate(-297.673 -322.696)" fill="#575988"/>
  <path id="Caminho_54" data-name="Caminho 54" d="M450.373,485.77l2.558,3.746,2.193,56.1s.183,5.3-1.371,6.853-14.254.548-14.254.548.457-57.2.64-58.294S450.373,485.77,450.373,485.77Z" transform="translate(-297.673 -322.696)" opacity="0.1"/>
  <path id="Caminho_55" data-name="Caminho 55" d="M384.4,671.866a46.372,46.372,0,0,1-2.924,5.935s-2.376,13.556-3.388,14.805c-.731.914-1.067,7.734-1.188,11.29-.044,1.286-.062,2.145-.062,2.145L362.872,712.7l-.062-8.8v-.117h0c-.088-1.941-1.1-24.418,1.02-25.726,1.243-.771,2.427-4.02,3.227-6.685.61-2.058.994-3.779.994-3.779s15.518-1.009,16.812.654C385.338,668.84,385.009,670.28,384.4,671.866Z" transform="translate(-248.811 -437.875)" fill="#ffc1c8"/>
  <path id="Caminho_56" data-name="Caminho 56" d="M392.288,671.834c-6.294-.132-14.181-.4-17.367-.512.61-2.058.994-3.779.994-3.779s15.518-1.009,16.812.654C393.223,668.808,392.894,670.248,392.288,671.834Z" transform="translate(-256.696 -437.843)" opacity="0.1"/>
  <path id="Caminho_57" data-name="Caminho 57" d="M366.04,451.522s-4.294,22.842-3.472,37.553-.64,25.576,1.188,29.878,1.827,14.071,1.827,14.071,24.852.914,27.411.548,2.467-2.284,2.467-2.284-1.736-15.175-.091-19.926,1.371-19.279,1.371-19.279l6.944-23.391s2.1-10.507-2.284-14.8S366.04,451.522,366.04,451.522Z" transform="translate(-248.792 -300.692)" fill="#575988"/>
  <path id="Caminho_58" data-name="Caminho 58" d="M641.265,673.211l-1.1,1.608-6.78,10.087-5.756,1.736-4.294-4.2.208-2.774,1.071-14.4s-26.57-15.631-28.946-18.555-11.513-5.573-11.513-5.573-13.98-6.487-19.188-17.817,8.68-13.066,8.68-13.066l52.172,49.895Z" transform="translate(-376.546 -401.681)" fill="#ffc1c7"/>
  <path id="Caminho_59" data-name="Caminho 59" d="M692.13,744.865l-6.78,10.087-5.756,1.736-4.294-4.2.208-2.774,4.726,4.053L689.1,743.44Z" transform="translate(-428.49 -471.732)" opacity="0.1"/>
  <path id="Caminho_60" data-name="Caminho 60" d="M726.164,789.941l-16.538,15.441s-9.5,1.827-18,.548c-5.431-.819-4.386-3.8-2.957-5.848l.026-.037a6.008,6.008,0,0,1,3.523-2.317c7.032-1.7,9.459-6.787,9.459-6.787l5.117,4.386L715.657,785l6.553,3.077Z" transform="translate(-455.05 -512.564)" fill="#575988"/>
  <path id="Caminho_61" data-name="Caminho 61" d="M725.762,795.783l-16.538,15.449s-9.5,1.827-18,.548c-5.431-.819-4.751-3.8-3.322-5.848a11.329,11.329,0,0,0,5.7,2.372,90.977,90.977,0,0,0,11.7,0l16.512-14.374Z" transform="translate(-454.648 -518.231)" fill="#fff"/>
  <path id="Caminho_62" data-name="Caminho 62" d="M387.691,284.8c-1.345.672-1.963,2.748-2.211,5.117a43.72,43.72,0,0,0,.259,8.91s-18.274-5-16.322-5.972c1.122-.559,1.718-4.631,2.021-7.982.227-2.478.292-4.565.292-4.565S391.345,282.974,387.691,284.8Z" transform="translate(-253.111 -192.327)" fill="#ffc1c8"/>
  <path id="Caminho_63" data-name="Caminho 63" d="M747.86,304.793s-22.174,20.953-21.443,14.864a7.406,7.406,0,0,0-.767-3.406c-2.05-4.941-7.719-12.613-12.152-18.223-3.253-4.115-5.848-7.123-5.848-7.123s27.539-23.146,25.346-9.988a15.785,15.785,0,0,0,1.2,8.837c2.745,6.462,8.826,11.545,11.863,13.789C747.158,304.35,747.86,304.793,747.86,304.793Z" transform="translate(-467.82 -190.144)" fill="#ffc1c7"/>
  <path id="Caminho_64" data-name="Caminho 64" d="M729.964,284.933c-.4.493-1.875,2.226-2.313,2.683-4.166,4.338-4.722,10.6-11.209,10.6a22.777,22.777,0,0,1-2.924-.186c-3.253-4.115-5.848-7.123-5.848-7.123s27.531-23.146,25.339-9.988C732.49,284.037,728.805,282.2,729.964,284.933Z" transform="translate(-467.833 -190.144)" opacity="0.1"/>
  <path id="Caminho_65" data-name="Caminho 65" d="M714.8,230.84a22.813,22.813,0,1,1-6.682-16.22,22.905,22.905,0,0,1,6.682,16.22Z" transform="translate(-443.29 -146.406)" fill="#ffc1c7"/>
  <path id="Caminho_66" data-name="Caminho 66" d="M779.11,350.713s-22.173,20.953-21.443,14.864a7.407,7.407,0,0,0-.768-3.406l3.205-7.558a21.683,21.683,0,0,1,14.184-5.372,20.629,20.629,0,0,1,2.84.194l.183.029C778.408,350.271,779.11,350.713,779.11,350.713Z" transform="translate(-499.071 -236.065)" opacity="0.1"/>
  <path id="Caminho_67" data-name="Caminho 67" d="M685.217,505.482S669.5,530.576,669.5,532.527c0,0-17.788-6.944-24.122-8.406s-12.306-14.74-12.306-14.74-16.812-15.84-23.391-18.033c-5.581-1.86-32.4-39.691-40.389-51.1a8.04,8.04,0,0,1,.19-9.484l.15-.194a18.672,18.672,0,0,1,18.069-6.732,18.874,18.874,0,0,1,2.193.541c11.505,3.556,31.431,9.667,41.482,12.426a42.222,42.222,0,0,0,6.067,1.429c1.1-.113,1.7-1.1,2.032-2.175a10.34,10.34,0,0,0,.406-2.7v-.164a46.364,46.364,0,0,0-1.447-6.871c-1.173-4.02-3.205-8.739-6.578-10.994-2.8-1.868-5.025-5.987-6.191-10.774-1.568-6.465-1.206-14.159,2.292-19.195l3.381-7.975,5.654-13.34,3.15-7.434a21.684,21.684,0,0,1,14.184-5.372,20.634,20.634,0,0,1,2.84.194c2.423.336,4.517,1.064,5.391,2.5,2.679,4.386,8.771,12.426,9.989,20.467s-.241,21.2,3.9,26.073,6.579,16.567,10.964,19-7.065,7.551-7.065,7.551l.044.771.2,3.373s.08.091.227.274C683.364,434.6,706.415,464.918,685.217,505.482Z" transform="translate(-379.109 -237.334)" fill="#ff6584"/>
  <path id="Caminho_68" data-name="Caminho 68" d="M805.261,564.377c-4.8,1.005-15.306,3.194-19.992,4.155l-.822.168c-.274.055-.581.106-.914.154-4.707.647-14.919.329-19.593.139a10.332,10.332,0,0,0,.406-2.7v-.164a154.4,154.4,0,0,0,19.206-2.386c.589-.121,1.17-.249,1.736-.366.819-.19,1.615-.391,2.376-.6a63.927,63.927,0,0,1,17.177-2.032l.2,3.373S805.1,564.194,805.261,564.377Z" transform="translate(-503.538 -370.267)" fill="#575988"/>
  <path id="Caminho_69" data-name="Caminho 69" d="M819.236,567.92v5.168l-.822.168c-.274.055-.581.106-.914.153v-5.095C818.088,568.18,818.669,568.052,819.236,567.92Z" transform="translate(-537.523 -374.822)" fill="#ff6584"/>
  <path id="Caminho_70" data-name="Caminho 70" d="M771.206,595s-9.777,22.385-15.716,24.578-20.741,9.959-20.741,9.959,8.5,7.492,17.36-.731S773.765,598.655,771.206,595Z" transform="translate(-485.016 -392.005)" opacity="0.1"/>
  <path id="Caminho_71" data-name="Caminho 71" d="M862.27,586.77s.914,8.5-.366,10.051S862.27,586.77,862.27,586.77Z" transform="translate(-565.389 -386.783)" opacity="0.1"/>
  <path id="Caminho_72" data-name="Caminho 72" d="M844.3,602s4.934,51.715-19.553,51.989C824.75,654,847.684,631.238,844.3,602Z" transform="translate(-542.123 -396.447)" opacity="0.1"/>
  <path id="Caminho_73" data-name="Caminho 73" d="M891.443,636s7.035,27.137-2.193,30.243A68.833,68.833,0,0,0,891.443,636Z" transform="translate(-583.05 -418.02)" opacity="0.1"/>
  <path id="Caminho_74" data-name="Caminho 74" d="M748.495,617c-.457,0-19,3.2-14.985,5.756S748.495,617,748.495,617Z" transform="translate(-483.868 -405.964)" opacity="0.1"/>
  <path id="Caminho_75" data-name="Caminho 75" d="M810.5,516.77s15.167,13.431,12.243,14.893" transform="translate(-533.081 -342.366)" opacity="0.1"/>
  <path id="Caminho_76" data-name="Caminho 76" d="M807,528.52s8.771,10.782,7.766,11.421" transform="translate(-530.86 -349.822)" opacity="0.1"/>
  <path id="Caminho_77" data-name="Caminho 77" d="M858.25,524s4.02,5.025,3.381,6.122" transform="translate(-563.38 -346.954)" opacity="0.1"/>
  <path id="Caminho_78" data-name="Caminho 78" d="M869.25,516.77s5.756,4.47,4.477,6.213" transform="translate(-570.359 -342.366)" opacity="0.1"/>
  <path id="Caminho_79" data-name="Caminho 79" d="M755.576,367.77s18.731,1.462,17.908,16.538-14.8,18.913-14.8,18.913L740.5,398.013S748.632,368.775,755.576,367.77Z" transform="translate(-488.665 -247.822)" fill="#ffc1c7"/>
  <path id="Caminho_80" data-name="Caminho 80" d="M624.4,550.411c11.505,3.556,31.431,9.667,41.482,12.426a5.315,5.315,0,0,1-4.287.238l-37.918-12.51-1.484-.694A18.862,18.862,0,0,1,624.4,550.411Z" transform="translate(-413.594 -363.369)" opacity="0.1"/>
  <path id="Caminho_81" data-name="Caminho 81" d="M754.485,400.127c-1.78,2.376-3.348,4.934-3.289,6.535.029,1.151-.731,4.086-1.747,7.562a126.4,126.4,0,0,1-10.6,25.116c-1.173-4.02-3.205-8.739-6.579-10.994-2.8-1.868-5.025-5.987-6.191-10.774a63.389,63.389,0,0,1,2.08-7.072c.914-1.827,2.558-12.243,2.558-12.243a54.745,54.745,0,0,1,1.034-7.854,33.1,33.1,0,0,1,5.654-13.34,15.787,15.787,0,0,1,4.751-4.481l5.391-.822c6.213-.208,9.21,4.517,10.654,9.7A21.666,21.666,0,0,1,754.485,400.127Z" transform="translate(-479.515 -250.349)" opacity="0.1"/>
  <path id="Caminho_82" data-name="Caminho 82" d="M615.188,368.6s-10.142,5.208-11.421,25.675c0,0-1.645,10.416-2.558,12.243s-5.3,19.1-4.751,21.2c0,0-.914,2.1-4.294,1.188s-21.655-3.746-25.766-6.487l-11.33-5.391S532.955,401.4,528.3,414.831s21.837,12.89,21.837,12.89l12.518,5.848,37.918,12.51s5.025,2.284,8.406-5.025c.844-1.827,1.747-3.563,2.628-5.142A127.061,127.061,0,0,0,622.5,410.263a36.965,36.965,0,0,0,1.747-7.562c-.04-1.6,1.531-4.163,3.289-6.535a21.542,21.542,0,0,0,3.691-18.676c-1.444-5.179-4.455-9.9-10.654-9.692Z" transform="translate(-353.667 -247.836)" fill="#ffc1c7"/>
  <path id="Caminho_83" data-name="Caminho 83" d="M391.453,284.776c-1.345.672-1.963,2.748-2.211,5.117h-.713a19.992,19.992,0,0,1-13.329-5.058c.227-2.478.292-4.565.292-4.565S395.108,282.949,391.453,284.776Z" transform="translate(-256.873 -192.301)" opacity="0.1"/>
  <path id="Caminho_84" data-name="Caminho 84" d="M396.872,214.7a20.1,20.1,0,1,1-20.1-20.1,20.1,20.1,0,0,1,20.1,20.1Z" transform="translate(-245.116 -137.942)" fill="#ffc1c8"/>
  <path id="Caminho_85" data-name="Caminho 85" d="M393.713,362.947s-10.507,4.2-13.8,5.665-22.111-1.919-22.111-1.919-9.777-4.934-8.954-9.868-7.858-21.1-7.858-21.1-.274-14.345,3.563-17.086,2.376-8.5,2.376-8.5.018-.19.077-.5c.238-1.221,1.1-4.327,3.944-5.347a3.779,3.779,0,0,1,1.765-.048c2.73.413,7.214,2.445,10.924,4.32,3.07,1.553,5.61,3,6.191,3.333l.124.069s1.371,3.2,3.015,2.193,9.868,3.655,11.421,5.756.457,11.969.183,14.436,1.553,9.776,3.563,13.972S393.713,362.947,393.713,362.947Z" transform="translate(-235.165 -207.463)" opacity="0.1"/>
  <path id="Caminho_86" data-name="Caminho 86" d="M393.713,359.947s-10.507,4.2-13.8,5.665-22.111-1.919-22.111-1.919-9.777-4.934-8.954-9.868-7.858-21.1-7.858-21.1-.274-14.345,3.563-17.086,2.376-8.5,2.376-8.5.018-.19.077-.5c.238-1.221,1.1-4.327,3.944-5.347a3.779,3.779,0,0,1,1.765-.048c2.73.413,7.214,2.445,10.924,4.32,3.07,1.553,5.61,3,6.191,3.333l.124.069s1.371,3.2,3.015,2.193,9.868,3.655,11.421,5.756.457,11.969.183,14.436,1.553,9.776,3.563,13.972S393.713,359.947,393.713,359.947Z" transform="translate(-235.165 -205.56)" fill="#dce6f2"/>
  <path id="Caminho_87" data-name="Caminho 87" d="M373.978,423.283S364.962,437.9,363.5,438.695l.548,5.117s12.854-2.683,13.647-6.275.365-14.436.365-14.436Z" transform="translate(-249.449 -282.93)" fill="#575988"/>
  <path id="Caminho_88" data-name="Caminho 88" d="M373.978,423.283S364.962,437.9,363.5,438.695l.548,5.117s12.854-2.683,13.647-6.275.365-14.436.365-14.436Z" transform="translate(-249.449 -282.93)" opacity="0.2"/>
  <path id="Caminho_89" data-name="Caminho 89" d="M426.88,372.64s1.6,6.169,4.112,8.271S426.88,372.64,426.88,372.64Z" transform="translate(-289.665 -250.912)" opacity="0.1"/>
  <path id="Caminho_90" data-name="Caminho 90" d="M384,410.317c.23.413,7.949,10.92,16.081,14.8s26.27,8.453,26.27,8.453,14.71,2.741,17.221,3.79,5.712-3.655-10.051-10.369-18.822-9.685-18.822-9.685-13.705-6.677-15.9-9.967S384,410.317,384,410.317Z" transform="translate(-262.457 -272.326)" fill="#ffc1c8"/>
  <path id="Caminho_91" data-name="Caminho 91" d="M399.75,548.4c.274-.183,6.853-7.218,7.675-4.2S399.75,548.4,399.75,548.4Z" transform="translate(-272.451 -359.294)" opacity="0.1"/>
  <path id="Caminho_92" data-name="Caminho 92" d="M403.9,519c-.091.274-1.005,8.041-3.655,8.954" transform="translate(-272.768 -343.781)" opacity="0.1"/>
  <path id="Caminho_93" data-name="Caminho 93" d="M408.391,524.77s-2.376,8.315-5.391,8.856" transform="translate(-274.513 -347.442)" opacity="0.1"/>
  <path id="Caminho_94" data-name="Caminho 94" d="M384.75,588.717s4.02.091,4.568-2.467" transform="translate(-262.933 -386.453)" opacity="0.1"/>
  <path id="Caminho_95" data-name="Caminho 95" d="M399.75,638.52c.548.091,9.137,5.573,6.944,6.67S399.75,638.52,399.75,638.52Z" transform="translate(-272.451 -419.619)" opacity="0.1"/>
  <path id="Caminho_96" data-name="Caminho 96" d="M377.413,765.14v.844c-.044,1.286-.062,2.145-.062,2.145l-13.969,6.659-.062-8.8v-.117h0v-.6l5.592.179Z" transform="translate(-249.335 -499.963)" opacity="0.1"/>
  <path id="Caminho_97" data-name="Caminho 97" d="M328.271,739.628l-11.651,4.459-5.23-3.092.055-4.232.121-9.086,5.592.179,8.5-.3v6.363Z" transform="translate(-197.581 -461.656)" fill="#ff748f"/>
  <path id="Caminho_98" data-name="Caminho 98" d="M379.691,789.124l-11.651,4.459-5.23-3.092.055-4.232a8.468,8.468,0,0,0,6.425,3.326s4.1-5.117,6.6-6.6a1.524,1.524,0,0,1,1.191-.161v.6Z" transform="translate(-249.012 -511.148)" opacity="0.1"/>
  <path id="Caminho_99" data-name="Caminho 99" d="M362.164,791.567a8.4,8.4,0,0,1-7.134-4.459s-3.388,3.271-3.45,10.168a65.943,65.943,0,0,0,.062,7.134s13.672-.534,16.231.417,24.019-.833,24.019-.833,1.425-3.746-5.055-5.054-11.831-8.205-12.01-8.5-3.567-6.944-6.063-5.482S362.164,791.567,362.164,791.567Z" transform="translate(-241.875 -512.403)" fill="#5d618c"/>
  <path id="Caminho_100" data-name="Caminho 100" d="M412.683,188.478l-1.363-.186.852-.022Z" transform="translate(-279.792 -133.925)" opacity="0.1"/>
  <path id="Caminho_101" data-name="Caminho 101" d="M396.856,214.737a20.149,20.149,0,0,1-.537,4.631,3.216,3.216,0,0,1-.866-.365c-.391-.252-.782-.6-1.243-.559a1.48,1.48,0,0,0-.731.336c-2.164,1.583-3.772,4.185-6.4,4.689a4.225,4.225,0,0,0,.1-2.39,4.945,4.945,0,0,1-4.331,1.389,2.087,2.087,0,0,0,.062-1.436,41.948,41.948,0,0,1-5.771,2.679c-.069-.365-.135-.7-.2-1.053-2.8,1.367-2.58,6-5.38,7.372-1.667.815-4.02.23-5.172,1.7-.044.058-.084.117-.124.179a20.1,20.1,0,1,1,30.59-17.152Z" transform="translate(-245.099 -137.978)" opacity="0.1"/>
  <path id="Caminho_102" data-name="Caminho 102" d="M365.721,183.941a19.753,19.753,0,0,0-5.219-1.608,6.635,6.635,0,0,0-5.146,1.356c-1.1.965-1.955,2.514-3.417,2.558a4.4,4.4,0,0,1-2.01-.643c-1.827-.877-4.112-1.374-5.76-.212-1.316.932-1.809,2.642-2.025,4.24a13.56,13.56,0,0,1-1.027,4.7,20.829,20.829,0,0,1-1.78,2.394,10.343,10.343,0,0,0-1.988,7.068,20.522,20.522,0,0,0,.8,3.673l1.491,5.267A31.106,31.106,0,0,0,342.6,220.5a10.525,10.525,0,0,0,6.359,5.04c1.63.365,3.6.066,4.517-1.334.234-.365.384-.757.64-1.1,1.133-1.462,3.5-.881,5.171-1.7,2.8-1.367,2.58-6,5.38-7.372l.208,1.049a42.525,42.525,0,0,0,5.767-2.675,2.109,2.109,0,0,1-.058,1.436,4.96,4.96,0,0,0,4.327-1.389,4.225,4.225,0,0,1-.1,2.39c2.631-.508,4.24-3.11,6.4-4.693a1.509,1.509,0,0,1,.731-.333c.464-.04.852.307,1.243.556a3.5,3.5,0,0,0,4.327-.552c1.151-1.25,1.2-3.172.833-4.832a40.487,40.487,0,0,1-1.254-4.934c-.23-2.306.574-4.715-.164-6.908a7.633,7.633,0,0,0-4.02-4.093c-1.758-.884-3.655-1.4-5.449-2.193-1.7-.764-3.289-1.787-5.058-2.39a22.916,22.916,0,0,0-8.041-.731" transform="translate(-232.83 -130.122)" fill="#794f6a"/>
  <path id="Caminho_103" data-name="Caminho 103" d="M355.72,340.571s2.924-19.674-22.111-18.7L321,323.547s12.028,2.164,14.922,2.482l.307.044C338.908,326.562,348.17,325.952,355.72,340.571Z" transform="translate(-222.482 -218.675)" fill="#e8c82a"/>
  <path id="Caminho_104" data-name="Caminho 104" d="M372.25,580.627V580.4C382.516,571.523,372.25,580.627,372.25,580.627Z" transform="translate(-255.001 -380.274)" opacity="0.1"/>
  <path id="Caminho_105" data-name="Caminho 105" d="M250.747,506.924a24.8,24.8,0,0,1-4.422,0L215.57,462.161a5.41,5.41,0,0,1,3.22-2.891Z" transform="translate(-155.584 -305.881)" fill="#575988"/>
  <path id="Caminho_106" data-name="Caminho 106" d="M231.323,407.263,229.861,409s-11.089-18.42-13.471-27.776a2.2,2.2,0,0,1,1.137-1.29s1.155-.852,3.015-2.193C221.233,382.14,223.59,392.9,231.323,407.263Z" transform="translate(-156.105 -254.148)" fill="#575988"/>
  <path id="Caminho_107" data-name="Caminho 107" d="M259.5,388.907l-2.924,1.645c-7.982-9.342-8.662-25.035-8.589-31.288l2.105-1.513C250.382,365.962,259.5,388.907,259.5,388.907Z" transform="translate(-176.154 -241.464)" fill="#575988"/>
  <path id="Caminho_108" data-name="Caminho 108" d="M298.392,438.52c-.091,1.188-3.472,13.249,1.462,15.259S298.392,438.52,298.392,438.52Z" transform="translate(-207.366 -292.715)" opacity="0.1"/>
  <path id="Caminho_109" data-name="Caminho 109" d="M329.5,485.594c.183.64,1.827,21.472,5.391,19.827s1.645-25.4,1.645-25.4Z" transform="translate(-227.876 -319.047)" opacity="0.1"/>
  <path id="Caminho_110" data-name="Caminho 110" d="M718.562,230.786a22.813,22.813,0,0,1-6.389,15.862,13.347,13.347,0,0,1-5.08.088,5.058,5.058,0,0,1-2.376-.954,6.179,6.179,0,0,1-1.539-2.226c-1.334-2.869-2.017-6.184-3.889-8.64s-5.669-3.534-7.474-1.016c-.983,1.367-1.148,3.468-2.46,4.415-1.575,1.14-3.655-.2-4.879-1.827-3.618-4.751-2.379-14.093-9.279-15.4l-.278-.048a22.9,22.9,0,0,1,43.642,9.751Z" transform="translate(-447.053 -146.352)" opacity="0.1"/>
  <path id="Caminho_111" data-name="Caminho 111" d="M669.384,210.1c-1.118-.216-2.416-.186-3.165-1.151a4.429,4.429,0,0,1-.676-2.109c-.45-3.238-.694-6.714.6-9.649,2.116-4.813,7.562-6.421,12.295-6.063s9.378,2.123,14.111,1.827c3.479-.227,6.911-1.572,10.38-1.188,2.745.307,5.3,1.67,7.77,3.063a18.589,18.589,0,0,1,6.308,4.96c2.4,3.308,2.858,7.876,2.924,12.163.08,5.033-.274,10.259-2.387,14.689-3.063,6.429-9.893,10.255-16.26,9.1a5.058,5.058,0,0,1-2.376-.954,6.212,6.212,0,0,1-1.535-2.226c-1.338-2.873-2.021-6.184-3.892-8.644s-5.668-3.531-7.474-1.012c-.983,1.363-1.148,3.468-2.46,4.415-1.575,1.137-3.655-.2-4.879-1.827C675.045,220.741,676.284,211.407,669.384,210.1Z" transform="translate(-440.873 -135.707)" fill="#945b79"/>
  <path id="Caminho_112" data-name="Caminho 112" d="M807.7,211.394c3.483,1.663,5.9,4.9,8.168,8.019,1.889,2.591,3.845,5.362,4.093,8.556a34.172,34.172,0,0,0,.153,3.925c.874,4.543,6.579,6.579,8.245,10.906a12.685,12.685,0,0,1,.19,6.465,87.256,87.256,0,0,1-1.97,9.258,12.328,12.328,0,0,0-.676,5.585,17.141,17.141,0,0,0,1.74,4.02c1.678,3.549,1.966,7.573,2.094,11.494s.124,7.913,1.3,11.655,3.761,7.28,7.492,8.49a8.8,8.8,0,0,1-4.218,1.5,3.521,3.521,0,0,0,1.462,3.245,10.658,10.658,0,0,0,3.37,1.561,6.359,6.359,0,0,1-5.6.863,12.551,12.551,0,0,1-4.1-2.683l-7.006-6.027a19.774,19.774,0,0,1-2.584-2.514c-4.532-5.632-1.827-14.166-4.357-20.931-2.061-5.5-7.6-9.967-7.094-15.818a20.641,20.641,0,0,1,1.294-4.751,40.447,40.447,0,0,0-4.258-34.289,8.115,8.115,0,0,0-3.063-3.132c-2.028-.969-4.927-.552-6.078-2.485a9.645,9.645,0,0,1-.786-3.958A20.212,20.212,0,0,1,807.7,211.394Z" transform="translate(-523.576 -147.627)" fill="#945b79"/>
  <path id="Caminho_113" data-name="Caminho 113" d="M341.318,363.692a13.3,13.3,0,0,1,23.222-6.71,29.189,29.189,0,0,1,5.15,7.953c3.655,9.228,3.929,10.051,3.929,10.051s-22.568,4.386-22.385,7.675L341,366.305S341.077,365.282,341.318,363.692Z" transform="translate(-235.173 -238.047)" opacity="0.1"/>
  <path id="Caminho_114" data-name="Caminho 114" d="M341.318,360.692a13.3,13.3,0,0,1,23.222-6.71,29.188,29.188,0,0,1,5.15,7.953c3.655,9.228,3.929,10.051,3.929,10.051s-22.568,4.386-22.385,7.675L341,363.305S341.077,362.282,341.318,360.692Z" transform="translate(-235.173 -236.143)" fill="#dce6f2"/>
  <path id="Caminho_115" data-name="Caminho 115" d="M359.25,340.89c.274.457,11.056,13.614,16.721,15.489S359.25,340.89,359.25,340.89Z" transform="translate(-246.753 -230.766)" opacity="0.1"/>
  <path id="Caminho_116" data-name="Caminho 116" d="M232.5,457.27s28.507,33.624,32.162,47.238" transform="translate(-166.327 -304.612)" opacity="0.1"/>
  <path id="Caminho_117" data-name="Caminho 117" d="M235.5,372.27s6.213,32.162,18.274,45.685S278.261,454.5,278.261,454.5" transform="translate(-168.23 -250.678)" fill="none" stroke="#000" stroke-miterlimit="10" stroke-width="2" opacity="0.1"/>
  <g id="Grupo_9" data-name="Grupo 9" transform="translate(104.296 63.354)" opacity="0.1">
    <path id="Caminho_118" data-name="Caminho 118" d="M452.969,244.24a4.357,4.357,0,0,1-1.038,2.924,3.5,3.5,0,0,1-4.327.552c-.391-.249-.779-.6-1.243-.556a1.509,1.509,0,0,0-.731.333c-2.058,1.506-3.615,3.933-6.03,4.6a4.222,4.222,0,0,1-.19,1.919c2.631-.508,4.24-3.11,6.4-4.693a1.509,1.509,0,0,1,.731-.333c.464-.04.852.307,1.243.555a3.5,3.5,0,0,0,4.327-.552A5.4,5.4,0,0,0,452.969,244.24Z" transform="translate(-401.912 -232.793)"/>
    <path id="Caminho_119" data-name="Caminho 119" d="M472.444,217.51c.029.3.08.6.139.892,0-1.827.435-3.728,0-5.482C472.59,214.411,472.29,215.99,472.444,217.51Z" transform="translate(-422.845 -212.92)"/>
    <path id="Caminho_120" data-name="Caminho 120" d="M374.235,246.126a4.96,4.96,0,0,1-4.327,1.389,2.109,2.109,0,0,0,.058-1.436,42.525,42.525,0,0,1-5.767,2.675l-.208-1.049c-2.8,1.367-2.58,6-5.38,7.372-1.667.815-4.02.227-5.172,1.7-.256.333-.406.731-.64,1.1-.914,1.4-2.887,1.7-4.517,1.334a10.5,10.5,0,0,1-6.359-5.04,31.247,31.247,0,0,1-2.968-7.766l-1.491-5.267c-.245-.877-.493-1.754-.654-2.65a5.361,5.361,0,0,0,.04.8,20.516,20.516,0,0,0,.8,3.673l1.491,5.267a31.105,31.105,0,0,0,2.968,7.766,10.525,10.525,0,0,0,6.359,5.04c1.63.366,3.6.066,4.517-1.334.234-.365.384-.757.64-1.1,1.133-1.462,3.5-.881,5.172-1.7,2.8-1.367,2.58-6,5.38-7.372l.208,1.049a42.527,42.527,0,0,0,5.756-2.675,2.109,2.109,0,0,1-.059,1.436,4.96,4.96,0,0,0,4.159-1.235,4.222,4.222,0,0,0,0-1.981Z" transform="translate(-336.81 -229.138)"/>
  </g>
  <path id="Caminho_121" data-name="Caminho 121" d="M380.309,311.9c-1.966,1.133-6.535,3.655-7.459,3.224-.987-.457-11.754-4.225-15.35-5.482.238-1.221,1.1-4.327,3.944-5.347a3.779,3.779,0,0,1,1.765-.048l10.92,4.32C377.188,310.121,379.728,311.564,380.309,311.9Z" transform="translate(-245.642 -207.463)" opacity="0.1"/>
  <path id="Caminho_122" data-name="Caminho 122" d="M380.309,308.9c-1.966,1.133-6.535,3.655-7.459,3.224-.987-.457-11.754-4.225-15.35-5.482.238-1.221,1.1-4.327,3.944-5.347a3.779,3.779,0,0,1,1.765-.048l10.92,4.32C377.188,307.121,379.728,308.564,380.309,308.9Z" transform="translate(-245.642 -205.56)" fill="#dce6f2"/>
  <path id="Caminho_123" data-name="Caminho 123" d="M719.995,228.5a29.257,29.257,0,0,1-2.379,11.838c-3.063,6.429-9.893,10.255-16.26,9.1a5.059,5.059,0,0,1-2.376-.954,6.214,6.214,0,0,1-1.535-2.226c-1.338-2.873-2.021-6.184-3.892-8.644s-5.669-3.531-7.474-1.012c-.983,1.363-1.148,3.468-2.46,4.415-1.575,1.137-3.655-.2-4.879-1.827-3.618-4.751-2.379-14.1-9.28-15.4-1.118-.216-2.416-.186-3.165-1.151a4.429,4.429,0,0,1-.676-2.109c-.124-.881-.23-1.78-.292-2.683a26.622,26.622,0,0,0,.292,5.972,4.428,4.428,0,0,0,.676,2.109c.749.965,2.047.936,3.165,1.151,6.9,1.308,5.661,10.643,9.28,15.4,1.221,1.6,3.289,2.946,4.879,1.827,1.312-.947,1.462-3.052,2.46-4.415,1.805-2.518,5.6-1.444,7.474,1.012s2.558,5.771,3.892,8.644a6.215,6.215,0,0,0,1.535,2.226,5.059,5.059,0,0,0,2.376.954c6.367,1.151,13.2-2.675,16.26-9.1,2.112-4.43,2.467-9.656,2.387-14.689C719.995,228.781,719.995,228.635,719.995,228.5Z" transform="translate(-440.931 -152.695)" opacity="0.1"/>
  <g id="Grupo_10" data-name="Grupo 10" transform="translate(272.408 66.117)" opacity="0.1">
    <path id="Caminho_124" data-name="Caminho 124" d="M875.912,291.11a12.685,12.685,0,0,1,.19,6.465,87.233,87.233,0,0,1-1.97,9.25,12.326,12.326,0,0,0-.676,5.584,17.139,17.139,0,0,0,1.74,4.02c1.677,3.549,1.966,7.573,2.094,11.494s.124,7.913,1.3,11.655a14.393,14.393,0,0,0,4.2,6.615,15.416,15.416,0,0,1-2.368-4.649c-1.173-3.742-1.173-7.733-1.3-11.655s-.417-7.945-2.094-11.491a17.712,17.712,0,0,1-1.74-4.02,12.5,12.5,0,0,1,.676-5.588,87.167,87.167,0,0,0,1.97-9.276,12.7,12.7,0,0,0-.19-6.469,11.914,11.914,0,0,0-3.132-4.177A8.535,8.535,0,0,1,875.912,291.11Z" transform="translate(-845.358 -263.875)"/>
    <path id="Caminho_125" data-name="Caminho 125" d="M902.643,453.788a9.546,9.546,0,0,1-2.719-1.418,8.837,8.837,0,0,1-3.326.965,3.521,3.521,0,0,0,1.462,3.245,5.072,5.072,0,0,0,.621.428,2.924,2.924,0,0,1-.245-1.721A8.881,8.881,0,0,0,902.643,453.788Z" transform="translate(-860.094 -367.62)"/>
    <path id="Caminho_126" data-name="Caminho 126" d="M801.351,221.726c-1.392-.665-3.194-.68-4.561-1.246a3.741,3.741,0,0,0,.311.731c1.151,1.93,4.05,1.513,6.078,2.485a4.989,4.989,0,0,1,.731.45,7.036,7.036,0,0,0-2.558-2.419Z" transform="translate(-796.79 -220.48)"/>
    <path id="Caminho_127" data-name="Caminho 127" d="M877.975,453.737a6.348,6.348,0,0,1-4.419.208,12.551,12.551,0,0,1-4.1-2.683l-7.006-6.027c-.333-.285-.661-.574-.983-.866.073.1.146.2.227.3a19.54,19.54,0,0,0,2.584,2.514l7.006,6.03a12.609,12.609,0,0,0,4.1,2.683,6.359,6.359,0,0,0,5.6-.866A11.836,11.836,0,0,1,877.975,453.737Z" transform="translate(-837.831 -362.543)"/>
    <path id="Caminho_128" data-name="Caminho 128" d="M841.584,224.978c1.889,2.591,3.845,5.362,4.093,8.556a34.172,34.172,0,0,0,.153,3.925c.395,2.058,1.787,3.6,3.344,5.076a7.218,7.218,0,0,1-1.517-3.125,34.3,34.3,0,0,1-.154-3.929c-.248-3.194-2.193-5.965-4.093-8.552a39.087,39.087,0,0,0-4.492-5.42C839.859,222.621,840.733,223.805,841.584,224.978Z" transform="translate(-823.522 -221.134)"/>
  </g>
  <path id="Caminho_129" data-name="Caminho 129" d="M801.688,210.27s-2.193,3.655,4.02,6.7l.366-.976Z" transform="translate(-527.252 -147.885)" opacity="0.1"/>
  <path id="Caminho_130" data-name="Caminho 130" d="M800.688,210.27s-2.193,3.655,4.02,6.7l.366-.976Z" transform="translate(-526.617 -147.885)" fill="#ff6584"/>
  <path id="Caminho_131" data-name="Caminho 131" d="M1028.454,776.26s2.01,2.628-.925,6.579-5.354,7.31-4.386,9.784c0,0,4.429-7.364,8.04-7.467S1032.419,780.69,1028.454,776.26Z" transform="translate(-667.871 -507.019)" fill="#e8c82a"/>
  <path id="Caminho_132" data-name="Caminho 132" d="M1028.659,776.26a3.3,3.3,0,0,1,.413.822c3.516,4.134,5.387,7.989,2.007,8.084-3.147.091-6.922,5.72-7.829,7.141.029.11.066.216.106.325,0,0,4.43-7.364,8.04-7.467S1032.625,780.69,1028.659,776.26Z" transform="translate(-668.076 -507.019)" opacity="0.1"/>
  <path id="Caminho_133" data-name="Caminho 133" d="M1047.464,784.381c0,.925-.106,1.674-.234,1.674s-.23-.731-.23-1.674.128-.49.256-.49S1047.464,783.456,1047.464,784.381Z" transform="translate(-683.146 -511.791)" fill="#ffd037"/>
  <path id="Caminho_134" data-name="Caminho 134" d="M1049.022,787.337c-.811.442-1.521.709-1.579.6s.545-.563,1.356-1.005.493-.121.556,0S1049.837,786.894,1049.022,787.337Z" transform="translate(-683.425 -513.644)" fill="#ffd037"/>
  <path id="Caminho_135" data-name="Caminho 135" d="M1001.173,776.26s-2.01,2.628.925,6.579,5.354,7.31,4.386,9.784c0,0-4.426-7.364-8.04-7.467S997.222,780.69,1001.173,776.26Z" transform="translate(-651.207 -507.019)" fill="#e8c82a"/>
  <path id="Caminho_136" data-name="Caminho 136" d="M1001.159,776.26a3.307,3.307,0,0,0-.413.822c-3.516,4.134-5.387,7.989-2.006,8.084,3.147.091,6.922,5.72,7.829,7.141a2.836,2.836,0,0,1-.11.325s-4.426-7.364-8.041-7.467S997.208,780.69,1001.159,776.26Z" transform="translate(-651.193 -507.019)" opacity="0.1"/>
  <path id="Caminho_137" data-name="Caminho 137" d="M998.82,784.381c0,.925.106,1.674.234,1.674s.23-.731.23-1.674-.128-.49-.256-.49S998.82,783.456,998.82,784.381Z" transform="translate(-652.575 -511.791)" fill="#ffd037"/>
  <path id="Caminho_138" data-name="Caminho 138" d="M994.461,787.337c.811.442,1.517.709,1.579.6s-.545-.563-1.356-1.005-.493-.121-.556,0S993.65,786.894,994.461,787.337Z" transform="translate(-649.495 -513.644)" fill="#ffd037"/>
  <path id="Caminho_139" data-name="Caminho 139" d="M1000.57,814.843s5.614-.176,7.31-1.378,8.636-2.646,9.057-.731,8.435,9.608,2.1,9.659-14.725-.987-16.414-2.014S1000.57,814.843,1000.57,814.843Z" transform="translate(-653.685 -529.571)" fill="#a8a8a8"/>
  <path id="Caminho_140" data-name="Caminho 140" d="M1019.143,827.014c-6.337.051-14.725-.987-16.413-2.014-1.287-.786-1.8-3.6-1.97-4.89h-.19s.366,4.528,2.047,5.559,10.076,2.065,16.414,2.014c1.827,0,2.46-.665,2.427-1.63C1021.194,826.648,1020.5,827.014,1019.143,827.014Z" transform="translate(-653.685 -534.842)" opacity="0.2"/>
  <path id="Caminho_141" data-name="Caminho 141" d="M290.5,790.732a4.269,4.269,0,0,0,1.4-2.113,1.888,1.888,0,0,0-.979-2.156c-.9-.344-1.86.281-2.588.91a3.456,3.456,0,0,1-2.518,1.213A3.827,3.827,0,0,0,287,785a1.506,1.506,0,0,0-.329-.731c-.5-.534-1.4-.3-2,.117-1.9,1.334-2.43,3.918-2.438,6.239a11.509,11.509,0,0,1-.037-2.558,2.632,2.632,0,0,0-.965-2.273,2.925,2.925,0,0,0-1.462-.366,3.044,3.044,0,0,0-2.39.68,2.351,2.351,0,0,0,.1,2.924,9.481,9.481,0,0,0,2.471,1.981,5.482,5.482,0,0,1,1.769,1.685,1.765,1.765,0,0,1,.132.3h5.332A14.9,14.9,0,0,0,290.5,790.732Z" transform="translate(-194.503 -511.904)" fill="#e8c82a"/>
  <path id="Caminho_142" data-name="Caminho 142" d="M194.163,721.635s-5.117-17.433.961-30.269a27.561,27.561,0,0,0,2.229-17.276,46.511,46.511,0,0,0-2.449-8.11" transform="translate(-140.724 -437.043)" fill="none" stroke="#535461" stroke-miterlimit="10" stroke-width="2"/>
  <path id="Caminho_143" data-name="Caminho 143" d="M196.641,637.07c0,2.134-3.87,8.333-3.87,8.333s-3.87-6.213-3.87-8.333a3.87,3.87,0,0,1,7.741,0Z" transform="translate(-138.662 -416.244)" fill="#e8c82a"/>
  <path id="Caminho_144" data-name="Caminho 144" d="M214.077,665.8c-1.162,1.794-7.777,4.894-7.777,4.894s.117-7.31,1.279-9.1a3.87,3.87,0,1,1,6.5,4.2Z" transform="translate(-149.702 -433.14)" fill="#e8c82a"/>
  <path id="Caminho_145" data-name="Caminho 145" d="M210.864,718.8c-1.908.961-9.184.3-9.184.3s3.794-6.242,5.7-7.207a3.87,3.87,0,1,1,3.483,6.912Z" transform="translate(-146.771 -465.91)" fill="#e8c82a"/>
  <path id="Caminho_146" data-name="Caminho 146" d="M201.172,760.906c-1.718,1.272-9,1.827-9,1.827s2.683-6.794,4.386-8.066a3.87,3.87,0,1,1,4.6,6.213Z" transform="translate(-140.737 -492.761)" fill="#e8c82a"/>
  <path id="Caminho_147" data-name="Caminho 147" d="M181.894,679.031c1.531,1.491,8.673,3.033,8.673,3.033s-1.751-7.094-3.289-8.585a3.87,3.87,0,1,0-5.391,5.552Z" transform="translate(-133.421 -441.064)" fill="#e8c82a"/>
  <path id="Caminho_148" data-name="Caminho 148" d="M169.307,726.947c1.908.961,9.184.3,9.184.3s-3.79-6.246-5.7-7.207a3.868,3.868,0,1,0-3.483,6.908Z" transform="translate(-124.879 -471.082)" fill="#e8c82a"/>
  <path id="Caminho_149" data-name="Caminho 149" d="M166.305,776.772c1.718,1.268,9,1.827,9,1.827s-2.683-6.8-4.386-8.07a3.87,3.87,0,0,0-4.6,6.213Z" transform="translate(-123.435 -502.97)" fill="#e8c82a"/>
  <path id="Caminho_150" data-name="Caminho 150" d="M196.641,637.07c0,2.134-3.87,8.333-3.87,8.333s-3.87-6.213-3.87-8.333a3.87,3.87,0,0,1,7.741,0Z" transform="translate(-138.662 -416.244)" fill="#e8c82a"/>
  <path id="Caminho_151" data-name="Caminho 151" d="M214.077,665.8c-1.162,1.794-7.777,4.894-7.777,4.894s.117-7.31,1.279-9.1a3.87,3.87,0,1,1,6.5,4.2Z" transform="translate(-149.702 -433.14)" fill="#e8c82a"/>
  <path id="Caminho_152" data-name="Caminho 152" d="M210.864,718.8c-1.908.961-9.184.3-9.184.3s3.794-6.242,5.7-7.207a3.87,3.87,0,1,1,3.483,6.912Z" transform="translate(-146.771 -465.91)" fill="#e8c82a"/>
  <path id="Caminho_153" data-name="Caminho 153" d="M201.172,760.906c-1.718,1.272-9,1.827-9,1.827s2.683-6.794,4.386-8.066a3.87,3.87,0,1,1,4.6,6.213Z" transform="translate(-140.737 -492.761)" fill="#e8c82a"/>
  <path id="Caminho_154" data-name="Caminho 154" d="M181.894,679.031c1.531,1.491,8.673,3.033,8.673,3.033s-1.751-7.094-3.289-8.585a3.87,3.87,0,1,0-5.391,5.552Z" transform="translate(-133.421 -441.064)" fill="#e8c82a"/>
  <path id="Caminho_155" data-name="Caminho 155" d="M169.307,726.947c1.908.961,9.184.3,9.184.3s-3.79-6.246-5.7-7.207a3.868,3.868,0,1,0-3.483,6.908Z" transform="translate(-124.879 -471.082)" fill="#e8c82a"/>
  <path id="Caminho_156" data-name="Caminho 156" d="M166.305,776.772c1.718,1.268,9,1.827,9,1.827s-2.683-6.8-4.386-8.07a3.87,3.87,0,0,0-4.6,6.213Z" transform="translate(-123.435 -502.97)" fill="#e8c82a"/>
  <path id="Caminho_157" data-name="Caminho 157" d="M164.45,804.668s6.253-1.243,7.92-2.9,9.173-4.554,10.007-2.485,11.257,9.108,4.17,10.35-16.677,1.656-18.764.826S164.45,804.668,164.45,804.668Z" transform="translate(-123.148 -521.173)" fill="#a8a8a8"/>
  <path id="Caminho_158" data-name="Caminho 158" d="M186.547,819.38c-7.09,1.243-16.677,1.656-18.764.83-1.586-.632-2.69-3.655-3.125-5.069l-.208.044s1.25,4.967,3.333,5.793,11.673.417,18.764-.826c2.043-.365,2.628-1.2,2.408-2.266C188.772,818.579,188.067,819.109,186.547,819.38Z" transform="translate(-123.148 -531.689)" opacity="0.2"/>
</svg>
