<svg id="img-graduacao" xmlns="http://www.w3.org/2000/svg" width="403.711" height="300" viewBox="0 0 403.711 300">
  <path id="Caminho_305" data-name="Caminho 305" d="M527.736,584.643v72.318H346.553c-20.643,0-37.439-16.221-37.439-36.159s16.8-36.159,37.439-36.159Z" transform="translate(-263.991 -359.742)" fill="#f2f2f2"/>
  <path id="Caminho_306" data-name="Caminho 306" d="M529.081,655.073a2.783,2.783,0,0,1-2.781,2.782H340.22a38.106,38.106,0,1,1,0-76.212H526.3a2.781,2.781,0,0,1,0,5.563H340.22a32.543,32.543,0,1,0,0,65.086H526.3A2.782,2.782,0,0,1,529.081,655.073Z" transform="translate(-260.885 -358.411)" fill="#e8c82a"/>
  <path id="Caminho_307" data-name="Caminho 307" d="M546.372,613.756H351.67a.556.556,0,1,1,0-1.113h194.7a.556.556,0,1,1,0,1.113Z" transform="translate(-285.821 -372.166)" fill="#ccc"/>
  <path id="Caminho_308" data-name="Caminho 308" d="M546.372,637.756H351.67a.556.556,0,0,1,0-1.113h194.7a.556.556,0,0,1,0,1.113Z" transform="translate(-285.821 -382.815)" fill="#ccc"/>
  <path id="Caminho_309" data-name="Caminho 309" d="M546.372,661.755H351.67a.556.556,0,1,1,0-1.112h194.7a.556.556,0,1,1,0,1.112Z" transform="translate(-285.821 -393.464)" fill="#ccc"/>
  <path id="Caminho_310" data-name="Caminho 310" d="M546.372,685.756H351.67a.556.556,0,0,1,0-1.113h194.7a.556.556,0,1,1,0,1.113Z" transform="translate(-285.821 -404.113)" fill="#ccc"/>
  <path id="Caminho_311" data-name="Caminho 311" d="M793.753,511.665l-45.374,56.312L607.295,454.3c-16.075-12.952-18.975-36.121-6.466-51.646s35.765-17.618,51.84-4.666Z" transform="translate(-400.148 -273.152)" fill="#f2f2f2"/>
  <path id="Caminho_312" data-name="Caminho 312" d="M749.107,567.734a2.782,2.782,0,0,1-3.911.421L600.3,451.4a38.106,38.106,0,0,1,47.817-59.345l144.9,116.75a2.781,2.781,0,0,1-3.49,4.332l-144.9-116.75a32.543,32.543,0,1,0-40.836,50.681l144.9,116.75A2.783,2.783,0,0,1,749.107,567.734Z" transform="translate(-397.062 -270.549)" fill="#ccc"/>
  <path id="Caminho_313" data-name="Caminho 313" d="M813.916,534.248l-151.61-122.16a.556.556,0,0,1,.7-.866l151.61,122.16a.556.556,0,1,1-.7.866Z" transform="translate(-430.783 -282.739)" fill="#ccc"/>
  <path id="Caminho_314" data-name="Caminho 314" d="M798.858,552.936,647.248,430.776a.556.556,0,0,1,.7-.866l151.611,122.16a.556.556,0,0,1-.7.866Z" transform="translate(-424.101 -291.031)" fill="#ccc"/>
  <path id="Caminho_315" data-name="Caminho 315" d="M783.8,571.625,632.19,449.465a.556.556,0,0,1,.7-.866L784.5,570.759a.556.556,0,0,1-.7.866Z" transform="translate(-417.42 -299.324)" fill="#ccc"/>
  <path id="Caminho_316" data-name="Caminho 316" d="M768.742,590.313,617.132,468.153a.556.556,0,0,1,.7-.866l151.61,122.16a.556.556,0,1,1-.7.866Z" transform="translate(-410.739 -307.616)" fill="#ccc"/>
  <path id="Caminho_317" data-name="Caminho 317" d="M631.169,718.756H228.543a.556.556,0,0,1,0-1.113H631.169a.556.556,0,0,1,0,1.113Z" transform="translate(-228 -418.756)" fill="#ccc"/>
  <path id="Caminho_318" data-name="Caminho 318" d="M330.6,371.056h-6.36l-3.025-24.53H330.6Z" transform="translate(-147.017 -153.756)" fill="#ffb8b8"/>
  <path id="Caminho_319" data-name="Caminho 319" d="M312.322,387.355h12.265v7.722H304.6a7.722,7.722,0,0,1,7.723-7.722Z" transform="translate(-139.528 -171.873)" fill="#2f2e41"/>
  <path id="Caminho_320" data-name="Caminho 320" d="M213.8,371.056h-6.36l-3.025-24.53H213.8Z" transform="translate(-93.561 -153.756)" fill="#ffb8b8"/>
  <path id="Caminho_321" data-name="Caminho 321" d="M195.528,387.355h12.265v7.722H187.806a7.722,7.722,0,0,1,7.723-7.722Z" transform="translate(-86.028 -171.873)" fill="#2f2e41"/>
  <path id="Caminho_322" data-name="Caminho 322" d="M487.471,227.362V224.58a17.94,17.94,0,0,1,17.94-17.94h0a17.94,17.94,0,0,1,17.94,17.94v2.781A12.934,12.934,0,0,1,510.418,240.3H500.4a12.934,12.934,0,0,1-12.934-12.934Z" transform="translate(-347.013 -192.019)" fill="#2f2e41"/>
  <ellipse id="Elipse_13" data-name="Elipse 13" cx="13.663" cy="13.663" rx="13.663" ry="13.663" transform="translate(144.709 21.907)" fill="#ffb8b8"/>
  <path id="Caminho_323" data-name="Caminho 323" d="M634.488,376.475" transform="translate(-413.918 -267.377)" fill="#ffb8b8"/>
  <path id="Caminho_324" data-name="Caminho 324" d="M384.794,327.578a5.216,5.216,0,0,1,7.944.933l11.712-2.216,3.082,6.789-16.584,2.9a5.245,5.245,0,0,1-6.155-8.4Z" transform="translate(-299.084 -245.049)" fill="#ffb8b8"/>
  <path id="Caminho_325" data-name="Caminho 325" d="M458.445,283.782l.153.232-19.207,12.653-32.409,10.349a1.951,1.951,0,0,0-1.342,2.079l.707,6.09a1.947,1.947,0,0,0,2.342,1.679l30.5-6.538a11.02,11.02,0,0,0,4.1-1.805l21.577-15.352a5.549,5.549,0,0,0-6.272-9.154Z" transform="translate(-309.668 -225.944)" fill="#ccc"/>
  <path id="Caminho_326" data-name="Caminho 326" d="M499.058,464.394a2.514,2.514,0,0,1-2.3-1.5L467.6,390.851a.834.834,0,0,0-1.562.088l-23.786,70.133a2.5,2.5,0,0,1-3.272,1.608l-7.976-2.991a2.5,2.5,0,0,1-1.612-2.061c-3.588-31.259,27.7-110.162,28.02-110.956l.088-.22,28.525,6.31.059.065c11.38,12.415,20.735,90.721,22.495,106.293a2.491,2.491,0,0,1-1.653,2.641l-7.041,2.49a2.483,2.483,0,0,1-.828.143Z" transform="translate(-320.635 -254.056)" fill="#2f2e41"/>
  <path id="Caminho_327" data-name="Caminho 327" d="M496.525,323.085c-6.911,0-14.616-1.378-16.988-7.065l-.055-.131.074-.121c1.872-3.072,4.346-8.311,3.016-9.295-2.62-1.937-3.891-5.123-3.778-9.471a22.819,22.819,0,0,1,16-20.851h0a71,71,0,0,1,7.934-2.043,13.506,13.506,0,0,1,11.2,2.766,13.644,13.644,0,0,1,5.06,10.5c.1,10.086-1.455,24.134-9.408,33.778a2.474,2.474,0,0,1-1.465.852A67.987,67.987,0,0,1,496.525,323.085Z" transform="translate(-343.074 -221.837)" fill="#ccc"/>
  <path id="Caminho_328" data-name="Caminho 328" d="M505.892,352.51a5.316,5.316,0,0,1,6.5-3.707,5.243,5.243,0,0,1,.805.3l8.893-8.093,6.185,4.167-12.718,11.254a5.307,5.307,0,0,1-6.015,2.552,5.226,5.226,0,0,1-3.647-6.47Z" transform="translate(-355.229 -251.639)" fill="#ffb8b8"/>
  <path id="Caminho_329" data-name="Caminho 329" d="M527.839,327.022a2.5,2.5,0,0,1-1.583-.565l-3.507-2.866a2.5,2.5,0,0,1,.061-3.925l14.709-11.281a.836.836,0,0,0,.158-1.165l-9.079-12a7.39,7.39,0,0,1,.494-9.521h0a7.37,7.37,0,0,1,9.951-.8l.057.061,9.48,13.575a8.451,8.451,0,0,1-.2,13.454l-19.051,14.541A2.507,2.507,0,0,1,527.839,327.022Z" transform="translate(-362.705 -226.049)" fill="#ccc"/>
  <path id="Caminho_330" data-name="Caminho 330" d="M497.965,227.768v-6.779l12.1-5.285,11.54,5.285v6.779a1.113,1.113,0,0,1-1.113,1.113H499.078a1.113,1.113,0,0,1-1.113-1.113Z" transform="translate(-351.699 -196.041)" fill="#2f2e41"/>
  <path id="Caminho_331" data-name="Caminho 331" d="M518.365,195.878c-1.78-5.7,1.958-12.223,7.483-14.477s12.135-.679,16.8,3.046,7.554,9.3,9.087,15.071,1.824,11.78,2.106,17.741c6.788,1.247,11.405,9.3,9.054,15.787s-11.055,9.712-17.066,6.321-7.752-12.508-3.414-17.876a14.671,14.671,0,0,0-17.071-22.758C522,200.131,517.8,196.5,518.365,195.878Z" transform="translate(-361.092 -180.357)" fill="#2f2e41"/>
  <path id="Caminho_332" data-name="Caminho 332" d="M361.647,257.348a58.1,58.1,0,0,1-23.558-5.16,2.488,2.488,0,0,1-1.475-2.283V229.646a2.506,2.506,0,0,1,2.5-2.5h45.06a2.506,2.506,0,0,1,2.5,2.5v20.259a2.488,2.488,0,0,1-1.475,2.283h0A58.1,58.1,0,0,1,361.647,257.348Z" transform="translate(-276.193 -201.117)" fill="#e8c82a"/>
  <path id="Caminho_333" data-name="Caminho 333" d="M351.106,225.108a2.506,2.506,0,0,1-.973-.2L314.4,209.837a2.5,2.5,0,0,1,.085-4.647l35.732-13.556a2.494,2.494,0,0,1,1.786,0l35.253,13.556a2.5,2.5,0,0,1,.086,4.638l-35.254,15.075A2.507,2.507,0,0,1,351.106,225.108Z" transform="translate(-265.658 -185.289)" fill="#e8c82a"/>
  <ellipse id="Elipse_14" data-name="Elipse 14" cx="3.338" cy="3.338" rx="3.338" ry="3.338" transform="translate(61.255 45.775)" fill="#3f3d56"/>
  <path id="Caminho_334" data-name="Caminho 334" d="M387.872,219.889l-35.254,15.075a2.225,2.225,0,0,1-1.74,0l-35.732-15.075a2.183,2.183,0,0,1-1.064-.935,2.223,2.223,0,0,0,1.064,3.16l35.732,15.075a2.225,2.225,0,0,0,1.74,0l35.254-15.075a2.224,2.224,0,0,0,1.054-3.156,2.184,2.184,0,0,1-1.054.931Z" transform="translate(-266.064 -197.485)" opacity="0.2"/>
  <path id="Caminho_335" data-name="Caminho 335" d="M344.174,247.11a.556.556,0,0,0,.556-.556V227.939l18.347-6.684a.556.556,0,0,0,.017-1.113l-18.347,6.684a1.091,1.091,0,0,0-.8.32,1.1,1.1,0,0,0-.332.793v18.614A.556.556,0,0,0,344.174,247.11Z" transform="translate(-280.961 -198.011)" fill="#3f3d56"/>
</svg>
