<svg id="img-pos-graduacao-e-exstensao" xmlns="http://www.w3.org/2000/svg" xmlns:xlink="http://www.w3.org/1999/xlink" width="377.357" height="300" viewBox="0 0 377.357 300">
  <defs>
    <linearGradient id="linear-gradient" x1="0.5" y1="1" x2="0.5" gradientUnits="objectBoundingBox">
      <stop offset="0" stop-color="gray" stop-opacity="0.251"/>
      <stop offset="0.54" stop-color="gray" stop-opacity="0.122"/>
      <stop offset="1" stop-color="gray" stop-opacity="0.102"/>
    </linearGradient>
  </defs>
  <path id="Caminho_159" data-name="Caminho 159" d="M318.283,110.538c-23.877-.83-46.622-8.537-68.337-16.971S206.723,75.788,183.417,71.32c-14.99-2.874-32.134-3.28-44.209,4.756-11.625,7.748-15.381,21.084-17.4,33.473-1.52,9.319-2.413,19.125,1.752,27.851,2.889,6.058,8.021,11.149,11.566,16.971,12.348,20.188,3.623,45.083-9.758,64.8-6.272,9.249-13.558,18.078-18.4,27.913s-7.083,21.121-2.848,31.164c4.2,9.961,14.211,17.428,25.05,22.685,22.021,10.681,47.961,13.735,73.273,15.466,56.015,3.833,112.324,2.173,168.487.513,20.786-.616,41.66-1.24,62.106-4.453,11.356-1.786,23.077-4.615,31.322-11.455,10.463-8.681,13.056-23.383,6.047-34.266-11.765-18.258-44.272-22.792-52.506-42.39-4.523-10.784.125-22.8,6.7-32.8,14.108-21.457,37.753-40.283,39-64.81.856-16.849-10.515-33.716-28.09-41.689-18.421-8.386-43.973-7.323-57.557,6.508C363.957,105.8,339.364,111.268,318.283,110.538Z" transform="translate(-96.977 -59.842)" fill="#e8c82a" opacity="0.1"/>
  <path id="Caminho_160" data-name="Caminho 160" d="M197.985,505.962l-126.277-.616L59.16,475.917l44.368-3.221-7.733-32.267,87.754-11.374L99.517,399.843l7.423-1.763,135.121,22.044-7.441,50.355-10.636,27.673Z" transform="translate(-37.334 -251.219)" fill="#e8c82a"/>
  <path id="Caminho_161" data-name="Caminho 161" d="M187,698.634s7.747-1.24,12.4,4.235c0,0-3.409,2.686-10.743-1.033Z" transform="translate(-150.69 -456.833)" fill="#e8c82a"/>
  <path id="Caminho_162" data-name="Caminho 162" d="M179.355,698.51s-4.944,6.084-2.509,12.857c0,0,4.029-1.612,4.468-9.825Z" transform="translate(-143.857 -456.831)" fill="#e8c82a"/>
  <path id="Caminho_163" data-name="Caminho 163" d="M172.76,668.035s3.1-5.685,15.5,2.273c0,0-1.653,3.822-7.128,3.512S174.206,671.03,172.76,668.035Z" transform="translate(-141.703 -436.357)" fill="#e8c82a"/>
  <path id="Caminho_164" data-name="Caminho 164" d="M158.524,670.279s-6.43-.738-7.054,13.982c0,0,4.077.845,6.973-3.811S160.151,673.183,158.524,670.279Z" transform="translate(-128.268 -439.011)" fill="#e8c82a"/>
  <path id="Caminho_165" data-name="Caminho 165" d="M160.44,629.134s3.616-10.02,16.735-2.892c0,0-3,9.194-15.392,6.3Z" transform="translate(-133.929 -409.609)" fill="#e8c82a"/>
  <path id="Caminho_166" data-name="Caminho 166" d="M149.52,589.776s6.818-10.123,18.9-.738c0,0-4.235,9.5-17.871,4.339Z" transform="translate(-127.037 -385.229)" fill="#e8c82a"/>
  <path id="Caminho_167" data-name="Caminho 167" d="M145.6,552.149s7.954-9.3,19.922,0c0,0-7.541,8.161-19.922,2.376Z" transform="translate(-124.564 -361.858)" fill="#e8c82a"/>
  <path id="Caminho_168" data-name="Caminho 168" d="M142.24,514.039s8.057-9.71,19.524-.517c0,0-9.09,8.574-19.524,2.789Z" transform="translate(-122.443 -337.594)" fill="#e8c82a"/>
  <path id="Caminho_169" data-name="Caminho 169" d="M144.2,476.442s8.485-12.5,19.214-4.029c0,0-9.09,10.743-19.214,6.4Z" transform="translate(-123.68 -312.29)" fill="#e8c82a"/>
  <path id="Caminho_170" data-name="Caminho 170" d="M149.52,438.369s8.987-12.4,19.42-2.892c0,0-10.64,10.743-19.42,5.165Z" transform="translate(-127.037 -288.576)" fill="#e8c82a"/>
  <path id="Caminho_171" data-name="Caminho 171" d="M156.845,400.8s10.64-11.651,19.922-7.01c0,0-11.086,12.374-20.387,10.1Z" transform="translate(-131.367 -263.843)" fill="#e8c82a"/>
  <path id="Caminho_172" data-name="Caminho 172" d="M166.231,363.757s12.278-14.27,19.42-9.5c0,0-9.046,11.068-20.291,12.175Z" transform="translate(-137.034 -238.965)" fill="#e8c82a"/>
  <path id="Caminho_173" data-name="Caminho 173" d="M179.8,327.659s10.747-11.651,18.6-8.758c0,0-9.194,12.086-20.04,12.4Z" transform="translate(-145.237 -216.979)" fill="#e8c82a"/>
  <path id="Caminho_174" data-name="Caminho 174" d="M194.557,291.528s11.88-11.156,17.045-9.194c0,0-8.574,12.4-17.561,11.673Z" transform="translate(-155.133 -194.048)" fill="#e8c82a"/>
  <path id="Caminho_175" data-name="Caminho 175" d="M208.32,253.479s10.227-13.329,15.809-12.3c0,0-6.2,11.883-15.809,13.65Z" transform="translate(-164.144 -168.189)" fill="#e8c82a"/>
  <path id="Caminho_176" data-name="Caminho 176" d="M221.663,212.623s9.039-10.216,13.923-10.194c0,0-7.135,13.65-14.3,13.525Z" transform="translate(-172.329 -143.769)" fill="#e8c82a"/>
  <path id="Caminho_177" data-name="Caminho 177" d="M228.681,164l8.733-21.28s.435,19.236-9.843,25.227Z" transform="translate(-176.292 -106.088)" fill="#e8c82a"/>
  <path id="Caminho_178" data-name="Caminho 178" d="M240.089,103.918s1.446-17.771.516-19.218c0,0,6.242,14.776-.576,27.068Z" transform="translate(-184.156 -69.473)" fill="#e8c82a"/>
  <path id="Caminho_179" data-name="Caminho 179" d="M134.006,635.878s-9.054-5.611-14.916,8.117c0,0,8.057,5.349,15.982-4.615Z" transform="translate(-107.834 -416.589)" fill="#e8c82a"/>
  <path id="Caminho_180" data-name="Caminho 180" d="M120.521,594.824s-11.1-5.065-16.491,9.268c0,0,8.578,5.9,17.5-5.645Z" transform="translate(-98.33 -390.849)" fill="#e8c82a"/>
  <path id="Caminho_181" data-name="Caminho 181" d="M110.122,554.459s-7.954-9.3-19.922,0c0,0,7.541,8.161,19.922,2.376Z" transform="translate(-89.602 -363.316)" fill="#e8c82a"/>
  <path id="Caminho_182" data-name="Caminho 182" d="M108.1,514.039s-8.057-9.71-19.524-.517c0,0,9.09,8.574,19.524,2.789Z" transform="translate(-88.58 -337.594)" fill="#e8c82a"/>
  <path id="Caminho_183" data-name="Caminho 183" d="M113.517,473.107s-5.652-14-17.937-7.98c0,0,6.641,12.414,17.436,10.3Z" transform="translate(-92.997 -308.601)" fill="#e8c82a"/>
  <path id="Caminho_184" data-name="Caminho 184" d="M120.528,433.2s-5.619-14.244-18.078-7.64c0,0,7.629,13.056,17.524,9.839Z" transform="translate(-97.333 -283.478)" fill="#e8c82a"/>
  <path id="Caminho_185" data-name="Caminho 185" d="M139.434,385.745s-2.214-15.617-12.544-17.015c0,0,2.191,16.469,11.153,19.83Z" transform="translate(-112.756 -248.716)" fill="#e8c82a"/>
  <path id="Caminho_186" data-name="Caminho 186" d="M152.344,348.452s-.863-18.815-9.4-19.472c0,0,.288,14.281,8.441,22.136Z" transform="translate(-122.885 -223.631)" fill="#e8c82a"/>
  <path id="Caminho_187" data-name="Caminho 187" d="M166.369,311.967s-2.546-15.646-10.7-17.557c0,0,1.011,15.152,9.891,21.4Z" transform="translate(-130.918 -201.815)" fill="#e8c82a"/>
  <path id="Caminho_188" data-name="Caminho 188" d="M188.182,276.024s-.085-16.3-5.065-18.694c0,0-3.088,14.757,3.623,20.774Z" transform="translate(-147.792 -178.415)" fill="#e8c82a"/>
  <path id="Caminho_189" data-name="Caminho 189" d="M198.986,241.357s-.7-16.783-5.855-19.147c0,0-1.764,13.281,5.084,20.247Z" transform="translate(-154.431 -156.252)" fill="#e8c82a"/>
  <path id="Caminho_190" data-name="Caminho 190" d="M215.844,204.863s-.029-13.65-3.711-16.853c0,0-3.66,14.953,1.789,19.6Z" transform="translate(-165.792 -134.669)" fill="#e8c82a"/>
  <path id="Caminho_191" data-name="Caminho 191" d="M220.941,159.719,217.359,137s-4.866,18.616,3.752,26.821Z" transform="translate(-168.985 -102.478)" fill="#e8c82a"/>
  <path id="Caminho_192" data-name="Caminho 192" d="M215.891,108.341S206.7,93.067,206.885,91.37c0,0,.978,16.008,12.544,23.98Z" transform="translate(-163.237 -73.683)" fill="#e8c82a"/>
  <path id="Caminho_193" data-name="Caminho 193" d="M212.663,85.029s-8.677-21.693-12.6-23.449c0,0,12.4,6.3,13.326,22.829Z" transform="translate(-158.932 -54.883)" fill="#e8c82a"/>
  <path id="Caminho_194" data-name="Caminho 194" d="M220.154,164.936l-.594-.181c7.323-23.881,9.149-39.107,5.147-42.925l.424-.45C229.377,125.409,227.654,140.468,220.154,164.936Z" transform="translate(-171.238 -92.621)" fill="#444053"/>
  <path id="Caminho_195" data-name="Caminho 195" d="M165.008,292.37l-.878-.314c.778-2.188,1.616-4.409,2.494-6.6,7.644-19.052,14.152-36.775,18.325-50.381l.764-.369c-4.18,13.632-10.574,32.034-18.225,51.112C166.613,287.969,165.779,290.179,165.008,292.37Z" transform="translate(-136.257 -164.14)" fill="#444053"/>
  <path id="Caminho_196" data-name="Caminho 196" d="M168.159,518.9c-.118-.129-11.987-13.5-20.262-36.314a134.356,134.356,0,0,1-7.995-41.608c-.568-17.757,3.158-37.583,9.541-55.594l.694.812c-14.329,40.424-8.637,75.063-1.085,95.922,8.187,22.612,19.922,35.831,20.037,35.963Z" transform="translate(-120.932 -259.224)" fill="#444053"/>
  <path id="Caminho_197" data-name="Caminho 197" d="M586.129,670.36s-8.364,10.208-1.723,25.641L517.63,724.962l-6.408,1.343-2.951-12.913,1.974-16.3V688.19Z" transform="translate(-353.434 -439.066)" fill="#d5d6db"/>
  <path id="Caminho_198" data-name="Caminho 198" d="M59.16,580.239l92.424-16.849L274.051,582.9l-76.066,27.386Z" transform="translate(-37.334 -355.541)" fill="#e8c82a"/>
  <path id="Caminho_199" data-name="Caminho 199" d="M59.16,580.239l92.424-16.849L274.051,582.9l-76.066,27.386Z" transform="translate(-37.334 -355.541)" fill="#e8c82a"/>
  <path id="Caminho_200" data-name="Caminho 200" d="M141.788,652.47s-8.644,16.377,1.317,31.5l137.057,29.7s-8.508-13.045.439-31.153Z" transform="translate(-119.962 -427.776)" fill="#e8c82a"/>
  <path id="Caminho_201" data-name="Caminho 201" d="M141.788,652.47s-8.644,16.377,1.317,31.5l137.057,29.7s-8.508-13.045.439-31.153Z" transform="translate(-119.962 -427.776)" opacity="0.1"/>
  <path id="Caminho_202" data-name="Caminho 202" d="M155.054,667.86s-4.94,11.983,0,19.738" transform="translate(-129.144 -437.488)" opacity="0.1"/>
  <path id="Caminho_203" data-name="Caminho 203" d="M288.367,762.51l76.516-32.65s4.28.922,1.513,4.058-76.553,31.728-76.553,31.728L151.31,732.811Z" transform="translate(-128.167 -476.615)" fill="#e8c82a"/>
  <path id="Caminho_204" data-name="Caminho 204" d="M288.367,762.51l76.516-32.65s4.28.922,1.513,4.058-76.553,31.728-76.553,31.728L151.31,732.811Z" transform="translate(-128.167 -476.615)" opacity="0.1"/>
  <path id="Caminho_205" data-name="Caminho 205" d="M500.2,742.86s-7.379,8.854,0,22.136" transform="translate(-346.272 -484.818)" opacity="0.1"/>
  <rect id="Retângulo_21" data-name="Retângulo 21" width="34.89" height="0.369" transform="translate(156.555 268.933) rotate(-18.45)" opacity="0.1"/>
  <rect id="Retângulo_22" data-name="Retângulo 22" width="42.512" height="0.369" transform="translate(156.543 271.903) rotate(-20.82)" opacity="0.1"/>
  <rect id="Retângulo_23" data-name="Retângulo 23" width="49.274" height="0.369" transform="translate(156.765 275.404) rotate(-22.26)" opacity="0.1"/>
  <rect id="Retângulo_24" data-name="Retângulo 24" width="56.719" height="0.369" transform="translate(157.297 278.492) rotate(-24.31)" opacity="0.1"/>
  <rect id="Retângulo_25" data-name="Retângulo 25" width="62.036" height="0.369" transform="matrix(0.916, -0.401, 0.401, 0.916, 157.707, 279.994)" opacity="0.1"/>
  <rect id="Retângulo_26" data-name="Retângulo 26" width="74.236" height="0.369" transform="translate(158.565 282.517) rotate(-23.36)" opacity="0.1"/>
  <path id="Caminho_206" data-name="Caminho 206" d="M152.23,590.59l64.932-13.65,39.557,7.563-53.207,17.155Z" transform="translate(-96.068 -364.092)" fill="#fff" opacity="0.3"/>
  <path id="Caminho_207" data-name="Caminho 207" d="M600.077,659.69s3.357,1.354,1.387,3.446S524,687.076,524,687.076Z" transform="translate(-363.361 -432.333)" fill="#e8c82a"/>
  <path id="Caminho_208" data-name="Caminho 208" d="M685.425,574.18s-8.36,10.2-1.719,25.641L616.93,628.782l-6.408,1.35-2.951-12.913,2-16.292V592.01Z" transform="translate(-416.099 -378.37)" fill="#d5d6db"/>
  <path id="Caminho_209" data-name="Caminho 209" d="M158.46,484.055l92.421-16.845,122.47,19.509L297.285,514.1Z" transform="translate(-99.999 -294.845)" fill="#3a3768"/>
  <path id="Caminho_210" data-name="Caminho 210" d="M241.044,556.29s-8.648,16.377,1.313,31.5l137.057,29.7s-8.5-13.056.454-31.156Z" transform="translate(-182.598 -367.08)" fill="#3a3768"/>
  <path id="Caminho_211" data-name="Caminho 211" d="M241.044,556.29s-8.648,16.377,1.313,31.5l137.057,29.7s-8.5-13.056.454-31.156l-43.342-9.382Z" transform="translate(-182.598 -367.08)" opacity="0.1"/>
  <path id="Caminho_212" data-name="Caminho 212" d="M254.347,571.68s-4.936,11.979,0,19.738" transform="translate(-191.806 -376.792)" opacity="0.1"/>
  <path id="Caminho_213" data-name="Caminho 213" d="M387.658,666.33l76.52-32.65s4.276.922,1.509,4.058-76.553,31.728-76.553,31.728L250.6,636.631Z" transform="translate(-190.826 -415.918)" fill="#3a3768"/>
  <path id="Caminho_214" data-name="Caminho 214" d="M387.658,666.33l76.52-32.65s4.276.922,1.509,4.058-76.553,31.728-76.553,31.728L250.6,636.631Z" transform="translate(-190.826 -415.918)" opacity="0.1"/>
  <path id="Caminho_215" data-name="Caminho 215" d="M599.49,646.68s-7.379,8.854,0,22.136" transform="translate(-408.931 -424.122)" opacity="0.1"/>
  <rect id="Retângulo_27" data-name="Retângulo 27" width="34.89" height="0.369" transform="translate(193.189 233.453) rotate(-18.45)" opacity="0.1"/>
  <rect id="Retângulo_28" data-name="Retângulo 28" width="42.512" height="0.369" transform="translate(193.182 236.422) rotate(-20.82)" opacity="0.1"/>
  <rect id="Retângulo_29" data-name="Retângulo 29" width="49.274" height="0.369" transform="translate(193.398 239.918) rotate(-22.26)" opacity="0.1"/>
  <rect id="Retângulo_30" data-name="Retângulo 30" width="56.719" height="0.369" transform="translate(193.934 243.006) rotate(-24.31)" opacity="0.1"/>
  <rect id="Retângulo_31" data-name="Retângulo 31" width="62.036" height="0.369" transform="matrix(0.916, -0.401, 0.401, 0.916, 194.339, 244.504)" opacity="0.1"/>
  <rect id="Retângulo_32" data-name="Retângulo 32" width="74.236" height="0.369" transform="translate(195.2 247.027) rotate(-23.36)" opacity="0.1"/>
  <path id="Caminho_216" data-name="Caminho 216" d="M251.53,494.41l64.932-13.65,39.557,7.563-53.207,17.155Z" transform="translate(-158.733 -303.396)" fill="#fff" opacity="0.45"/>
  <path id="Caminho_217" data-name="Caminho 217" d="M699.4,563.51s3.353,1.354,1.387,3.442-77.453,23.94-77.453,23.94Z" transform="translate(-426.045 -371.636)" fill="#3a3768"/>
  <path id="Caminho_218" data-name="Caminho 218" d="M694.844,464.15s-8.364,18.325-1.723,33.757l-66.776,20.845-6.394,1.354L617,507.193l1.974-16.3V481.98Z" transform="translate(-422.05 -308.933)" fill="#d5d6db"/>
  <path id="Caminho_219" data-name="Caminho 219" d="M167.89,374.029l92.424-16.849,122.47,19.509-76.07,27.386Z" transform="translate(-105.95 -225.408)" fill="#e8c82a"/>
  <path id="Caminho_220" data-name="Caminho 220" d="M250.5,446.26s-8.659,16.377,1.3,31.5l137.057,29.7s-8.508-13.056.45-31.152Z" transform="translate(-188.561 -297.643)" fill="#e8c82a"/>
  <path id="Caminho_221" data-name="Caminho 221" d="M250.5,446.26s-8.659,16.377,1.3,31.5l137.057,29.7s-8.508-13.056.45-31.152Z" transform="translate(-188.561 -297.643)" opacity="0.1"/>
  <path id="Caminho_222" data-name="Caminho 222" d="M263.784,461.65s-4.94,11.983,0,19.738" transform="translate(-197.761 -307.355)" opacity="0.1"/>
  <path id="Caminho_223" data-name="Caminho 223" d="M397.1,561.349l76.516-24.534s4.28.922,1.513,4.058-76.553,23.612-76.553,23.612L260.04,531.65Z" transform="translate(-196.783 -351.53)" fill="#e8c82a"/>
  <path id="Caminho_224" data-name="Caminho 224" d="M397.1,561.349l76.516-24.534s4.28.922,1.513,4.058-76.553,23.612-76.553,23.612L260.04,531.65Z" transform="translate(-196.783 -351.53)" opacity="0.1"/>
  <path id="Caminho_225" data-name="Caminho 225" d="M608.93,536.65s-7.379,8.854,0,22.136" transform="translate(-414.888 -354.686)" opacity="0.1"/>
  <rect id="Retângulo_33" data-name="Retângulo 33" width="34.89" height="0.369" transform="translate(196.673 192.859) rotate(-18.45)" opacity="0.1"/>
  <rect id="Retângulo_34" data-name="Retângulo 34" width="42.512" height="0.369" transform="translate(196.663 195.83) rotate(-20.82)" opacity="0.1"/>
  <rect id="Retângulo_35" data-name="Retângulo 35" width="49.274" height="0.369" transform="translate(196.876 199.328) rotate(-22.26)" opacity="0.1"/>
  <rect id="Retângulo_36" data-name="Retângulo 36" width="56.719" height="0.369" transform="translate(197.418 202.412) rotate(-24.31)" opacity="0.1"/>
  <rect id="Retângulo_37" data-name="Retângulo 37" width="62.036" height="0.369" transform="matrix(0.916, -0.401, 0.401, 0.916, 197.824, 203.913)" opacity="0.1"/>
  <rect id="Retângulo_38" data-name="Retângulo 38" width="74.236" height="0.369" transform="translate(198.683 206.439) rotate(-23.36)" opacity="0.1"/>
  <path id="Caminho_226" data-name="Caminho 226" d="M260.96,384.38l64.932-13.65,39.557,7.563-53.207,17.155Z" transform="translate(-164.684 -233.96)" fill="#fff" opacity="0.3"/>
  <path id="Caminho_227" data-name="Caminho 227" d="M708.826,453.48s3.357,1.354,1.387,3.446-77.453,23.94-77.453,23.94Z" transform="translate(-431.996 -302.2)" fill="#e8c82a"/>
  <path id="Caminho_228" data-name="Caminho 228" d="M377.594,149.889s-14.019-.845-12.381,8.991a2.4,2.4,0,0,0,1.247,2.527s.026-.738,1.439-.483a6.291,6.291,0,0,0,1.527.074,3.18,3.18,0,0,0,1.863-.767h0s3.944-1.631,5.479-8.08c0,0,1.136-1.406,1.107-1.767l-2.376,1.011a4.257,4.257,0,0,1,.173,3.129s-.077-3.066-.535-3c-.092,0-1.228.594-1.228.594s1.391,2.977.339,5.139c0,0,.4-3.667-.775-4.925l-1.668.974s1.627,3.073.524,5.582c0,0,.284-3.848-.874-5.346l-1.513,1.181s1.531,3.029.6,5.11c0,0-.122-4.479-.922-4.818a9.116,9.116,0,0,0-1.524,1.645s1.048,2.214.395,3.361c0,0-.395-2.985-.738-3a9.931,9.931,0,0,0-1.454,3.32,7.179,7.179,0,0,1,1.133-3.52,3.951,3.951,0,0,0-2.014,1.044s.2-1.4,2.343-1.52a9.068,9.068,0,0,1,1.38-1.59,8.636,8.636,0,0,0-3.416.391s1.136-1.317,3.8-.738L371,153.195a12.73,12.73,0,0,0-3.984.041s1.369-1.166,4.387-.317l1.627-.97a14.783,14.783,0,0,0-3.807-.328s1.5-.808,4.283.066l1.158-.52s-1.745-.343-2.258-.4-.539-.2-.539-.2a6.091,6.091,0,0,1,3.283.369A14.645,14.645,0,0,0,377.594,149.889Z" transform="translate(-263.07 -110.601)" fill="#e8c82a"/>
  <path id="Caminho_229" data-name="Caminho 229" d="M912.194,259.469s-14.019-.845-12.381,8.991a2.4,2.4,0,0,0,1.247,2.527s.026-.738,1.439-.483a6.5,6.5,0,0,0,1.527.074,3.169,3.169,0,0,0,1.845-.767h0s3.948-1.631,5.479-8.08c0,0,1.136-1.406,1.107-1.767l-2.369,1.011a4.256,4.256,0,0,1,.173,3.129s-.077-3.066-.531-3c-.092,0-1.232.594-1.232.594s1.391,2.977.343,5.139c0,0,.4-3.667-.779-4.925l-1.668.974s1.627,3.073.524,5.582c0,0,.284-3.848-.874-5.346l-1.509,1.181s1.527,3.029.594,5.11c0,0-.122-4.479-.922-4.818a9.254,9.254,0,0,0-1.524,1.645s1.048,2.214.4,3.361c0,0-.4-2.985-.738-3a9.932,9.932,0,0,0-1.454,3.32,7.157,7.157,0,0,1,1.136-3.52,3.97,3.97,0,0,0-2.018,1.044s.207-1.4,2.343-1.52a9.211,9.211,0,0,1,1.38-1.594,8.673,8.673,0,0,0-3.416.395s1.136-1.317,3.8-.738l1.476-1.217a12.731,12.731,0,0,0-3.984.041s1.365-1.166,4.387-.317l1.623-.97a14.783,14.783,0,0,0-3.807-.328s1.5-.808,4.283.066l1.162-.52s-1.749-.343-2.262-.4-.539-.2-.539-.2a6.047,6.047,0,0,1,3.283.369A14.888,14.888,0,0,0,912.194,259.469Z" transform="translate(-600.441 -179.753)" fill="#e8c82a" opacity="0.1"/>
  <path id="Caminho_230" data-name="Caminho 230" d="M436.509,300.675s-6.109-12.665-13.887-6.423a2.4,2.4,0,0,0-1.6,2.321s.646-.336,1.107,1.022a6.538,6.538,0,0,0,.679,1.365,3.184,3.184,0,0,0,1.583,1.254h0s3.346,2.649,9.725.841a6.311,6.311,0,0,0,2.073.092l-2.036-1.575a4.282,4.282,0,0,1-2.649,1.675s2.642-1.561,2.357-1.922c-.059-.074-1.107-.786-1.107-.786s-1.922,2.667-4.32,2.8c0,0,3.394-1.439,3.918-3.081l-1.66-.981s-1.893,2.922-4.619,3.18c0,0,3.5-1.627,4.239-3.368l-1.764-.738s-1.9,2.811-4.173,3.014c0,0,3.852-2.291,3.756-3.158a9.35,9.35,0,0,0-2.18-.528s-1.409,1.989-2.737,1.989c0,0,2.409-1.8,2.262-2.1a9.732,9.732,0,0,0-3.615.369,7.183,7.183,0,0,1,3.627-.738,3.974,3.974,0,0,0-1.9-1.251s1.321-.5,2.468,1.3a9.1,9.1,0,0,1,2.062.428,8.661,8.661,0,0,0-2.007-2.785s1.7.343,2.483,2.951l1.789.708a12.306,12.306,0,0,0-1.977-3.457s1.682.624,2.417,3.689l1.638.944a14.6,14.6,0,0,0-1.568-3.483s1.435.915,2.029,3.77l1.022.76s-.553-1.693-.738-2.166-.092-.568-.092-.568A6.054,6.054,0,0,1,434.4,299.1,13.76,13.76,0,0,0,436.509,300.675Z" transform="translate(-298.374 -200.624)" fill="#e8c82a" opacity="0.1"/>
  <path id="Caminho_231" data-name="Caminho 231" d="M820.289,197.055s-6.106-12.665-13.886-6.423a2.4,2.4,0,0,0-1.6,2.321s.649-.332,1.107,1.022a6.4,6.4,0,0,0,.683,1.369,3.165,3.165,0,0,0,1.579,1.251h0s3.35,2.649,9.725.845a6.34,6.34,0,0,0,2.077.089l-2.025-1.579a4.28,4.28,0,0,1-2.645,1.679s2.638-1.564,2.354-1.926c-.059-.074-1.107-.786-1.107-.786s-1.918,2.667-4.32,2.8c0,0,3.4-1.439,3.922-3.077l-1.686-.974s-1.889,2.918-4.619,3.18c0,0,3.5-1.631,4.243-3.372l-1.767-.738s-1.9,2.815-4.169,3.014c0,0,3.848-2.291,3.752-3.154a9.126,9.126,0,0,0-2.177-.528s-1.409,1.985-2.741,1.985c0,0,2.413-1.8,2.265-2.1a9.756,9.756,0,0,0-3.619.369,7.18,7.18,0,0,1,3.627-.738,3.951,3.951,0,0,0-1.893-1.251s1.321-.5,2.468,1.3a9.133,9.133,0,0,1,2.062.432,8.632,8.632,0,0,0-2.011-2.789s1.7.347,2.483,2.97l1.793.708a12.311,12.311,0,0,0-1.977-3.461s1.682.624,2.413,3.689l1.642.944a14.73,14.73,0,0,0-1.572-3.483s1.439.915,2.029,3.77l1.022.76s-.55-1.693-.738-2.166-.092-.564-.092-.564a6.069,6.069,0,0,1,1.28,3.044A14.169,14.169,0,0,0,820.289,197.055Z" transform="translate(-540.567 -135.233)" fill="#e8c82a" opacity="0.1"/>
  <path id="Caminho_232" data-name="Caminho 232" d="M873.161,366.859s-6.106-12.669-13.9-6.427a2.4,2.4,0,0,0-1.6,2.321s.649-.332,1.107,1.022a6.392,6.392,0,0,0,.679,1.369,3.166,3.166,0,0,0,1.579,1.251h0s3.35,2.653,9.729.845c0,0,1.778.306,2.073.089l-2.037-1.575a4.281,4.281,0,0,1-2.649,1.679s2.638-1.564,2.354-1.926c-.059-.074-1.107-.786-1.107-.786s-1.918,2.667-4.32,2.808c0,0,3.4-1.443,3.922-3.081l-1.664-.981s-1.889,2.922-4.619,3.18c0,0,3.5-1.631,4.243-3.372l-1.767-.738s-1.9,2.811-4.169,3.014c0,0,3.852-2.291,3.756-3.158a9.166,9.166,0,0,0-2.18-.528s-1.409,1.985-2.741,1.985c0,0,2.413-1.8,2.265-2.1a9.754,9.754,0,0,0-3.619.369,7.2,7.2,0,0,1,3.63-.738,3.944,3.944,0,0,0-1.9-1.251s1.321-.505,2.468,1.3a9.1,9.1,0,0,1,2.062.428,8.7,8.7,0,0,0-2.007-2.789s1.7.347,2.483,2.97l1.789.708a12.254,12.254,0,0,0-1.977-3.457s1.682.62,2.413,3.689l1.642.941a14.733,14.733,0,0,0-1.572-3.483s1.439.915,2.033,3.774l1.022.738s-.553-1.693-.738-2.166-.092-.564-.092-.564a6.032,6.032,0,0,1,1.28,3.044A14.936,14.936,0,0,0,873.161,366.859Z" transform="translate(-573.925 -242.389)" fill="#e8c82a" opacity="0.1"/>
  <ellipse id="Elipse_2" data-name="Elipse 2" cx="8.482" cy="0.948" rx="8.482" ry="0.948" transform="translate(66.024 287.401)" fill="#e8c82a" opacity="0.1"/>
  <ellipse id="Elipse_3" data-name="Elipse 3" cx="8.482" cy="0.948" rx="8.482" ry="0.948" transform="translate(10.422 271.286)" fill="#e8c82a" opacity="0.1"/>
  <ellipse id="Elipse_4" data-name="Elipse 4" cx="8.482" cy="0.948" rx="8.482" ry="0.948" transform="translate(108.406 298.104)" fill="#e8c82a" opacity="0.1"/>
  <ellipse id="Elipse_5" data-name="Elipse 5" cx="8.482" cy="0.948" rx="8.482" ry="0.948" transform="translate(325.595 274.791)" fill="#e8c82a" opacity="0.1"/>
  <ellipse id="Elipse_6" data-name="Elipse 6" cx="8.482" cy="0.948" rx="8.482" ry="0.948" transform="translate(255.015 270.19)" fill="#e8c82a" opacity="0.1"/>
  <ellipse id="Elipse_7" data-name="Elipse 7" cx="10.031" cy="1.723" rx="10.031" ry="1.723" transform="translate(207.807 291.079)" fill="#e8c82a" opacity="0.1"/>
  <path id="Caminho_233" data-name="Caminho 233" d="M676.081,790.14s-13.968,7.216-6.751,15.716a2.7,2.7,0,0,0,2.641,1.716s-.391-.716,1.107-1.288a7.2,7.2,0,0,0,1.509-.8,3.546,3.546,0,0,0,1.35-1.8h0s2.855-3.822.642-10.894a7.009,7.009,0,0,0,.037-2.324l-1.7,2.328a4.752,4.752,0,0,1,1.955,2.907s-1.845-2.9-2.214-2.583c-.081.066-.841,1.273-.841,1.273s3.04,2.062,3.265,4.741c0,0-1.712-3.752-3.56-4.287l-1.059,1.889s3.32,2.022,3.689,5.062c0,0-1.93-3.855-3.9-4.634l-.779,2s3.2,2.037,3.5,4.567c0,0-2.678-4.232-3.641-4.1a10.229,10.229,0,0,0-.524,2.453s2.261,1.513,2.3,3c0,0-2.088-2.638-2.409-2.464a11.119,11.119,0,0,0,.509,4.032,7.96,7.96,0,0,1-.926-4.032,4.427,4.427,0,0,0-1.339,2.155s-.6-1.457,1.38-2.8a10.2,10.2,0,0,1,.417-2.317,9.725,9.725,0,0,0-3.055,2.332s.336-1.915,3.243-2.867l.738-2.022s-2.907,1.232-3.8,2.317c0,0,.646-1.9,4.032-2.811l1-1.845a16.942,16.942,0,0,0-3.844,1.845s.978-1.634,4.154-2.387l.815-1.162s-1.874.668-2.4.908-.627.122-.627.122a6.784,6.784,0,0,1,3.361-1.527A16.438,16.438,0,0,0,676.081,790.14Z" transform="translate(-453.767 -514.656)" fill="#e8c82a"/>
  <path id="Caminho_234" data-name="Caminho 234" d="M589.5,182.618c-2.413-6.556-15.694-7.172-21.457-5.5-4.1,1.192-12.728,2.535-17.34,3.21l-.3-.284c.6-.177.612-.612.539-1.258a19.678,19.678,0,0,1,.037-2.553c2.826.878,5.342-1.2,5.342-1.2h0c3.32-1.476,2.428-7.792,3.062-9.518.476-1.291.989-8.9,1.217-12.691h.048l.026-1.273c.033-.55.048-.871.048-.871s.325-9.275.959-11.153c.59-1.727,1.07-10.426,1.144-11.806v-.181l-.048-.8c.033-.587.048-1.24.044-1.926,0-3.154-.328-7.128-.369-7.77v-.336c.026-1.347-.144-8.091-5.881-10.64-2.114-.944-4.656-2.07-7.117-3.165-.635-5.479-2.084-10.928-1.959-16.447,0-.83.074-1.66.155-2.487,0,.24-.026.483-.03.738v1.609c.218-6.9,2.826-13.842,2.582-20.6-.022.66-.07,1.324-.133,1.989a21.443,21.443,0,0,0-.708-6.785,4.014,4.014,0,0,0-1.158-2.1,4.77,4.77,0,0,0-2.022-.8,40.656,40.656,0,0,0-5.309-.989,8.2,8.2,0,0,0-1.2-2.321c-3.741-5.136-9.282-9.961-15.835-11.068-3.287-.553-7.069-.092-9.3,2.258a6.986,6.986,0,0,0-.657.664c-1.2,1.435-1.719,3.32-2.952,4.752-.081.1-.173.184-.262.277-2.413,2.158-6.172,2.608-8.854,4.545a10.627,10.627,0,0,0-1.324,1.155,22.456,22.456,0,0,0-2.892,3.516,14.584,14.584,0,0,0-2.83,5.49c-.771,4.058,1.992,7.906,2.505,11.99,1.144,9.138-8.969,17.247-7.054,26.264a12.026,12.026,0,0,0,3.254,5.84c-3.944,3.571-7.3,7.035-7.3,7.035v.207h-.624l.063.738h-.063l.343,4-.343,5.829v.55h.022c.114,2.136.568,9.817,1.107,11.437.635,1.878.956,11.153.956,11.153s.7,13.108,1.343,14.842-.269,8.032,3.062,9.518h0a7.01,7.01,0,0,0,3.346,1.387c-.17,1.38-.063,2.38.487,2.693a1.608,1.608,0,0,0,.775.221,8.21,8.21,0,0,0-.6,1.051,15.628,15.628,0,0,1-3.866-.911c-3.579-1.476-15.454-4.8-18.9-2.461s-11.75,4.453-7.917,13.853,5.619,9.636,5.619,9.636a13.65,13.65,0,0,1,3.066,3.081c1.151,1.73,11.876,5.689,14.558,5.689a26.264,26.264,0,0,1,3.413.17s-2.911,2.553-2.523,4.036S488.6,227.5,488.6,227.5s2.951,2.974,4.213-.926l.044.059c.236.321,1.513,1.771,3.914-.059A21.941,21.941,0,0,1,499.9,224.6l11.629-1.645a32.913,32.913,0,0,1,3.641-.026,7.61,7.61,0,0,0,4.8-1.786c2.409.915,5.117,1.915,6.4,2.28,2.612.738,14.617,3.959,17.425,2.951A3.9,3.9,0,0,0,545.3,225.3l2.678.085-1.254.251s2.442.041,5.763.085l-.14.081,4.165-.037c6.095.055,12.942.074,13.842-.129,1.409-.314,8.733-.092,10.891,0h.6s8.046-1.6,4.726-9.769c-2.553-6.272-10.4-8.094-13.883-8.6.981-.2,1.826-.347,2.387-.435,2.431-.369,7.154-2.583,7.537-3.339s4.342-2.951,5.364-4.2S591.922,189.174,589.5,182.618Zm-66.647,18.347-.395.129-.266.089-.509.5c-.406-.273-.841-.561-1.295-.856C521.188,200.877,522.01,200.925,522.851,200.965Zm35.163,10.4Z" transform="translate(-325.728 -43.428)" fill="url(#linear-gradient)"/>
  <path id="Caminho_235" data-name="Caminho 235" d="M686.65,287.17s5.645,14.757,8.854,13.281,2.339-7.748,2.952-9.467,1.291-14.757,1.291-14.757.31-9.223.922-11.09c.568-1.716,1.029-10.367,1.107-11.728v-.181l-.609-10.7-3.446-.86-7.991,2.951-1.107,6.32-.432,2.468-.184,1.051Z" transform="translate(-466.004 -168.532)" fill="#be6f72"/>
  <path id="Caminho_236" data-name="Caminho 236" d="M691.69,358.3s5.386,4.409,7.01,4.8,2.619,3.826,2.619,3.826" transform="translate(-469.185 -242.134)" opacity="0.1"/>
  <path id="Caminho_237" data-name="Caminho 237" d="M541.126,288.92s-5.645,14.757-8.854,13.281-2.339-7.747-2.951-9.467-1.291-14.757-1.291-14.757-.31-9.223-.922-11.09c-.568-1.716-1.029-10.367-1.107-11.728v-.181l.612-10.7,3.446-.86,7.991,2.951,1.107,6.32.432,2.468.184,1.051Z" transform="translate(-364.623 -169.637)" fill="#be6f72"/>
  <rect id="Retângulo_39" data-name="Retângulo 39" width="12.599" height="19.638" transform="translate(200.661 40.31)" fill="#3e373a"/>
  <rect id="Retângulo_40" data-name="Retângulo 40" width="12.599" height="19.638" transform="translate(200.661 40.31)" opacity="0.1"/>
  <path id="Caminho_238" data-name="Caminho 238" d="M555.76,404.582s-4.305,4.733-2.708,5.593,11.931,16.971,11.931,16.971,33.942,4.18,40.342-2.092,6.272-17.476,6.272-17.476-5.143,1.107-5.7.505-3.641-3.5-3.641-3.5S558.711,401.94,555.76,404.582Z" transform="translate(-381.47 -270.6)" fill="#4b4b5b"/>
  <path id="Caminho_239" data-name="Caminho 239" d="M555.76,404.582s-4.305,4.733-2.708,5.593,11.931,16.971,11.931,16.971,33.942,4.18,40.342-2.092,6.272-17.476,6.272-17.476-5.143,1.107-5.7.505-3.641-3.5-3.641-3.5S558.711,401.94,555.76,404.582Z" transform="translate(-381.47 -270.6)" opacity="0.02"/>
  <path id="Caminho_240" data-name="Caminho 240" d="M601.062,186.337l-11.068,8.854-3.346.243-1.229.089-20.634,1.513-21.4-1.564-3.184-.232-4.058-.3-8.485-8.116a145.329,145.329,0,0,1,11.267-10.776,23.116,23.116,0,0,1,5.46-3.649l.244-.085a6.073,6.073,0,0,0,2.339-1.631c4.154-4.283,7.995-14.853,7.995-14.853s18.325-9.467,16.111,2.951,8.238,9.349,8.238,9.349l3.446,1.572,1.361.624,3.472,1.59,7.832,3.593C601.571,178.343,601.062,186.337,601.062,186.337Z" transform="translate(-365.67 -112.185)" fill="#be6f72"/>
  <ellipse id="Elipse_8" data-name="Elipse 8" cx="16.48" cy="16.48" rx="16.48" ry="16.48" transform="translate(181.775 20.801)" opacity="0.1"/>
  <path id="Caminho_241" data-name="Caminho 241" d="M600.041,232.141H526v-.181l.612-10.7a145.314,145.314,0,0,1,11.267-10.776l46.485-1.845,2.162-2.28,7.832,3.593c6.15,2.826,5.656,10.821,5.656,10.821S600.856,230.038,600.041,232.141Z" transform="translate(-364.623 -146.249)" opacity="0.1"/>
  <path id="Caminho_242" data-name="Caminho 242" d="M600.041,231.141H526v-.181l.612-10.7a145.308,145.308,0,0,1,11.267-10.776l46.485-1.845,2.162-2.28,7.832,3.593c6.15,2.826,5.656,10.821,5.656,10.821S600.856,229.038,600.041,231.141Z" transform="translate(-364.623 -145.618)" fill="#e7c7ca"/>
  <path id="Caminho_243" data-name="Caminho 243" d="M585.9,188.406s11.68,14.883,27.238-.306,1.723,33.879,1.723,33.879l-33.573,3.984Z" transform="translate(-399.515 -132.885)" opacity="0.1"/>
  <path id="Caminho_244" data-name="Caminho 244" d="M585.9,190.406s11.68,14.883,27.238-.306,1.723,33.879,1.723,33.879l-33.573,3.984Z" transform="translate(-399.515 -134.147)" fill="#e7c7ca"/>
  <path id="Caminho_245" data-name="Caminho 245" d="M599.171,201.959l1.236,18.849,1.324,6.272,1.011,4.8s2.583,36.893,1.845,38.738.369,3.32.524,4.3-.155,3.446-.033,4.553,0,1.6-2.826,1.2-6.766-1.081-6.766-1.081-9.961.738-13.4-.491-9.961-1.232-9.961-1.232-9.839.247-13.034-.122-4.922,3.936-7.01,2.7,2.457-13.156,3.933-16.6-1.966-12.175-1.966-12.175l4.427-24.56.985-5.567v-17.5l.244-.085a6.073,6.073,0,0,0,2.339-1.631l1.107,17.613,34.68,1.232V201.35" transform="translate(-380.739 -143.088)" opacity="0.1"/>
  <path id="Caminho_246" data-name="Caminho 246" d="M599.171,199.959l1.236,18.849,1.324,6.272,1.011,4.8s2.583,36.893,1.845,38.738.369,3.32.524,4.3-.155,3.446-.033,4.553,0,1.6-2.826,1.2-6.766-1.081-6.766-1.081-9.961.738-13.4-.491-9.961-1.232-9.961-1.232-9.839.247-13.034-.122-4.922,3.936-7.01,2.7,2.457-13.156,3.933-16.6-1.966-12.175-1.966-12.175l4.427-24.56.985-5.567v-17.5l.244-.085a6.073,6.073,0,0,0,2.339-1.631l1.107,17.613,34.68,1.232V199.35" transform="translate(-380.739 -141.826)" fill="#e7c7ca"/>
  <path id="Caminho_247" data-name="Caminho 247" d="M594.332,64.644a4.065,4.065,0,0,0-1.107-2.088,4.53,4.53,0,0,0-1.948-.8,38.487,38.487,0,0,0-5.121-.981,8.2,8.2,0,0,0-1.107-2.3c-3.615-5.106-8.965-9.921-15.259-11.009-3.295-.572-7.113-.059-9.223,2.538-1.158,1.428-1.656,3.32-2.826,4.722-2.254,2.723-6.323,3.058-9.164,5.165a16.978,16.978,0,0,0-3.689,4.269,14.642,14.642,0,0,0-2.726,5.456c-.738,4.025,1.922,7.862,2.413,11.924,1.107,9.087-8.633,17.148-6.792,26.113,1.074,5.228,5.9,8.91,10.9,10.776,1.76.66,3.77,1.317,4.593,3.007.369.738.432,1.59.778,2.335,1.166,2.487,5,2.583,7.058.771s2.708-4.741,2.951-7.475c.989-11.939-3.793-23.733-3.236-35.7.166-3.619,1.184-7.725,4.427-9.363,4.364-2.214,9.614,1.476,14.418.771a28.6,28.6,0,0,1,1.38,17.454c-.764,3.184-2.084,6.272-2.18,9.555-.144,5,2.553,9.566,4.885,13.986a7.442,7.442,0,0,1,.985,2.7,6.5,6.5,0,0,1-.527,2.822c-1.317,3.545-3.59,6.836-3.848,10.61a1.716,1.716,0,0,0,.277,1.262,1.587,1.587,0,0,0,.952.428c3.984.683,7.43-2.848,9.375-6.394a29.973,29.973,0,0,0,3.7-12.735c.4-7.511-2.291-14.9-2.125-22.42C592.731,81.5,596.594,72.889,594.332,64.644Z" transform="translate(-371.912 -45.846)" opacity="0.1"/>
  <path id="Caminho_248" data-name="Caminho 248" d="M595.332,63.644a4.065,4.065,0,0,0-1.107-2.088,4.53,4.53,0,0,0-1.948-.8,38.488,38.488,0,0,0-5.121-.981,8.2,8.2,0,0,0-1.107-2.3c-3.616-5.106-8.965-9.921-15.259-11.009-3.294-.572-7.113-.059-9.223,2.538-1.158,1.428-1.657,3.32-2.826,4.722-2.254,2.723-6.323,3.058-9.164,5.165a16.979,16.979,0,0,0-3.689,4.269,14.641,14.641,0,0,0-2.726,5.456c-.738,4.025,1.922,7.862,2.413,11.924,1.107,9.087-8.633,17.148-6.792,26.113,1.074,5.228,5.9,8.91,10.9,10.776,1.76.66,3.771,1.317,4.593,3.007.369.738.432,1.59.778,2.335,1.166,2.487,5,2.583,7.058.771s2.708-4.741,2.951-7.475c.989-11.939-3.793-23.733-3.236-35.7.166-3.619,1.184-7.725,4.427-9.363,4.364-2.214,9.614,1.476,14.418.771a28.6,28.6,0,0,1,1.38,17.454c-.764,3.184-2.084,6.272-2.18,9.555-.144,5,2.553,9.566,4.885,13.986a7.442,7.442,0,0,1,.985,2.7,6.5,6.5,0,0,1-.527,2.822c-1.317,3.545-3.59,6.836-3.848,10.61a1.716,1.716,0,0,0,.277,1.262,1.587,1.587,0,0,0,.952.428c3.984.683,7.43-2.848,9.375-6.394a29.972,29.972,0,0,0,3.7-12.735c.4-7.511-2.291-14.9-2.125-22.42C593.731,80.5,597.594,71.889,595.332,63.644Z" transform="translate(-372.543 -45.215)" fill="#3e373a"/>
  <path id="Caminho_249" data-name="Caminho 249" d="M581.79,474.965l14.635.468-2.1-10.854-11.212,1.066Z" transform="translate(-367.15 -293.185)" fill="#c3c7d9"/>
  <path id="Caminho_250" data-name="Caminho 250" d="M676.965,427.3c-.985,1.229-4.8,3.442-5.165,4.18s-4.918,2.951-7.257,3.32-9.714,1.97-11.068,2.83c-.97.62-8.758,2.583-13.875,3.671a39.386,39.386,0,0,1-4.2.756c-2.214.122-26.437-8.116-26.437-8.116l4.671-4.8.258-.089c1.321-.446,7.423-2.509,10.81-3.49,3.815-1.107,8.242-5.656,8.242-5.656s6.515-2.214,7.379-2.461-2.214-8.607-2.214-8.607,14.141-1.963,19.675-3.627,18.325-1.048,20.66,5.471S677.965,426.074,676.965,427.3Z" transform="translate(-416.976 -271.248)" fill="#4b4b5b"/>
  <path id="Caminho_251" data-name="Caminho 251" d="M565.194,500.454s-2.826,2.951-5.656,2.708-12.724.738-12.724.738a19.839,19.839,0,0,0-4.984,2.889c-2.313,1.823-3.542.369-3.77.059l-.041-.059c-1.232,3.877-4.058.922-4.058.922s1.229-11.806.852-13.282,2.431-4.01,2.431-4.01l3.32-.845,8.412-2.155,12.053,4.18Z" transform="translate(-369.646 -323.618)" fill="#e7c7ca"/>
  <path id="Caminho_252" data-name="Caminho 252" d="M540.549,493.26l-2.49,17.273-.041-.059c-1.232,3.877-4.058.922-4.058.922s1.229-11.806.852-13.281,2.431-4.01,2.431-4.01Z" transform="translate(-369.646 -327.303)" opacity="0.1"/>
  <path id="Caminho_253" data-name="Caminho 253" d="M599,360.08s6.515,2.214,12.175,0" transform="translate(-410.691 -243.258)" opacity="0.1"/>
  <path id="Caminho_254" data-name="Caminho 254" d="M659.29,371.42s2.7,1.35,4.8,0" transform="translate(-448.738 -250.414)" opacity="0.1"/>
  <path id="Caminho_255" data-name="Caminho 255" d="M659.29,379.04s4.549.609,5.412-.62" transform="translate(-448.738 -254.831)" opacity="0.1"/>
  <path id="Caminho_256" data-name="Caminho 256" d="M655.29,394.333s8.544-1.107,10.666-2.583" transform="translate(-446.214 -263.243)" opacity="0.1"/>
  <path id="Caminho_257" data-name="Caminho 257" d="M584.62,391.75s4.8,2.7,8.364,2.583" transform="translate(-401.616 -263.243)" opacity="0.1"/>
  <path id="Caminho_258" data-name="Caminho 258" d="M639.59,483.425a39.379,39.379,0,0,1-4.2.756c-2.214.122-26.437-8.116-26.437-8.116l4.671-4.8.258-.089c.738.52,1.343.967,1.775,1.306,2.033,1.6,4-.491,4.733-.491s7.131,5.287,7.131,5.287,5.9,1.354,6.888,2.583,4.427.985,5.04,1.845A3.291,3.291,0,0,1,639.59,483.425Z" transform="translate(-416.97 -313.369)" opacity="0.1"/>
  <path id="Caminho_259" data-name="Caminho 259" d="M506.9,410.282s-5.969.343-9.411-1.107-14.879-4.8-18.2-2.446-11.315,4.427-7.626,13.776,5.412,9.592,5.412,9.592a13.32,13.32,0,0,1,2.951,3.062c1.107,1.723,11.437,5.656,14.019,5.656s7.131,0,13.525,4.427a27.8,27.8,0,0,0,12.175,4.922s8.116,3.32,10.644,4.058,14.075,3.933,16.783,2.951,4.427-7.135,4.427-7.135,1.229-5.534.612-6.394-4.058-.616-5.039-1.845-6.888-2.582-6.888-2.582-6.379-5.29-7.117-5.29-2.7,2.088-4.733.491A107.984,107.984,0,0,0,515.7,424.3C511.03,421.84,506.9,410.282,506.9,410.282Z" transform="translate(-329.731 -272.183)" fill="#4b4b5b"/>
  <path id="Caminho_260" data-name="Caminho 260" d="M536.27,427.176a7.047,7.047,0,0,1,6.047,1.6c2.951,2.461,12.883,7.4,12.883,7.4" transform="translate(-371.104 -285.51)" opacity="0.1"/>
  <path id="Caminho_261" data-name="Caminho 261" d="M709.577,427s-13.16,1.992-15.617,4.7" transform="translate(-470.617 -285.489)" opacity="0.1"/>
  <path id="Caminho_262" data-name="Caminho 262" d="M719.44,505.867h-.579c-2.081-.074-9.131-.3-10.489,0-1.6.369-22.752,0-22.752,0l4.136-.86s-1.535-5.379-.561-5.825c0,0-5.534-3.645-1.361-6.106a12.944,12.944,0,0,1,8.67-1.424l10.474-3.549,2.011-.683s11.806.616,15,8.733S719.44,505.867,719.44,505.867Z" transform="translate(-465.354 -323.618)" fill="#e7c7ca"/>
  <path id="Caminho_263" data-name="Caminho 263" d="M755.972,505.9h-.579c3.435-2.833,11.2-11.459-11.883-17.746l2.011-.682s11.806.616,15,8.733S755.972,505.9,755.972,505.9Z" transform="translate(-501.887 -323.65)" opacity="0.1"/>
  <ellipse id="Elipse_9" data-name="Elipse 9" cx="0.646" cy="0.646" rx="0.646" ry="0.646" transform="translate(231.736 171.395)" fill="#4b4b5b"/>
  <ellipse id="Elipse_10" data-name="Elipse 10" cx="0.646" cy="0.646" rx="0.646" ry="0.646" transform="translate(227.984 172.461)" fill="#4b4b5b"/>
  <g id="Grupo_11" data-name="Grupo 11" transform="translate(166.108 23.199)" opacity="0.1">
    <path id="Caminho_264" data-name="Caminho 264" d="M622.81,120.006a28.625,28.625,0,0,0-2.118-11.857c-4.8.716-10.05-2.985-14.418-.771-3.232,1.638-4.246,5.744-4.427,9.363-.044.956-.052,1.911-.033,2.867,0-.339,0-.683.033-1.022.17-3.619,1.184-7.725,4.427-9.363,4.368-2.214,9.614,1.476,14.418.771a28.548,28.548,0,0,1,2.118,10.013Z" transform="translate(-578.569 -106.532)"/>
    <path id="Caminho_265" data-name="Caminho 265" d="M553.584,120.6a12.3,12.3,0,0,0-.048-2.413c-.391-3.247-2.166-6.349-2.486-9.515-.413,3.818,2.018,7.486,2.486,11.359A2.3,2.3,0,0,1,553.584,120.6Z" transform="translate(-546.509 -107.799)"/>
    <path id="Caminho_266" data-name="Caminho 266" d="M565.337,212.18c-.229,2.737-.874,5.663-2.951,7.478s-5.9,1.716-7.058-.771c-.369-.738-.424-1.6-.782-2.335-.819-1.69-2.833-2.346-4.593-3.007-5-1.87-9.821-5.534-10.894-10.776a11.32,11.32,0,0,1-.2-1.439,11.626,11.626,0,0,0,.2,3.283c1.073,5.228,5.9,8.906,10.894,10.776,1.76.66,3.774,1.317,4.593,3.007.369.738.432,1.59.782,2.335,1.162,2.487,5,2.582,7.058.771s2.7-4.741,2.951-7.478a42.187,42.187,0,0,0,.114-4.331C565.451,210.531,565.4,211.358,565.337,212.18Z" transform="translate(-538.823 -166.274)"/>
    <path id="Caminho_267" data-name="Caminho 267" d="M687.93,125.192v1.6c.207-6.862,2.723-13.761,2.476-20.479C690.214,112.523,688.07,118.876,687.93,125.192Z" transform="translate(-632.92 -106.31)"/>
    <path id="Caminho_268" data-name="Caminho 268" d="M656.571,204.086a4.759,4.759,0,0,0,.085-1.332,7.378,7.378,0,0,0-.985-2.7c-2.132-4.058-4.564-8.212-4.852-12.717,0,.192-.026.369-.029.576-.148,5,2.549,9.566,4.881,13.986A8.854,8.854,0,0,1,656.571,204.086Z" transform="translate(-609.478 -157.446)"/>
    <path id="Caminho_269" data-name="Caminho 269" d="M669.126,217a30.021,30.021,0,0,1-3.723,12.735c-1.948,3.545-5.39,7.076-9.378,6.394a1.568,1.568,0,0,1-.952-.432.923.923,0,0,1-.173-.288c-.044.288-.081.579-.1.874a1.7,1.7,0,0,0,.277,1.258,1.568,1.568,0,0,0,.952.432c3.988.683,7.43-2.848,9.378-6.394a30.022,30.022,0,0,0,3.723-12.735c.044-.863.048-1.723.022-2.582C669.141,216.507,669.141,216.751,669.126,217Z" transform="translate(-611.995 -175.696)"/>
  </g>
  <path id="Caminho_270" data-name="Caminho 270" d="M695.31,511.172s9.338,3.918,15.5-4.752" transform="translate(-471.469 -335.608)" fill="none" stroke="#000" stroke-miterlimit="10" stroke-width="1" opacity="0.1"/>
  <path id="Caminho_271" data-name="Caminho 271" d="M700.29,534.007a18.2,18.2,0,0,1,17.34-.162" transform="translate(-474.612 -351.596)" fill="none" stroke="#000" stroke-miterlimit="10" stroke-width="1" opacity="0.1"/>
  <path id="Caminho_272" data-name="Caminho 272" d="M561.93,528.334s3.2-7.224,11.754-1.716" transform="translate(-387.297 -347.048)" fill="none" stroke="#000" stroke-miterlimit="10" stroke-width="1" opacity="0.1"/>
  <path id="Caminho_273" data-name="Caminho 273" d="M533.79,232.9l6.53-5.9s25.32-1.66,26.367,6.947c0,0,8.976-10.2,27.854-7.932l7.987,6.36-22.077,9.688L559,249.505l-15.8-7.072Z" transform="translate(-369.539 -158.445)" opacity="0.1"/>
  <path id="Caminho_274" data-name="Caminho 274" d="M533.79,233.9l6.53-5.9s25.32-1.66,26.367,6.947c0,0,8.976-10.2,27.854-7.932l7.987,6.36-22.077,9.688L559,250.505l-15.8-7.072Z" transform="translate(-369.539 -159.076)" fill="#d5d6db"/>
  <path id="Caminho_275" data-name="Caminho 275" d="M437.38,204.83l2.889,34.558,30.621,1.538-1.328-34.41-.026-.579Z" transform="translate(-276.017 -129.265)" opacity="0.1"/>
  <path id="Caminho_276" data-name="Caminho 276" d="M437.38,202.83l2.889,34.558,30.621,1.538-1.328-34.41-.026-.579Z" transform="translate(-276.017 -128.003)" fill="#e8c82a"/>
  <path id="Caminho_277" data-name="Caminho 277" d="M581.3,202.83l-31.588,4.737V242.28l30.868-4.46Z" transform="translate(-346.906 -128.003)" opacity="0.1"/>
  <path id="Caminho_278" data-name="Caminho 278" d="M581.3,200.83l-31.588,4.737V240.28l30.868-4.46Z" transform="translate(-346.906 -126.741)" fill="#e8c82a"/>
  <path id="Caminho_279" data-name="Caminho 279" d="M585.953,223.79l-17.063,1.9.373,5.814,16.679-1.823Z" transform="translate(-359.01 -141.23)" fill="#fff" opacity="0.3"/>
  <path id="Caminho_280" data-name="Caminho 280" d="M537.022,337.436l1.738,4.674s2.582,2.214,5.409,1.107,5.29-1.656,6.519-2.734,2.951-6.489,2.951-6.489,1.723-5.9,3.442-7.379,6.272-21.807,0-19.819-11.068,20.435-11.068,20.435a4.375,4.375,0,0,1-2.7,1.476c-1.6.125-4.8-.247-5.412,1.107S535.177,334.731,537.022,337.436Z" transform="translate(-371.11 -209.545)" fill="#be6f72"/>
  <path id="Caminho_281" data-name="Caminho 281" d="M622.444,255.13a10.625,10.625,0,0,1-9.264-2.309l1.332,34.406a9.39,9.39,0,0,0,7.932,2.619Z" transform="translate(-419.639 -175.569)" opacity="0.1"/>
  <path id="Caminho_282" data-name="Caminho 282" d="M622.444,253.13a10.625,10.625,0,0,1-9.264-2.309l1.332,34.406a9.389,9.389,0,0,0,7.932,2.619Z" transform="translate(-419.639 -174.307)" fill="#e8c82a"/>
  <path id="Caminho_283" data-name="Caminho 283" d="M622.444,253.13a10.625,10.625,0,0,1-9.264-2.309l1.332,34.406a9.389,9.389,0,0,0,7.932,2.619Z" transform="translate(-419.639 -174.307)" opacity="0.1"/>
  <path id="Caminho_284" data-name="Caminho 284" d="M640.29,240.7s12.85-3.929,16.2-3.376" transform="translate(-436.748 -165.759)" opacity="0.1"/>
  <path id="Caminho_285" data-name="Caminho 285" d="M576.466,238.048s-12.455-2.951-14.536-2.114" transform="translate(-387.297 -164.818)" opacity="0.1"/>
  <path id="Caminho_286" data-name="Caminho 286" d="M662.25,244.382s8.592-3.151,11.7-1.653" transform="translate(-450.606 -168.946)" opacity="0.1"/>
  <path id="Caminho_287" data-name="Caminho 287" d="M650.52,451.074a28.241,28.241,0,0,1,4.235-2.63,69.105,69.105,0,0,0,6.272-3.833" transform="translate(-443.204 -296.602)" opacity="0.1"/>
  <path id="Caminho_288" data-name="Caminho 288" d="M545.459,360.08s-5.39,4.409-7.01,4.8-2.619,3.826-2.619,3.826" transform="translate(-370.826 -243.258)" opacity="0.1"/>
  <path id="Caminho_289" data-name="Caminho 289" d="M675.541,335.675l-1.719,4.685s-2.583,2.214-5.412,1.107-5.287-1.656-6.519-2.734-2.951-6.489-2.951-6.489-1.719-5.9-3.442-7.379-6.272-21.807,0-19.819,11.068,20.435,11.068,20.435a4.374,4.374,0,0,0,2.7,1.476c1.6.125,4.8-.247,5.412,1.107S677.386,332.981,675.541,335.675Z" transform="translate(-444.318 -208.441)" fill="#be6f72"/>
  <path id="Caminho_290" data-name="Caminho 290" d="M707.15,364.94s3.523,2.265,3.509,4.973" transform="translate(-478.941 -246.325)" opacity="0.1"/>
  <ellipse id="Elipse_11" data-name="Elipse 11" cx="16.48" cy="16.48" rx="16.48" ry="16.48" transform="translate(181.834 19.993)" fill="#be6f72"/>
  <path id="Caminho_291" data-name="Caminho 291" d="M584.111,100.58c2-.314,3.752-1.476,5.663-2.143,4.276-1.5,9.006-.472,13.333.882a17.292,17.292,0,0,0,5.088,1.107,5.149,5.149,0,0,0,4.479-2.214,5,5,0,0,0-.029-4.623,13.02,13.02,0,0,0-3.01-3.715c-3.837-3.623-8.6-7.01-13.861-6.641a19.076,19.076,0,0,0-6.091,1.745,67.138,67.138,0,0,0-7.15,3.6c-1.775,1.029-5.062,2.405-6.084,4.287C574.124,97.1,580.5,101.148,584.111,100.58Z" transform="translate(-396.145 -68.53)" fill="#3e373a"/>
  <path id="Caminho_292" data-name="Caminho 292" d="M612.671,114.682a5.149,5.149,0,0,1-4.479,2.214,17.305,17.305,0,0,1-5.091-1.085c-4.328-1.354-9.054-2.387-13.333-.882-1.907.668-3.663,1.845-5.663,2.14-2.915.457-7.607-2.081-8.116-5.309-.572,3.73,4.87,6.925,8.116,6.416,2-.314,3.756-1.476,5.663-2.14,4.28-1.505,9.006-.472,13.333.882A16.605,16.605,0,0,0,608.193,118a5.188,5.188,0,0,0,4.479-2.214,4.32,4.32,0,0,0,.517-2.7,3.979,3.979,0,0,1-.517,1.59Z" transform="translate(-396.143 -86.55)" opacity="0.1"/>
  <path id="Caminho_293" data-name="Caminho 293" d="M1027.7,661.63s2.188,2.859-1.011,7.179-5.833,7.965-4.77,10.658c0,0,4.826-8.021,8.751-8.135S1032.015,666.452,1027.7,661.63Z" transform="translate(-677.433 -433.557)" fill="#e8c82a"/>
  <path id="Caminho_294" data-name="Caminho 294" d="M1027.916,661.63a3.547,3.547,0,0,1,.447.9c3.829,4.5,5.873,8.7,2.188,8.806-3.431.1-7.545,6.235-8.53,7.781a3.638,3.638,0,0,0,.114.369s4.826-8.02,8.751-8.135S1032.228,666.452,1027.916,661.63Z" transform="translate(-677.646 -433.557)" opacity="0.1"/>
  <path id="Caminho_295" data-name="Caminho 295" d="M1048.135,670.409c0,1.007-.114,1.823-.251,1.823s-.254-.815-.254-1.823.14-.531.28-.531S1048.135,669.4,1048.135,670.409Z" transform="translate(-693.808 -438.691)" fill="#ffd037"/>
  <path id="Caminho_296" data-name="Caminho 296" d="M1049.841,673.556c-.882.48-1.653.771-1.719.649s.594-.612,1.476-1.107.535-.133.6,0S1050.727,673.073,1049.841,673.556Z" transform="translate(-694.115 -440.635)" fill="#ffd037"/>
  <path id="Caminho_297" data-name="Caminho 297" d="M998.267,661.63s-2.188,2.859,1.011,7.179,5.833,7.965,4.766,10.658c0,0-4.822-8.021-8.751-8.135S993.965,666.452,998.267,661.63Z" transform="translate(-659.56 -433.557)" fill="#e8c82a"/>
  <path id="Caminho_298" data-name="Caminho 298" d="M998.267,661.63a3.544,3.544,0,0,0-.446.9c-3.83,4.5-5.873,8.7-2.188,8.806,3.427.1,7.545,6.235,8.53,7.781a2.865,2.865,0,0,1-.118.369s-4.822-8.02-8.751-8.135S993.965,666.452,998.267,661.63Z" transform="translate(-659.56 -433.557)" opacity="0.1"/>
  <path id="Caminho_299" data-name="Caminho 299" d="M995.64,670.409c0,1.007.111,1.823.251,1.823s.255-.815.255-1.823-.144-.531-.28-.531S995.64,669.4,995.64,670.409Z" transform="translate(-660.999 -438.691)" fill="#ffd037"/>
  <path id="Caminho_300" data-name="Caminho 300" d="M990.942,673.556c.882.48,1.653.771,1.719.649s-.594-.612-1.476-1.107-.535-.133-.6,0S990.056,673.073,990.942,673.556Z" transform="translate(-657.695 -440.635)" fill="#ffd037"/>
  <ellipse id="Elipse_12" data-name="Elipse 12" cx="22.874" cy="3.509" rx="22.874" ry="3.509" transform="translate(321.615 260.779)" fill="#e8c82a" opacity="0.1"/>
  <path id="Caminho_301" data-name="Caminho 301" d="M1013.951,697.246l-.111.893-.155,1.262-.063.528-.155,1.262-.066.528-.151,1.258-1.753,14.351c-.155,1.28-2.247,2.28-4.774,2.28H997.63c-2.527,0-4.615-1-4.774-2.28L991.1,702.975l-.155-1.258-.063-.528-.155-1.262-.066-.528-.151-1.262-.111-.893c-.085-.738,1.044-1.336,2.476-1.336h18.6C1012.907,695.91,1014.04,696.519,1013.951,697.246Z" transform="translate(-657.69 -455.19)" fill="#65617d"/>
  <path id="Caminho_302" data-name="Caminho 302" d="M925.457,658.53l-.151,1.262H902.285l-.155-1.262Z" transform="translate(-569.307 -415.581)" fill="#9d9cb5"/>
  <path id="Caminho_303" data-name="Caminho 303" d="M925.612,663.38l-.151,1.262H902.875l-.155-1.262Z" transform="translate(-569.68 -418.642)" fill="#9d9cb5"/>
  <path id="Caminho_304" data-name="Caminho 304" d="M925.773,668.23l-.155,1.262H903.471l-.151-1.262Z" transform="translate(-570.058 -421.703)" fill="#9d9cb5"/>
</svg>
